<svg width="241" height="86" viewBox="0 0 241 86" fill="none" xmlns="http://www.w3.org/2000/svg">
    <path d="M109.183 27.8229H14.1211V53.6264H109.183V27.8229Z" fill="white"/>
    <path d="M50.2915 37.6079C50.5877 38.0325 50.7146 38.6269 50.757 39.2637H45.7647C45.8494 38.5844 46.0609 38.0325 46.3148 37.6079C46.7379 36.971 47.4148 36.5889 48.3033 36.5889C49.234 36.5889 49.8685 36.9285 50.2915 37.6079ZM30.6191 41.1742C30.1961 41.4715 29.9846 41.9387 29.9846 42.5329C29.9846 42.915 30.0692 43.2123 30.1961 43.4671C30.2807 43.5944 30.323 43.6792 30.6191 43.8915C30.6191 43.8915 31.2539 44.4011 32.6922 44.3161C33.7076 44.2736 34.596 44.0613 34.596 44.0613V40.8346C34.596 40.8346 33.7076 40.6648 32.6922 40.6648C31.2114 40.6223 30.6191 41.1742 30.6191 41.1742ZM76.5214 36.6314C75.5908 36.6314 74.9562 36.971 74.5332 37.6079C74.11 38.2871 73.8985 39.2214 73.8985 40.41C73.8985 41.5989 74.11 42.5754 74.5332 43.2548C74.9562 43.934 75.6332 44.2313 76.5214 44.2313C77.4523 44.2313 78.0869 43.8915 78.5521 43.2548C78.9753 42.5754 79.2291 41.6413 79.2291 40.41C79.2291 39.2214 79.0176 38.2448 78.5521 37.6079C78.1291 36.9285 77.4523 36.6314 76.5214 36.6314ZM121.578 38.4146C121.578 53.02 109.901 64.8232 95.4747 64.8232C93.6979 64.8232 92.0056 64.6534 90.3134 64.3138C87.0558 70.1728 80.7945 74.1214 73.6869 74.1214C70.6832 74.1214 67.8486 73.442 65.3527 72.2108C62.0528 80.0229 54.3107 85.5 45.3417 85.5C35.9497 85.5 27.9961 79.556 24.9079 71.1918C23.554 71.4891 22.1578 71.6164 20.7617 71.6164C9.59294 71.6589 0.539383 62.488 0.539383 51.1519C0.539383 43.5519 4.60079 36.9285 10.6506 33.4047C9.42371 30.5176 8.70451 27.3756 8.70451 24.0214C8.70451 11.0295 19.2388 0.5 32.2268 0.5C39.842 0.5 46.611 4.15135 50.9263 9.75575C54.8183 5.67982 60.2758 3.13237 66.2834 3.13237C74.2793 3.13237 81.2598 7.59041 84.9405 14.2562C88.1558 12.8127 91.7517 12.006 95.4747 12.006C109.901 12.006 121.578 23.8516 121.578 38.4146ZM26.4731 42.6179C26.4731 40.6648 24.7386 39.9431 23.0887 39.3912L22.877 39.3062C21.6502 38.9241 20.5926 38.5419 20.5926 37.7352V37.6927C20.5926 37.0135 21.2271 36.5041 22.1578 36.5041C23.2156 36.5041 24.4847 36.8437 25.3309 37.3106C25.3309 37.3106 25.5847 37.4806 25.6693 37.2258C25.7117 37.0985 26.1347 35.9945 26.177 35.8671C26.2194 35.7398 26.1347 35.6548 26.0501 35.5698C25.1194 35.0179 23.8079 34.5935 22.4964 34.5935H22.2425C19.9581 34.5935 18.3926 35.952 18.3926 37.9475V37.99C18.3926 40.0704 20.1272 40.7498 21.7772 41.2167L22.031 41.3017C23.2156 41.6838 24.2732 41.981 24.2732 42.8302V42.8727C24.2732 43.6369 23.5964 44.2313 22.5386 44.2313C22.1156 44.2313 20.8041 44.2313 19.3234 43.2971C19.1542 43.2123 19.0695 43.1273 18.9003 43.0425C18.8157 43 18.6465 42.915 18.5619 43.1698L18.0542 44.5285C17.9696 44.7408 18.0965 44.7833 18.0965 44.7833C18.308 44.9531 18.5619 45.0804 18.7734 45.2079C20.0003 45.8446 21.1849 46.0569 22.4118 46.0569C24.9079 46.1419 26.4731 44.7833 26.4731 42.6179ZM36.7958 45.2079V38.7542C36.7958 37.3531 36.4152 36.2918 35.696 35.6548C34.9766 35.0179 33.8768 34.6783 32.4807 34.6783C31.973 34.6783 31.1268 34.7633 30.6191 34.8481C30.6191 34.8481 29.0961 35.1454 28.4616 35.6548C28.4616 35.6548 28.3347 35.7398 28.4192 35.952L28.9268 37.3106C28.9692 37.4806 29.1385 37.4381 29.1385 37.4381C29.1385 37.4381 29.1808 37.3956 29.2654 37.3956C30.6191 36.6739 32.3114 36.6739 32.3114 36.6739C33.073 36.6739 33.6651 36.8437 34.0459 37.1408C34.4267 37.4381 34.6383 37.8627 34.6383 38.8393V39.1364C34.0459 39.0514 33.496 39.0091 33.496 39.0091C33.1999 39.0091 32.8613 38.9666 32.3961 38.9666C31.8037 38.9666 31.2114 39.0514 30.6615 39.1789C30.1115 39.3062 29.6038 39.561 29.1808 39.8581C28.7577 40.1554 28.4192 40.5375 28.1654 41.0044C27.9115 41.4715 27.7846 42.0235 27.7846 42.6179C27.7846 43.2548 27.9115 43.7642 28.123 44.2313C28.3347 44.6558 28.6309 45.0379 29.0539 45.3352C29.4345 45.6323 29.9424 45.8446 30.4923 45.9721C31.0421 46.0994 31.6769 46.1844 32.3536 46.1844C33.073 46.1844 33.7922 46.1419 34.469 46.0144C35.1459 45.8871 35.992 45.7173 36.2459 45.6748C36.4574 45.6323 36.7536 45.5475 36.7536 45.5475C36.7958 45.3777 36.7958 45.2079 36.7958 45.2079ZM41.3226 30.6024C41.3226 30.4751 41.238 30.3901 41.1111 30.3901H39.2497C39.1228 30.3901 39.0382 30.4751 39.0382 30.6024V45.6323C39.0382 45.7598 39.1228 45.8446 39.2497 45.8446H41.1111C41.238 45.8446 41.3226 45.7598 41.3226 45.6323V30.6024ZM52.7454 37.7777C52.5762 37.0985 52.1531 36.4191 51.857 36.122C51.3915 35.6123 50.9685 35.2727 50.5455 35.1029C49.9532 34.8481 49.2762 34.6783 48.557 34.6783C47.6686 34.6783 46.8647 34.8481 46.2302 35.1454C45.5957 35.4425 45.0456 35.8671 44.6225 36.3766C44.1995 36.8862 43.8609 37.5229 43.6918 38.2023C43.4803 38.8816 43.3957 39.6458 43.3957 40.4525C43.3957 41.2592 43.5226 42.0235 43.7341 42.7029C43.9456 43.3821 44.2842 43.9765 44.7494 44.486C45.2149 44.9956 45.8072 45.3777 46.5264 45.6748C47.2455 45.9296 48.0916 46.0994 49.0647 46.0994C51.0954 46.0994 52.1531 45.6323 52.6184 45.3777C52.703 45.3352 52.7877 45.2502 52.6608 45.0379L52.1954 43.7642C52.1107 43.5519 51.9416 43.6369 51.9416 43.6369C51.4339 43.8067 50.7146 44.1463 49.0647 44.1463C47.9647 44.1463 47.1609 43.8067 46.6532 43.2971C46.1455 42.7877 45.8918 42.0235 45.8494 40.9621H52.8723C52.8723 40.9621 53.0416 40.9621 53.0838 40.7921C52.957 40.7498 53.1685 39.3487 52.7454 37.7777ZM62.8142 42.6604C62.8142 40.6648 61.0797 39.9431 59.4298 39.3912L59.2183 39.3062C57.9914 38.9241 56.9337 38.5419 56.9337 37.7352V37.6927C56.9337 37.0135 57.5682 36.5041 58.4991 36.5041C59.5567 36.5041 60.8259 36.8437 61.672 37.3106C61.672 37.3106 61.9259 37.4806 62.0104 37.2258C62.0528 37.0985 62.4758 35.9945 62.518 35.8671C62.5604 35.7398 62.4758 35.6548 62.3912 35.5698C61.4605 35.0179 60.149 34.5935 58.8375 34.5935H58.5835C56.2991 34.5935 54.7337 35.952 54.7337 37.9475V37.99C54.7337 40.0704 56.4684 40.7498 58.1183 41.2167L58.372 41.3017C59.5567 41.6838 60.6144 41.981 60.6144 42.8302V42.8727C60.6144 43.6369 59.9375 44.2313 58.8797 44.2313C58.4567 44.2313 57.1452 44.2313 55.6646 43.2971C55.4953 43.2123 55.3684 43.1273 55.2414 43.0425C55.1991 43 54.9876 42.915 54.903 43.1698L54.3953 44.5285C54.3107 44.7408 54.4375 44.7833 54.4375 44.7833C54.6491 44.9531 54.903 45.0804 55.1145 45.2079C56.3414 45.8446 57.526 46.0569 58.7528 46.0569C61.2489 46.1419 62.8142 44.7833 62.8142 42.6604ZM71.2755 35.1454C71.2755 35.0179 71.2332 34.9331 71.0639 34.9331H68.8218C68.8218 34.8906 68.9486 34.0839 69.2026 33.3622C69.3294 33.0225 69.4987 32.7677 69.7102 32.5979C69.8793 32.4281 70.091 32.3006 70.3025 32.2158C70.5141 32.1308 70.7678 32.0883 71.0639 32.0883C71.2755 32.0883 71.487 32.1308 71.6563 32.1308C71.8678 32.1733 71.9524 32.2158 72.0371 32.2158C72.2486 32.3006 72.2908 32.2158 72.3332 32.0883L72.8831 30.6024C72.9255 30.4326 72.7985 30.3901 72.7562 30.3477C72.5447 30.2627 72.3332 30.2203 72.0793 30.1778C71.8256 30.1354 71.487 30.0929 71.1064 30.0929C69.8371 30.0929 68.8218 30.4751 68.1448 31.1543C67.468 31.8762 66.9604 32.9375 66.7487 34.3387L66.6642 34.8056H65.0566C65.0566 34.8056 64.8451 34.8056 64.8026 35.0179L64.5489 36.5041C64.5489 36.6314 64.5911 36.7164 64.7604 36.7164H66.3256L64.7604 45.5475C64.6334 46.2692 64.5065 46.8211 64.3374 47.2882C64.1681 47.7129 64.0412 48.0525 63.8297 48.3073C63.6604 48.5194 63.4911 48.6894 63.195 48.8167C62.9412 48.9015 62.6873 48.944 62.3489 48.944C62.1796 48.944 61.9681 48.9015 61.7988 48.9015C61.6297 48.8592 61.5451 48.8167 61.4182 48.7742C61.4182 48.7742 61.2489 48.6894 61.1643 48.9015C61.1221 49.0715 60.6989 50.1754 60.6566 50.3452C60.6144 50.4725 60.6566 50.6 60.7835 50.6423C60.995 50.7273 61.1643 50.7698 61.4182 50.8123C61.7988 50.8971 62.1374 50.8971 62.4336 50.8971C63.0681 50.8971 63.6604 50.8123 64.1681 50.6423C64.6758 50.4725 65.0988 50.1753 65.4796 49.7507C65.9026 49.2836 66.1565 48.8167 66.3681 48.1798C66.6218 47.5429 66.8333 46.7363 67.0026 45.8021L68.5678 36.8437H70.8949C70.8949 36.8437 71.1064 36.8437 71.1486 36.6314L71.2755 35.1454ZM81.5983 40.41C81.5983 39.6035 81.5137 38.8816 81.3022 38.1598C81.0907 37.4806 80.7945 36.8437 80.3713 36.3343C79.9483 35.8246 79.3984 35.4 78.7638 35.1029C78.1291 34.8056 77.3677 34.6358 76.5639 34.6358C75.7176 34.6358 74.9562 34.8056 74.3215 35.1029C73.6869 35.4 73.137 35.8246 72.714 36.3343C72.2908 36.8437 71.9946 37.4381 71.7831 38.1598C71.5716 38.8392 71.487 39.6035 71.487 40.41C71.487 41.2167 71.5716 41.981 71.7831 42.6604C71.9946 43.3396 72.2908 43.9765 72.714 44.486C73.137 44.9956 73.6869 45.42 74.3215 45.6748C74.9562 45.9721 75.7176 46.0994 76.5639 46.0994C77.4099 46.0994 78.1291 45.9721 78.7638 45.6748C79.3984 45.3777 79.9483 44.9956 80.3713 44.486C80.7945 43.9765 81.0907 43.3821 81.3022 42.6604C81.5137 41.9387 81.5983 41.2167 81.5983 40.41ZM89.8479 35.0179C89.721 34.9756 89.1287 34.8481 88.6635 34.8056C87.775 34.7633 87.3096 34.8906 86.8443 35.1029C86.4211 35.3152 85.9134 35.6123 85.6597 35.9945V35.1454C85.6597 35.0179 85.575 34.9331 85.4482 34.9331H83.6712C83.5444 34.9331 83.4597 35.0179 83.4597 35.1454V45.6323C83.4597 45.7598 83.5444 45.8446 83.6712 45.8446H85.5328C85.6597 45.8446 85.7443 45.7598 85.7443 45.6323V40.41C85.7443 39.6883 85.829 39.0091 85.9981 38.5419C86.1674 38.1173 86.3366 37.7777 86.6328 37.5229C86.8865 37.2683 87.1827 37.0985 87.4789 37.0135C87.8172 36.9285 88.1558 36.8862 88.4095 36.8862C88.7904 36.8862 89.1711 36.971 89.1711 36.971C89.298 36.971 89.3827 36.8862 89.4249 36.7587C89.5519 36.4191 89.8903 35.485 89.9325 35.2727C90.0172 35.1454 89.8903 35.0604 89.8479 35.0179ZM98.8169 45.2927L98.3092 43.8915C98.2245 43.6792 98.0555 43.7642 98.0555 43.7642C97.7593 43.8915 97.4209 43.9765 97.0823 44.019C96.744 44.0613 96.3632 44.1038 95.9401 44.1038C94.9248 44.1038 94.121 43.8067 93.5709 43.2123C93.021 42.6179 92.6826 41.6838 92.6826 40.3677C92.6826 39.1789 92.9786 38.2871 93.4864 37.6079C93.9941 36.9285 94.7555 36.5889 95.7708 36.5889C96.6171 36.5889 97.2939 36.6739 97.9708 36.8862C97.9708 36.8862 98.1401 36.971 98.2245 36.7587C98.3938 36.2493 98.5207 35.9096 98.7324 35.3577C98.7746 35.1877 98.6478 35.1454 98.6053 35.1029C98.3516 34.9756 97.7169 34.8056 97.2092 34.7633C96.7439 34.6783 96.2363 34.6783 95.644 34.6783C94.7555 34.6783 93.9941 34.8481 93.3171 35.1029C92.6402 35.4 92.0903 35.8246 91.6248 36.3343C91.2018 36.8437 90.821 37.4381 90.6095 38.1598C90.398 38.8392 90.2711 39.6035 90.2711 40.41C90.2711 42.1508 90.7364 43.5094 91.6671 44.5285C92.598 45.5475 93.9517 46.0569 95.7708 46.0569C96.8286 46.0569 97.9286 45.8446 98.69 45.5475C98.7324 45.5475 98.9015 45.505 98.8169 45.2927ZM108.928 37.7777C108.759 37.0985 108.336 36.4191 108.04 36.122C107.574 35.6123 107.151 35.2727 106.728 35.1029C106.136 34.8481 105.459 34.6783 104.698 34.6783C103.809 34.6783 103.048 34.8481 102.371 35.1454C101.736 35.4425 101.186 35.8671 100.763 36.3766C100.34 36.8862 100.001 37.5229 99.8322 38.2023C99.6207 38.8816 99.536 39.6458 99.536 40.4525C99.536 41.2592 99.6631 42.0235 99.8322 42.7029C100.044 43.3821 100.382 43.9765 100.848 44.486C101.313 44.9956 101.905 45.3777 102.624 45.6748C103.344 45.9296 104.19 46.0994 105.163 46.0994C107.194 46.0994 108.251 45.6323 108.674 45.3777C108.759 45.3352 108.844 45.2502 108.717 45.0379L108.251 43.7642C108.167 43.5519 107.997 43.6369 107.997 43.6369C107.49 43.8067 106.77 44.1463 105.121 44.1463C104.021 44.1463 103.217 43.8067 102.709 43.2971C102.201 42.7877 101.948 42.0235 101.905 40.9621H108.928C108.928 40.9621 109.097 40.9621 109.14 40.7921C109.14 40.7498 109.351 39.3487 108.928 37.7777ZM104.528 36.5889C103.598 36.5889 102.963 36.971 102.54 37.6079C102.244 38.0325 102.075 38.5844 101.99 39.2637H106.982C106.94 38.6269 106.813 38.0325 106.517 37.6079C106.051 36.9285 105.417 36.5889 104.528 36.5889Z" fill="#0D9DDA"/>
    <path d="M240.123 31.7078L238.981 33.321C237.795 32.472 236.484 32.0474 235.088 32.0474C234.115 32.0474 233.353 32.2172 232.802 32.5993C232.253 32.9814 232 33.5333 232 34.2127C232 34.7222 232.127 35.1468 232.338 35.4864C232.549 35.826 232.931 36.0808 233.48 36.3356C234.031 36.5479 234.791 36.8025 235.806 37.0573C237.415 37.4395 238.557 38.0339 239.319 38.7556C240.081 39.5198 240.461 40.4964 240.461 41.6852C240.461 43.2137 239.91 44.4025 238.768 45.2517C237.626 46.1008 236.23 46.5254 234.537 46.5254C232.296 46.5254 230.434 45.931 228.912 44.6996L230.096 43.0864C230.772 43.5533 231.449 43.8931 232.127 44.1477C232.802 44.36 233.564 44.4873 234.411 44.4873C235.468 44.4873 236.273 44.2752 236.864 43.8081C237.457 43.341 237.752 42.7042 237.752 41.8975C237.752 41.3456 237.626 40.921 237.415 40.5814C237.203 40.2416 236.822 39.9444 236.315 39.7321C235.806 39.5198 235.004 39.2652 233.989 39.0104C232.38 38.5858 231.196 38.0339 230.476 37.3545C229.756 36.6752 229.376 35.6987 229.376 34.4674C229.376 33.1512 229.885 32.0899 230.9 31.2831C231.916 30.4764 233.269 30.0943 234.962 30.0943C236.992 30.0518 238.683 30.6037 240.123 31.7078ZM216.177 37.1847C216.219 35.6987 216.684 34.4674 217.446 33.4908C218.25 32.5143 219.35 32.0474 220.787 32.0474C222.227 32.0474 223.284 32.5143 224.046 33.4485C224.806 34.3825 225.188 35.6562 225.231 37.1847H216.177ZM227.726 39.2227C227.768 38.9679 227.768 38.6283 227.768 38.1187C227.768 35.6987 227.177 33.7456 225.993 32.2597C224.806 30.7735 223.073 30.0518 220.831 30.0518C219.307 30.0518 217.996 30.3914 216.897 31.0708C215.797 31.7501 214.993 32.7266 214.4 33.9579C213.851 35.1893 213.553 36.5902 213.553 38.2037C213.553 40.7087 214.231 42.7465 215.542 44.2327C216.897 45.7612 218.714 46.4829 221.127 46.4829C222.311 46.4829 223.411 46.3131 224.426 45.9735C225.399 45.6338 226.33 45.1667 227.219 44.5298L226.077 42.8315C225.315 43.341 224.553 43.7231 223.835 43.9779C223.073 44.2327 222.269 44.36 221.296 44.36C219.687 44.36 218.503 43.8931 217.615 42.9589C216.77 42.0248 216.261 40.7512 216.177 39.1377H227.726V39.2227ZM205.346 46.1008H207.928V37.6943C207.928 36.0808 208.308 34.8072 209.112 33.7881C209.916 32.7691 211.058 32.3022 212.538 32.3022C212.962 32.3022 213.3 32.3022 213.469 32.3445L213.638 30.0943C213.215 30.0518 212.92 30.0093 212.751 30.0093C210.381 30.0093 208.774 30.9858 207.843 32.9389C207.801 31.9624 207.716 31.1556 207.63 30.4764H205.135C205.262 31.6653 205.346 32.8116 205.346 33.9579V46.1008ZM187.535 40.0294C187.535 41.94 188.043 43.511 189.016 44.6996C189.989 45.8885 191.47 46.4829 193.373 46.4829C195.828 46.4829 197.647 45.5063 198.747 43.5533H198.79C198.832 44.5723 198.916 45.379 199.001 46.016H201.496C201.369 44.8271 201.285 43.6808 201.285 42.5344V30.4764H198.705V38.7981C198.705 40.4116 198.281 41.7277 197.434 42.7891C196.59 43.8506 195.446 44.4025 194.008 44.4025C192.697 44.4025 191.724 43.9779 191.131 43.0864C190.497 42.2371 190.201 41.0483 190.201 39.6473V30.4764H187.535V40.0294ZM181.232 25.7212L178.609 26.6553V30.4764L175.901 30.7735V32.472H178.651V42.1098C178.651 43.511 179.032 44.6148 179.836 45.379C180.64 46.1433 181.697 46.5254 183.051 46.5254C183.982 46.5254 184.786 46.3981 185.462 46.1433L185.082 44.2327C184.616 44.36 184.109 44.445 183.559 44.445C182.036 44.445 181.274 43.5958 181.274 41.94V32.472H185.378V30.4764H181.274V25.7212H181.232ZM160.671 46.1008H163.252V37.1423C163.252 35.7412 163.675 34.5524 164.521 33.6183C165.367 32.6843 166.509 32.2172 167.905 32.2172C169.259 32.2172 170.274 32.6418 170.867 33.4485C171.459 34.255 171.797 35.2741 171.797 36.5479V46.1008H174.378V35.9958C174.378 34.2975 173.913 32.8964 172.94 31.7501C172.009 30.6037 170.528 30.0518 168.582 30.0518C167.313 30.0518 166.213 30.3066 165.325 30.7735C164.394 31.2406 163.675 31.8776 163.167 32.6843H163.125C163.082 31.7501 162.998 31.0283 162.913 30.4764H160.459C160.586 31.6653 160.671 32.8116 160.671 33.9579V46.1008ZM146.118 37.1847C146.16 35.6987 146.625 34.4674 147.387 33.4908C148.191 32.5143 149.291 32.0474 150.729 32.0474C152.167 32.0474 153.225 32.5143 153.987 33.4485C154.748 34.3825 155.129 35.6562 155.171 37.1847H146.118ZM157.71 39.2227C157.752 38.9679 157.752 38.6283 157.752 38.1187C157.752 35.6987 157.159 33.7456 155.975 32.2597C154.79 30.7735 153.056 30.0518 150.814 30.0518C149.291 30.0518 147.979 30.3914 146.879 31.0708C145.779 31.7501 144.975 32.7266 144.383 33.9579C143.833 35.1893 143.537 36.5902 143.537 38.2037C143.537 40.7087 144.214 42.7465 145.525 44.2327C146.879 45.7612 148.698 46.4829 151.11 46.4829C152.294 46.4829 153.394 46.3131 154.41 45.9735C155.383 45.6338 156.313 45.1667 157.202 44.5298L156.06 42.8315C155.298 43.341 154.536 43.7231 153.817 43.9779C153.056 44.2327 152.252 44.36 151.279 44.36C149.671 44.36 148.487 43.8931 147.598 42.9589C146.752 42.0248 146.245 40.7512 146.16 39.1377H157.71V39.2227ZM143.241 30.4764H140.576L136.133 43.4685H136.049L131.437 30.4764H128.645L134.568 46.1008H137.487L143.241 30.4764Z" fill="#032D60"/>
</svg>
