<svg width="251" height="50" viewBox="0 0 251 50" fill="none" xmlns="http://www.w3.org/2000/svg">
    <path d="M0.460632 0H50.594V50H0.460632V0Z" fill="#F26625"/>
    <path d="M140.859 9.90099C141.317 9.94225 141.401 10.4785 141.442 10.8086C141.567 12.5 141.609 14.1502 141.609 15.8416C141.693 17.4505 141.692 19.0182 141.692 20.6271C142.609 19.9257 143.484 19.1832 144.568 18.7706C146.277 18.0281 148.36 18.0281 150.027 18.8944C151.819 19.802 153.069 21.5347 153.695 23.3911C154.278 25.165 154.445 27.0627 154.32 28.9191C154.153 31.1056 153.569 33.2921 152.278 35.066C151.527 36.0974 150.527 37.005 149.277 37.4587C147.277 38.1601 145.068 37.9125 143.276 36.7987C142.734 36.4686 142.234 35.9736 141.734 35.5611C141.526 36.2211 141.359 36.8399 141.151 37.5C140.192 37.5 139.275 37.5825 138.317 37.4175C138.692 35.9323 138.692 34.3647 138.734 32.8383C138.817 27.434 138.734 22.0297 138.692 16.6667C138.567 14.5627 138.734 12.4587 138.359 10.396C139.234 10.1485 140.026 9.90099 140.859 9.90099ZM147.86 21.0396C147.027 20.8746 146.193 20.8746 145.36 20.9571C143.86 21.1634 142.651 22.1947 141.692 23.2673C141.651 23.6386 141.693 23.9687 141.651 24.3399V32.9208C141.609 33.2096 141.859 33.4158 142.068 33.5809C143.526 34.9835 145.693 35.6436 147.693 35.1485C148.652 34.901 149.485 34.2822 149.944 33.4158C150.652 32.2195 150.902 30.8168 151.027 29.4554C151.111 28.4241 151.236 27.3515 151.111 26.3201C151.069 25.1238 150.819 23.8449 150.194 22.8135C149.694 21.9472 148.86 21.2459 147.86 21.0396ZM160.279 10.6436C160.862 10.4373 161.529 10.4785 162.113 10.7261C162.654 11.0561 163.029 11.5512 163.279 12.1287C163.654 13.3663 162.654 14.769 161.362 14.934C160.362 15.0578 159.279 14.4802 158.987 13.4901C158.57 12.4175 159.195 11.0974 160.279 10.6436ZM71.3891 12.9125C72.806 11.9637 74.473 11.2211 76.2233 11.2211C78.0152 11.1799 79.8489 11.3036 81.4741 12.0875C82.1409 12.3762 82.8077 12.7063 83.3911 13.2013C82.9744 13.9026 82.4326 14.5214 81.9325 15.1403C81.2658 14.769 80.6407 14.3564 79.9322 14.1089C78.1819 13.4901 76.1816 13.3663 74.4313 14.0676C72.9727 14.6452 71.7642 15.7591 71.0141 17.1205C70.514 18.0693 70.0556 19.1007 69.8472 20.1733C69.6805 21.2046 69.5972 22.2772 69.5555 23.3498C69.5138 24.7525 69.4305 26.1964 69.5138 27.599C69.7639 29.5792 70.4306 31.5594 71.8059 33.0446C72.9727 34.4059 74.723 35.1898 76.515 35.3548C77.4318 35.396 78.3903 35.396 79.3071 35.1898C80.4323 34.9422 81.3908 34.3647 82.4326 33.9109C83.0161 34.4884 83.5578 35.1485 84.0579 35.8498C83.3078 36.2624 82.516 36.6749 81.6825 37.005C79.5155 37.8713 77.0567 37.9125 74.7647 37.665C73.0977 37.335 71.5558 36.4686 70.2639 35.396C68.7637 34.1172 67.6802 32.4257 67.0551 30.5693C66.5966 29.3317 66.3883 28.0116 66.2633 26.7327C66.2216 25.7426 66.0966 24.7937 66.2216 23.8036C66.2633 21.9472 66.555 20.132 67.3051 18.3993C68.1386 16.2541 69.4721 14.2327 71.3891 12.9125Z" fill="#F26625"/>
    <path d="M15.3381 12.4587C15.5465 12.4175 15.7965 12.335 16.0049 12.335C17.0884 12.2937 18.1719 12.3762 19.2554 12.4175C19.4221 12.3762 19.5055 12.5413 19.5471 12.665C21.1724 16.0066 22.7977 19.3894 24.4646 22.731C24.8397 23.4323 25.1314 24.1337 25.5481 24.7937C25.8815 24.2574 26.1732 23.6799 26.4649 23.1023C28.3403 19.5132 30.0905 15.9241 31.9242 12.335C33.1327 12.3762 34.3413 12.2525 35.5498 12.4587C35.3414 13.1601 34.9247 13.7376 34.633 14.3977C32.2159 18.9769 29.7572 23.5561 27.3401 28.1353C27.2567 28.3003 27.2151 28.5066 27.2151 28.7129C27.2151 31.9719 27.2151 35.2723 27.2151 38.5314C26.0482 38.5314 24.8813 38.5314 23.7145 38.5314C23.7145 35.3548 23.7145 32.137 23.7145 28.9604C23.7145 28.6304 23.7562 28.2591 23.5478 27.929C21.2974 23.7624 19.0887 19.5957 16.8383 15.3878C16.3383 14.3977 15.7965 13.4488 15.3381 12.4587Z" fill="#FFFEFE"/>
    <path d="M209.204 13.9026C210.162 13.6139 211.162 13.3663 212.163 13.2013C211.996 15.0165 211.871 16.8317 211.829 18.6881C213.371 18.7294 214.955 18.7294 216.497 18.7706C216.247 19.472 215.955 20.1733 215.622 20.8333C214.288 20.8333 212.996 20.8333 211.663 20.8333C211.663 22.5248 211.663 24.2162 211.663 25.9076C211.663 27.2277 211.746 28.5891 211.704 29.9092C211.746 31.4356 211.662 32.9621 211.829 34.4472C211.871 35.066 212.454 35.5198 212.996 35.6848C213.955 35.8911 214.955 35.8086 215.872 35.6023C216.122 36.1386 216.247 36.7574 216.205 37.335C215.371 37.7888 214.371 37.8713 213.413 37.9538C212.079 37.9951 210.579 37.7888 209.62 36.7574C208.829 36.0148 208.912 34.8597 208.787 33.8696C208.704 31.7244 208.745 29.538 208.704 27.3927C208.704 25.2063 208.704 22.9785 208.704 20.7921C207.87 20.7921 207.037 20.7921 206.203 20.7921C206.162 20.0908 206.162 19.3482 206.203 18.6469C207.037 18.6469 207.829 18.6469 208.662 18.6469C208.954 17.0792 208.954 15.4703 209.204 13.9026ZM95.2681 18.2343C96.0599 18.2756 96.8517 18.2343 97.6018 18.4818C99.3521 19.0594 100.811 20.2558 101.728 21.8234C102.519 23.1848 103.061 24.7112 103.103 26.2789C103.186 28.3828 103.269 30.5693 102.603 32.5908C101.978 34.4885 100.644 36.1799 98.8104 37.1287C97.0184 38.0363 94.8514 38.2426 92.9344 37.7063C91.1841 37.2525 89.6838 36.0974 88.6837 34.6122C87.5585 33.0033 87.1834 31.0644 87.1417 29.1254C87.1001 27.269 87.0584 25.3713 87.6835 23.5974C88.2669 21.8647 89.3921 20.2558 90.9757 19.2657C91.6842 18.8119 92.476 18.4406 93.3094 18.2756C93.9762 18.1931 94.643 18.2343 95.2681 18.2343ZM93.7679 20.6271C92.7677 20.8746 91.8092 21.4521 91.2674 22.3185C90.4756 23.5974 90.3506 25.1238 90.2673 26.5677C90.1839 27.6403 90.2673 28.7129 90.3506 29.7855C90.5173 31.0644 90.7674 32.4257 91.3925 33.5809C92.0592 34.8185 93.4761 35.4373 94.8514 35.5198C96.1432 35.6023 97.5602 35.2723 98.477 34.2822C99.2271 33.4571 99.6438 32.4257 99.8105 31.3119C100.019 29.9505 99.9772 28.5891 99.9355 27.2277C99.8939 25.8251 99.7688 24.3399 99.1854 23.0198C98.852 22.1947 98.2269 21.4934 97.4351 21.0809C96.3516 20.4208 94.9764 20.3383 93.7679 20.6271ZM108.312 18.8531C109.187 18.5644 110.062 18.3581 110.979 18.1931C111.354 19.0181 111.562 19.9257 111.646 20.8333C112.271 20.5033 112.729 20.0082 113.313 19.637C114.605 18.6881 116.188 18.1106 117.814 18.1931C118.189 18.2343 118.522 18.3168 118.855 18.4818C119.397 18.7706 119.981 19.0594 120.439 19.4719C120.897 19.9257 121.231 20.5033 121.564 21.0809C122.314 20.7508 122.856 20.1733 123.523 19.7195C124.648 18.9356 125.94 18.3168 127.357 18.1931C128.649 18.0693 129.941 18.4818 130.899 19.3482C131.316 19.7607 131.774 20.1733 131.983 20.7096C132.191 21.2459 132.274 21.8234 132.316 22.401C132.524 25.4125 132.399 28.4653 132.524 31.4769C132.524 33.4984 132.524 35.4785 132.524 37.5C131.524 37.5 130.524 37.5413 129.482 37.5C129.482 34.4885 129.482 31.4769 129.482 28.4654C129.482 26.5264 129.524 24.5875 129.357 22.6485C129.274 22.0297 128.94 21.4521 128.44 21.0809C127.857 20.7096 127.107 20.7508 126.44 20.7921C125.231 20.9158 124.273 21.6584 123.356 22.3597C122.939 22.731 122.481 23.0611 122.064 23.4323C121.939 23.5149 121.981 23.7211 121.981 23.8449C121.981 28.3828 121.981 32.9208 121.981 37.4587C120.981 37.4587 119.981 37.4587 118.98 37.4587V26.8564C118.98 25.9901 118.98 25.1238 118.939 24.2987C118.897 23.4323 118.98 22.4835 118.564 21.6997C117.939 20.8333 116.73 20.6683 115.772 20.9158C114.271 21.2871 112.938 22.1947 111.813 23.2261C111.646 23.3498 111.646 23.5561 111.646 23.7624C111.646 28.3416 111.646 32.9208 111.646 37.5C110.771 37.5413 109.896 37.5413 109.02 37.5C108.937 32.8383 108.979 28.1353 108.854 23.4323C108.812 22.3597 108.812 21.2871 108.687 20.2558C108.562 19.7607 108.395 19.3069 108.312 18.8531ZM159.57 18.6881C160.529 18.5644 161.487 18.3993 162.446 18.1931C162.571 20.8333 162.529 23.4736 162.529 26.1139C162.529 29.9092 162.529 33.7046 162.529 37.5C161.529 37.5413 160.529 37.5413 159.529 37.5C159.487 32.0545 159.529 26.6502 159.529 21.2046C159.57 20.3795 159.529 19.5132 159.57 18.6881ZM198.202 18.3168C200.244 18.6881 201.994 20.5446 202.036 22.6485C202.161 25.7838 201.994 28.9191 202.036 32.0545V33.0033C202.036 33.6221 202.078 34.2409 202.244 34.8597C202.369 35.4786 202.953 35.8086 203.411 36.1799C202.994 36.7574 202.619 37.4175 202.078 37.9125C201.744 38.2013 201.327 37.8713 201.077 37.7063C200.369 37.17 199.869 36.3861 199.452 35.6023C198.785 35.9736 198.327 36.5099 197.66 36.8812C196.577 37.5825 195.285 37.9951 193.951 37.9538C192.784 37.9951 191.576 37.7888 190.534 37.2525C188.825 36.3449 187.867 34.3647 187.909 32.5083C187.909 30.6931 188.825 28.9191 190.284 27.8465C192.034 26.5264 194.285 26.1139 196.41 25.9488C197.368 25.8663 198.369 25.8663 199.369 25.8251C199.41 24.8762 199.327 23.9274 199.202 22.9785C199.077 22.1947 198.702 21.3696 197.952 20.9571C197.077 20.5033 196.035 20.462 195.035 20.6271C193.201 20.8333 191.492 21.6172 189.992 22.6898C189.576 22.1122 189.159 21.5759 188.825 20.9571C188.659 20.6683 188.909 20.4208 189.159 20.297C191.159 19.1832 193.368 18.2343 195.701 18.2756H196.702C197.202 18.2343 197.702 18.2343 198.202 18.3168ZM196.952 27.764C196.035 27.8465 195.076 27.8878 194.201 28.1353C193.118 28.4241 192.118 29.1254 191.534 30.0743C191.201 30.6106 191.201 31.2706 191.159 31.8894C191.159 32.5495 191.076 33.2921 191.326 33.9109C191.576 34.571 192.034 35.1898 192.701 35.4373C193.451 35.7673 194.326 35.8086 195.16 35.7261C196.16 35.6023 197.035 35.066 197.785 34.4884C198.41 33.9521 199.035 33.2921 199.077 32.4257C199.202 30.8993 199.16 29.3729 199.202 27.8465C198.452 27.8465 197.702 27.6815 196.952 27.764ZM229.624 18.3581C231.332 18.7706 232.874 19.802 233.874 21.2046C234.708 22.3597 235.25 23.6799 235.5 25.0825C235.708 26.4026 235.792 27.764 235.708 29.0842C235.666 31.2706 235 33.4571 233.666 35.1898C232.583 36.5924 230.916 37.4175 229.207 37.7475C227.123 38.1188 224.873 37.7475 223.123 36.5099C221.581 35.4373 220.622 33.7046 220.081 31.972C219.789 31.0644 219.747 30.1568 219.664 29.2079C219.622 27.6403 219.622 26.0726 219.914 24.5462C220.331 22.8135 221.206 21.1221 222.539 19.8845C223.539 18.9769 224.79 18.3993 226.123 18.2343C227.29 18.1106 228.457 18.1518 229.624 18.3581ZM226.332 20.5858C224.915 20.7508 223.79 21.8647 223.331 23.1436C222.748 24.5049 222.831 25.9901 222.789 27.434C222.831 28.7954 222.831 30.1568 223.081 31.5182C223.248 32.4257 223.539 33.3333 224.165 34.0347C224.748 34.736 225.623 35.1898 226.498 35.3548C226.832 35.4373 227.207 35.4786 227.54 35.4786H227.874L228.207 35.4373C228.915 35.3548 229.582 35.1485 230.207 34.8185C230.957 34.4059 231.499 33.6221 231.791 32.8383C232.166 31.8894 232.208 30.8581 232.291 29.868C232.333 28.6716 232.374 27.4752 232.291 26.2789C232.208 25.0413 232.041 23.7624 231.457 22.6485C230.916 21.8234 230.166 21.1221 229.249 20.7096C228.374 20.462 227.332 20.462 226.332 20.5858ZM240.834 18.8944C241.751 18.6469 242.626 18.3581 243.543 18.1518C244.043 19.0594 244.126 20.132 244.168 21.1221C244.626 20.7921 245.001 20.3383 245.418 19.9257C246.71 18.6469 248.627 17.863 250.461 18.1931V18.4406C250.044 19.3069 249.794 20.2558 249.419 21.1634C249.377 21.3284 249.127 21.2871 249.002 21.2871C248.21 21.2871 247.335 21.2871 246.627 21.6997C245.918 22.1122 245.293 22.6485 244.793 23.3086C244.293 23.9274 244.376 24.7937 244.376 25.5363C244.335 26.6089 244.293 27.6815 244.335 28.7541C244.335 31.6419 244.335 34.571 244.335 37.4587C243.334 37.5 242.334 37.5 241.334 37.4587C241.334 34.2409 241.334 30.9818 241.334 27.764C241.334 25.5776 241.334 23.3498 241.251 21.1634C241.167 20.4208 240.917 19.6782 240.834 18.8944ZM168.447 18.9356C169.322 18.6469 170.239 18.3168 171.156 18.3168C171.489 19.1832 171.698 20.0908 171.823 20.9984C172.614 20.5033 173.281 19.8432 174.115 19.3894C175.698 18.4819 177.615 17.8218 179.407 18.4818C180.449 18.8531 181.491 19.4307 182.116 20.3795C182.616 21.0396 182.741 21.9472 182.824 22.7723C182.991 25.7013 182.949 28.6304 182.949 31.6007C182.949 33.5809 182.991 35.5198 182.991 37.5C181.991 37.5413 180.991 37.5413 179.991 37.5C179.991 34.2822 179.907 31.0231 179.907 27.8053C179.866 25.9901 179.949 24.2162 179.741 22.401C179.449 21.5347 178.615 20.8333 177.699 20.7921C177.032 20.7508 176.323 20.7508 175.656 20.9984C174.24 21.5347 172.948 22.401 171.781 23.3498C171.739 28.0528 171.781 32.797 171.781 37.5C170.906 37.5 170.031 37.5413 169.155 37.5C169.155 34.8185 169.072 32.137 169.072 29.4554C169.03 26.6914 169.072 23.9686 168.905 21.2046C168.864 20.4208 168.614 19.6782 168.447 18.9356Z" fill="#F26625"/>
</svg>
