<svg xmlns="http://www.w3.org/2000/svg" width="1200" height="748" viewBox="0 0 1200 748" fill="none">
  <rect width="1200" height="748" rx="40" fill="url(#bg)"/>
  <circle cx="180" cy="112" r="168" fill="#E25A25" fill-opacity=".14"/>
  <circle cx="1014" cy="146" r="190" fill="#9478C7" fill-opacity=".16"/>
  <circle cx="676" cy="692" r="256" fill="#4A8CFF" fill-opacity=".08"/>
  <rect x="96" y="86" width="1008" height="576" rx="30" fill="#FFFFFF" stroke="#E9E9E9" filter="url(#shadow)"/>
  <rect x="96" y="86" width="1008" height="72" rx="30" fill="#FFFFFF"/>
  <path d="M96 158H1104" stroke="#EEEEEE"/>
  <rect x="124" y="108" width="32" height="32" rx="10" fill="#E25A25"/>
  <rect x="170" y="116" width="156" height="16" rx="8" fill="#171717" fill-opacity=".82"/>
    <rect x="872" y="106" width="204" height="38" rx="19" fill="#FFFFFF" stroke="#E7E7E7"/>
  <circle cx="894" cy="125" r="5" fill="#22C55E"/>
  <rect x="912" y="119" width="112" height="11" rx="5.5" fill="#333333" fill-opacity=".28"/>
    <rect x="96" y="158" width="230" height="504" fill="#FAFAFA"/>
  <path d="M326 158V662" stroke="#EEEEEE"/>
  <rect x="120" y="182" width="182" height="42" rx="12" fill="#171717"/>
  <rect x="120" y="236" width="182" height="42" rx="12" fill="#FFFFFF" stroke="#EEEEEE"/>
  <rect x="120" y="290" width="182" height="42" rx="12" fill="#FFFFFF" stroke="#EEEEEE"/>
  <rect x="148" y="198" width="126" height="10" rx="5" fill="#FFFFFF" fill-opacity=".42"/>
  <rect x="148" y="252" width="112" height="10" rx="5" fill="#171717" fill-opacity=".12"/>
  <rect x="148" y="306" width="96" height="10" rx="5" fill="#171717" fill-opacity=".12"/>
  <rect x="354" y="186" width="76" height="39" rx="19.5" fill="#171717"/>
  <rect x="378" y="200" width="28" height="10" rx="5" fill="#FFFFFF" fill-opacity=".5"/>
    <rect x="440" y="186" width="125" height="39" rx="19.5" fill="#FFFFFF" stroke="#E7E7E7"/>
  <rect x="464" y="200" width="72" height="10" rx="5" fill="#333333" fill-opacity=".22"/>
    <rect x="576" y="186" width="124" height="39" rx="19.5" fill="#FFFFFF" stroke="#E7E7E7"/>
  <rect x="600" y="200" width="70" height="10" rx="5" fill="#333333" fill-opacity=".22"/>
    <rect x="712" y="186" width="116" height="39" rx="19.5" fill="#FFFFFF" stroke="#E7E7E7"/>
  <rect x="736" y="200" width="62" height="10" rx="5" fill="#333333" fill-opacity=".22"/>
    <g>
    <rect x="354" y="250" width="700" height="118" rx="22" fill="#FFFFFF" stroke="#ECECEC"/>
    <circle cx="386" cy="282" r="16" fill="#E25A25"/>
    <rect x="414" y="274" width="130" height="14" rx="7" fill="#171717" fill-opacity=".55"/>
    <rect x="914" y="276" width="92" height="10" rx="5" fill="#777777" fill-opacity=".28"/>
    <rect x="374" y="318" width="440" height="12" rx="6" fill="#171717" fill-opacity=".26"/>
                    <path d="M374 342V362" stroke="#E25A25" stroke-width="3"/>
    <rect x="390" y="354" width="400" height="12" rx="6" fill="#171717" fill-opacity=".34"/>
      </g>
  <g>
    <rect x="354" y="390" width="700" height="118" rx="22" fill="#FFFFFF" stroke="#ECECEC"/>
    <circle cx="386" cy="422" r="16" fill="#4A8CFF"/>
    <rect x="414" y="414" width="130" height="14" rx="7" fill="#171717" fill-opacity=".55"/>
    <rect x="914" y="416" width="94" height="10" rx="5" fill="#777777" fill-opacity=".28"/>
    <rect x="374" y="458" width="360" height="12" rx="6" fill="#171717" fill-opacity=".26"/>
                    <path d="M374 482V502" stroke="#E25A25" stroke-width="3"/>
    <rect x="390" y="494" width="330" height="12" rx="6" fill="#171717" fill-opacity=".34"/>
      </g>
  <g>
    <rect x="354" y="530" width="700" height="92" rx="22" fill="#FFFFFF" stroke="#ECECEC"/>
    <circle cx="386" cy="562" r="16" fill="#11A89D"/>
    <rect x="414" y="554" width="126" height="14" rx="7" fill="#171717" fill-opacity=".55"/>
    <rect x="914" y="556" width="92" height="10" rx="5" fill="#777777" fill-opacity=".28"/>
    <rect x="374" y="598" width="390" height="12" rx="6" fill="#171717" fill-opacity=".26"/>
                  </g>
  <defs>
    <linearGradient id="bg" x1="0" y1="0" x2="1200" y2="748" gradientUnits="userSpaceOnUse">
      <stop stop-color="#FFF8F3"/>
      <stop offset=".52" stop-color="#FFFFFF"/>
      <stop offset="1" stop-color="#F3F6FF"/>
    </linearGradient>
    <filter id="shadow" x="56" y="54" width="1088" height="656" filterUnits="userSpaceOnUse" color-interpolation-filters="sRGB">
      <feDropShadow dx="0" dy="24" stdDeviation="24" flood-color="#171717" flood-opacity=".14"/>
    </filter>
  </defs>
</svg>
