<svg xmlns="http://www.w3.org/2000/svg" width="1200" height="748" viewBox="0 0 1200 748" fill="none">
  <rect width="1200" height="748" rx="40" fill="url(#darkBg)"/>
  <rect x="74" y="112" width="390" height="52" rx="26" fill="#FFFFFF" fill-opacity=".9"/>
  <rect x="74" y="184" width="316" height="52" rx="26" fill="#FFFFFF" fill-opacity=".74"/>
  <rect x="74" y="278" width="384" height="14" rx="7" fill="#FFFFFF" fill-opacity=".28"/>
  <rect x="74" y="314" width="304" height="14" rx="7" fill="#FFFFFF" fill-opacity=".2"/>
  <rect x="644" y="72" width="460" height="604" rx="28" fill="#FFFFFF" stroke="#E8E8E8"/>
  <rect x="670" y="108" width="122" height="18" rx="9" fill="#171717" fill-opacity=".8"/>
  <rect x="670" y="160" width="102" height="12" rx="6" fill="#171717" fill-opacity=".44"/>
  <rect x="670" y="184" width="408" height="46" rx="12" fill="#FFFFFF" stroke="#DDDDDD"/>
  <rect x="686" y="201" width="284" height="12" rx="6" fill="#777777" fill-opacity=".35"/>
  <rect x="670" y="264" width="130" height="12" rx="6" fill="#171717" fill-opacity=".42"/>
  <rect x="670" y="290" width="112" height="40" rx="20" fill="#FFFFFF" stroke="#E7E7E7"/>
  <rect x="694" y="305" width="64" height="10" rx="5" fill="#333333" fill-opacity=".28"/>
    <rect x="792" y="290" width="120" height="40" rx="20" fill="#FFFFFF" stroke="#E7E7E7"/>
  <rect x="817" y="305" width="70" height="10" rx="5" fill="#333333" fill-opacity=".28"/>
    <rect x="922" y="290" width="112" height="40" rx="20" fill="#FFFFFF" stroke="#E7E7E7"/>
  <rect x="946" y="305" width="64" height="10" rx="5" fill="#333333" fill-opacity=".28"/>
    <rect x="670" y="374" width="408" height="82" rx="18" fill="#FAFAFA" stroke="#ECECEC"/>
  <rect x="688" y="402" width="112" height="12" rx="6" fill="#171717" fill-opacity=".42"/>
  <rect x="688" y="428" width="192" height="10" rx="5" fill="#777777" fill-opacity=".3"/>
  <rect x="1012" y="401" width="48" height="28" rx="14" fill="#E25A25"/>
  <circle cx="1046" cy="415" r="11" fill="#FFFFFF"/>
  <rect x="670" y="498" width="408" height="50" rx="14" fill="#171717"/>
  <rect x="812" y="518" width="124" height="10" rx="5" fill="#FFFFFF" fill-opacity=".55"/>
    <defs>
    <linearGradient id="darkBg" x1="0" y1="0" x2="1200" y2="748" gradientUnits="userSpaceOnUse">
      <stop stop-color="#2F3438"/>
      <stop offset=".52" stop-color="#3A3E43"/>
      <stop offset="1" stop-color="#24282C"/>
    </linearGradient>
  </defs>
</svg>
