<svg xmlns="http://www.w3.org/2000/svg" width="1200" height="748" viewBox="0 0 1200 748" fill="none">
  <rect width="1200" height="748" rx="40" fill="url(#bg)"/>
  <rect x="76" y="70" width="186" height="40" rx="20" fill="#FFFFFF" stroke="#F2C5B2"/>
  <rect x="76" y="150" width="352" height="42" rx="21" fill="#171717" fill-opacity=".9"/>
  <rect x="76" y="214" width="300" height="42" rx="21" fill="#171717" fill-opacity=".75"/>
  <rect x="76" y="300" width="366" height="14" rx="7" fill="#555555" fill-opacity=".34"/>
  <rect x="76" y="332" width="304" height="14" rx="7" fill="#555555" fill-opacity=".24"/>
  <rect x="540" y="64" width="590" height="620" rx="28" fill="#FFFFFF" stroke="#E9E9E9"/>
  <rect x="540" y="64" width="590" height="74" rx="28" fill="#FFFFFF"/>
  <path d="M540 138H1130" stroke="#EEEEEE"/>
  <rect x="568" y="86" width="32" height="32" rx="10" fill="#E25A25"/>
  <rect x="614" y="94" width="172" height="16" rx="8" fill="#171717" fill-opacity=".82"/>
    <rect x="942" y="84" width="150" height="38" rx="19" fill="#FFFFFF" stroke="#E7E7E7"/>
  <circle cx="964" cy="103" r="5" fill="#22C55E"/>
  <rect x="982" y="97" width="76" height="11" rx="5.5" fill="#333333" fill-opacity=".28"/>
    <g opacity=".72">
    <rect x="568" y="170" width="534" height="150" rx="22" fill="#FFFFFF" stroke="#ECECEC"/>
    <circle cx="600" cy="202" r="16" fill="#4A8CFF"/>
    <rect x="628" y="194" width="104" height="14" rx="7" fill="#171717" fill-opacity=".38"/>
    <rect x="588" y="242" width="404" height="12" rx="6" fill="#777777" fill-opacity=".22"/>
                    <path d="M588 272V298" stroke="#E25A25" stroke-width="3"/>
    <rect x="604" y="286" width="344" height="14" rx="7" fill="#171717" fill-opacity=".3"/>
      </g>
  <rect x="568" y="344" width="534" height="176" rx="22" fill="#FFFFFF" stroke="#ECECEC"/>
  <circle cx="600" cy="376" r="16" fill="#E25A25"/>
  <rect x="628" y="368" width="86" height="14" rx="7" fill="#171717" fill-opacity=".55"/>
  <rect x="962" y="370" width="104" height="12" rx="6" fill="#E25A25" fill-opacity=".6"/>
  <rect x="588" y="418" width="418" height="12" rx="6" fill="#777777" fill-opacity=".24"/>
          <path d="M588 452V486" stroke="#E25A25" stroke-width="3"/>
  <rect x="604" y="468" width="360" height="14" rx="7" fill="#171717" fill-opacity=".45"/>
  <rect x="604" y="496" width="210" height="14" rx="7" fill="#171717" fill-opacity=".34"/>
      <rect x="568" y="548" width="94" height="40" rx="20" fill="#FFFFFF" stroke="#E7E7E7"/>
  <rect x="590" y="563" width="48" height="10" rx="5" fill="#333333" fill-opacity=".3"/>
    <rect x="674" y="548" width="76" height="40" rx="20" fill="#FFFFFF" stroke="#F2C5B2"/>
  <rect x="696" y="563" width="32" height="10" rx="5" fill="#E25A25" fill-opacity=".45"/>
    <defs>
    <linearGradient id="bg" x1="0" y1="0" x2="1200" y2="748" gradientUnits="userSpaceOnUse">
      <stop stop-color="#FFFFFF"/>
      <stop offset=".48" stop-color="#FFF7F3"/>
      <stop offset="1" stop-color="#F6F6F6"/>
    </linearGradient>
  </defs>
</svg>
