<svg width="40" height="40" viewBox="0 0 40 40" fill="none" xmlns="http://www.w3.org/2000/svg">
<path d="M25.8327 27.0268H23.4494V24.6435C23.449 24.3276 23.3234 24.0247 23.0999 23.8013C22.8765 23.5778 22.5736 23.4522 22.2577 23.4518H17.491C17.1751 23.4522 16.8722 23.5778 16.6488 23.8013C16.4254 24.0247 16.2997 24.3276 16.2994 24.6435V27.0268H13.916V24.6435C13.9171 23.6957 14.294 22.787 14.9643 22.1167C15.6345 21.4465 16.5432 21.0695 17.491 21.0685H22.2577C23.2055 21.0695 24.1142 21.4465 24.7845 22.1167C25.4547 22.787 25.8317 23.6957 25.8327 24.6435V27.0268ZM19.8744 19.8768C19.0494 19.8768 18.2431 19.6322 17.5572 19.1739C16.8713 18.7156 16.3367 18.0642 16.021 17.3021C15.7053 16.54 15.6227 15.7014 15.7837 14.8923C15.9446 14.0832 16.3418 13.3401 16.9251 12.7568C17.5084 12.1735 18.2516 11.7762 19.0607 11.6153C19.8697 11.4544 20.7083 11.537 21.4705 11.8526C22.2326 12.1683 22.884 12.7029 23.3423 13.3888C23.8006 14.0747 24.0452 14.8811 24.0452 15.706C24.0439 16.8118 23.6041 17.8719 22.8222 18.6538C22.0403 19.4357 20.9801 19.8755 19.8744 19.8768ZM19.8744 13.9185C19.5208 13.9185 19.1752 14.0233 18.8813 14.2197C18.5873 14.4162 18.3582 14.6953 18.2229 15.0219C18.0876 15.3486 18.0522 15.708 18.1212 16.0547C18.1902 16.4015 18.3604 16.72 18.6104 16.97C18.8604 17.2199 19.1789 17.3902 19.5256 17.4592C19.8724 17.5281 20.2318 17.4927 20.5584 17.3574C20.885 17.2221 21.1642 16.993 21.3606 16.6991C21.557 16.4051 21.6619 16.0595 21.6619 15.706C21.6613 15.2321 21.4728 14.7777 21.1377 14.4426C20.8026 14.1075 20.3483 13.919 19.8744 13.9185Z" fill="url(#paint0_linear_7980_14677)"/>
<path d="M37.0518 21.5601C37.2732 21.3389 37.4487 21.0762 37.5685 20.787C37.6883 20.4979 37.75 20.188 37.75 19.875C37.75 19.562 37.6883 19.2521 37.5685 18.963C37.4487 18.6738 37.2732 18.4111 37.0518 18.1899L30.1558 11.2942L33.6123 7.88265C34.1221 8.00897 34.6593 7.96353 35.1406 7.75337C35.6219 7.54322 36.0204 7.1801 36.2743 6.72035C36.5282 6.26059 36.6233 5.7299 36.5448 5.21061C36.4663 4.69132 36.2186 4.21245 35.8401 3.84829C35.4617 3.48413 34.9736 3.25503 34.4517 3.19655C33.9298 3.13807 33.4032 3.25346 32.9535 3.52483C32.5038 3.7962 32.1563 4.20838 31.9648 4.69742C31.7733 5.18646 31.7486 5.72502 31.8944 6.22956L28.4704 9.60854L21.5601 2.69817C21.3389 2.47683 21.0762 2.30125 20.787 2.18145C20.4979 2.06166 20.188 2 19.875 2C19.562 2 19.2521 2.06166 18.963 2.18145C18.6738 2.30125 18.4111 2.47683 18.1899 2.69817L11.2942 9.594L7.883 6.13709C8.00925 5.62723 7.96371 5.08995 7.75344 4.60861C7.54316 4.12727 7.17992 3.72878 6.72005 3.47497C6.26018 3.22115 5.7294 3.12619 5.21006 3.20483C4.69072 3.28347 4.21184 3.5313 3.84773 3.90988C3.48362 4.28846 3.25462 4.77662 3.19627 5.29863C3.13792 5.82064 3.25347 6.34732 3.52501 6.79696C3.79654 7.24659 4.20887 7.59404 4.69803 7.78541C5.18719 7.97678 5.72584 8.00137 6.2304 7.85536L9.60878 11.2796L2.69817 18.1899C2.47683 18.4111 2.30125 18.6738 2.18145 18.963C2.06166 19.2521 2 19.562 2 19.875C2 20.188 2.06166 20.4979 2.18145 20.787C2.30125 21.0762 2.47683 21.3389 2.69817 21.5601L9.60854 28.4704L6.2304 31.8946C5.72698 31.7497 5.1898 31.7749 4.70213 31.9662C4.21446 32.1576 3.80353 32.5045 3.53304 32.9531C3.26254 33.4018 3.14759 33.9271 3.20599 34.4477C3.26439 34.9683 3.49289 35.4551 3.85606 35.8327C4.21924 36.2102 4.69682 36.4574 5.21476 36.536C5.73271 36.6145 6.26211 36.5201 6.72091 36.2672C7.1797 36.0143 7.54227 35.6171 7.75241 35.1372C7.96256 34.6574 8.00854 34.1216 7.88324 33.6129L11.2944 30.156L18.1901 37.0518C18.4114 37.2732 18.6741 37.4487 18.9632 37.5685C19.2524 37.6883 19.5623 37.75 19.8752 37.75C20.1882 37.75 20.4981 37.6883 20.7873 37.5685C21.0764 37.4487 21.3391 37.2732 21.5604 37.0518L28.4706 30.1415L31.8946 33.5204C31.7497 34.024 31.7749 34.5612 31.9664 35.049C32.1578 35.5367 32.5048 35.9477 32.9536 36.2182C33.4023 36.4887 33.9278 36.6036 34.4485 36.5451C34.9692 36.4866 35.456 36.258 35.8336 35.8947C36.2112 35.5314 36.4583 35.0536 36.5368 34.5356C36.6153 34.0175 36.5206 33.488 36.2676 33.0292C36.0146 32.5704 35.6172 32.2079 35.1372 31.9978C34.6572 31.7877 34.1213 31.7419 33.6126 31.8674L30.156 28.4558L37.0518 21.5601ZM19.875 35.3667L4.38331 19.875L19.875 4.38331L35.3667 19.875L19.875 35.3667Z" fill="url(#paint1_linear_7980_14677)"/>
<defs>
<linearGradient id="paint0_linear_7980_14677" x1="19.8744" y1="11.5352" x2="19.8744" y2="27.0268" gradientUnits="userSpaceOnUse">
<stop stop-color="#A849F4"/>
<stop offset="1" stop-color="#7477ED"/>
</linearGradient>
<linearGradient id="paint1_linear_7980_14677" x1="19.875" y1="2" x2="19.875" y2="37.75" gradientUnits="userSpaceOnUse">
<stop stop-color="#A849F4"/>
<stop offset="1" stop-color="#7477ED"/>
</linearGradient>
</defs>
</svg>
