<svg width="24" height="18" viewBox="0 0 24 18" fill="none" xmlns="http://www.w3.org/2000/svg">
    <g clip-path="url(#clip0_637_12420)">
        <path fill-rule="evenodd" clip-rule="evenodd" d="M0 0H34.2V1.3875H0V0ZM0 2.77125H34.2V4.15875H0V2.77125ZM0 5.53875H34.2V6.92625H0V5.53875ZM0 8.30625H34.2V9.69375H0V8.30625ZM0 11.0813H34.2V12.4613H0V11.0813ZM0 13.845H34.2V15.2325H0V13.845ZM0 16.6125H34.2V18H0V16.6125Z" fill="#BD3D44"/>
        <path fill-rule="evenodd" clip-rule="evenodd" d="M0 1.38672H34.2V2.77047H0V1.38672ZM0 4.15422H34.2V5.53797H0V4.15422ZM0 6.92172H34.2V8.30922H0V6.92172ZM0 9.69297H34.2V11.0805H0V9.69297ZM0 12.4605H34.2V13.848H0V12.4605ZM0 15.228H34.2V16.6155H0V15.228Z" fill="white"/>
        <path fill-rule="evenodd" clip-rule="evenodd" d="M0 0H13.68V9.69375H0V0Z" fill="#192F5D"/>
        <path fill-rule="evenodd" clip-rule="evenodd" d="M1.14 0.414062L1.2675 0.800312H1.665L1.3425 1.03656L1.46625 1.42281L1.14 1.18281L0.8175 1.41906L0.9375 1.03656L0.61125 0.800312H1.02L1.14 0.414062ZM3.42 0.414062L3.54375 0.800312H3.94875L3.6225 1.03656L3.7425 1.42281L3.42 1.18281L3.09375 1.41906L3.2175 1.03656L2.895 0.800312H3.2925L3.42 0.414062ZM5.7 0.414062L5.82375 0.800312H6.225L5.9025 1.03656L6.02625 1.42281L5.7 1.18281L5.37375 1.41906L5.4975 1.03656L5.17125 0.800312H5.57625L5.7 0.414062ZM7.98 0.414062L8.10375 0.800312H8.50875L8.1825 1.03656L8.30625 1.42281L7.98 1.18281L7.65375 1.41906L7.78125 1.03656L7.45125 0.800312H7.8525L7.98 0.414062ZM10.26 0.414062L10.3838 0.800312H10.785L10.4625 1.03656L10.5863 1.42281L10.26 1.18281L9.93375 1.41906L10.0575 1.03656L9.735 0.800312H10.1362L10.26 0.414062ZM12.54 0.414062L12.6638 0.800312H13.0688L12.7388 1.03656L12.8663 1.42281L12.54 1.18281L12.2138 1.41906L12.3413 1.03656L12.0113 0.800312H12.4163L12.54 0.414062ZM2.28 1.38906L2.40375 1.77156H2.8125L2.48625 2.00406L2.60625 2.39031L2.2875 2.15406L1.96125 2.39031L2.0775 2.00406L1.7625 1.77156H2.16375L2.28 1.38906ZM4.56 1.38906L4.6875 1.77156H5.08875L4.75875 2.00406L4.88625 2.39031L4.56 2.15406L4.23375 2.39031L4.3575 2.00406L4.03125 1.77156H4.43625L4.56 1.38906ZM6.84 1.38906L6.96375 1.77156H7.36875L7.0425 2.00406L7.16625 2.39031L6.84 2.15406L6.51375 2.39031L6.6375 2.00406L6.315 1.77156H6.7125L6.84 1.38906ZM9.12 1.38906L9.2475 1.77156H9.64875L9.31875 2.00406L9.44625 2.39031L9.12 2.15406L8.7975 2.39031L8.9175 2.00406L8.59125 1.77156H9L9.12 1.38906ZM11.4 1.38906L11.5238 1.77156H11.9288L11.6025 2.00406L11.7263 2.39031L11.4 2.15406L11.0738 2.39031L11.1975 2.00406L10.875 1.77156H11.2763L11.4 1.38906ZM1.14 2.34906L1.2675 2.73906H1.665L1.3425 2.97531L1.46625 3.35781L1.14 3.12156L0.8175 3.35781L0.9375 2.97531L0.61125 2.73906H1.02L1.14 2.34906ZM3.42 2.34906L3.54375 2.73906H3.94875L3.6225 2.97531L3.7425 3.35781L3.42 3.12156L3.09375 3.35781L3.2175 2.97156L2.895 2.73531H3.2925L3.42 2.34906ZM5.7 2.34906L5.82375 2.73531H6.225L5.9025 2.97156L6.02625 3.35406L5.7 3.11781L5.37375 3.35406L5.4975 2.96781L5.17125 2.73156H5.57625L5.7 2.34906ZM7.98 2.34906L8.10375 2.73531H8.50875L8.1825 2.97156L8.30625 3.35406L7.98 3.11781L7.65375 3.35406L7.78125 2.96781L7.45125 2.73156H7.8525L7.98 2.34906ZM10.26 2.34906L10.3838 2.73531H10.785L10.4625 2.97156L10.5863 3.35406L10.26 3.11781L9.93375 3.35406L10.0575 2.96781L9.735 2.73156H10.1362L10.26 2.34906ZM12.54 2.34906L12.6638 2.73531H13.0688L12.7388 2.97156L12.8663 3.35406L12.54 3.11781L12.2138 3.35406L12.3413 2.96781L12.0113 2.73156H12.4163L12.54 2.34906ZM2.28 3.32406L2.40375 3.70656H2.8125L2.48625 3.94281L2.61 4.32906L2.28375 4.08906L1.9575 4.32531L2.08125 3.94281L1.75875 3.70656H2.16L2.28 3.32406ZM4.56 3.32406L4.6875 3.70656H5.08875L4.75875 3.94281L4.88625 4.32906L4.56 4.08906L4.23375 4.32531L4.3575 3.94281L4.03125 3.70656H4.43625L4.56 3.32406ZM6.84 3.32406L6.96375 3.70656H7.36875L7.0425 3.94281L7.16625 4.32906L6.84 4.08906L6.51375 4.32531L6.6375 3.94281L6.315 3.70656H6.7125L6.84 3.32406ZM9.12 3.32406L9.2475 3.70656H9.64875L9.3225 3.94281L9.44625 4.32906L9.12 4.08906L8.7975 4.32531L8.9175 3.94281L8.59125 3.70656H9L9.12 3.32406ZM11.4 3.32406L11.5238 3.70656H11.9288L11.6025 3.94281L11.7263 4.32906L11.4 4.08906L11.0738 4.32531L11.1975 3.94281L10.875 3.70656H11.2763L11.4 3.32406ZM1.14 4.29531L1.2675 4.67781H1.665L1.3425 4.91406L1.46625 5.30031L1.14 5.06031L0.8175 5.29656L0.9375 4.91406L0.61125 4.67781H1.02L1.14 4.29531ZM3.42 4.29531L3.54375 4.67781H3.94875L3.6225 4.91406L3.7425 5.29656L3.42 5.06031L3.09375 5.29656L3.2175 4.91406L2.895 4.67781H3.2925L3.42 4.29531ZM5.7 4.29531L5.82375 4.67781H6.225L5.9025 4.91406L6.02625 5.30031L5.7 5.06031L5.37375 5.29656L5.4975 4.91406L5.17125 4.67781H5.57625L5.7 4.29531ZM7.98 4.29531L8.10375 4.67781H8.50875L8.1825 4.91406L8.30625 5.30031L7.98 5.06031L7.65375 5.29656L7.78125 4.91406L7.45125 4.67781H7.8525L7.98 4.29531ZM10.26 4.29531L10.3838 4.67781H10.785L10.4625 4.91406L10.5863 5.30031L10.26 5.06031L9.93375 5.29656L10.0575 4.91406L9.735 4.67781H10.1362L10.26 4.29531ZM12.54 4.29531L12.6638 4.67781H13.0688L12.7388 4.91406L12.8663 5.30031L12.54 5.06031L12.2138 5.29656L12.3375 4.91406L12.0075 4.67781H12.4125L12.54 4.29531ZM2.28 5.26281L2.40375 5.64906H2.8125L2.48625 5.88156L2.61 6.26781L2.28375 6.02781L1.9575 6.26781L2.08125 5.88156L1.75875 5.64531H2.16L2.28 5.26281ZM4.56 5.26281L4.6875 5.64906H5.08875L4.75875 5.88156L4.88625 6.26781L4.56 6.02781L4.23375 6.26781L4.3575 5.88156L4.03125 5.64531H4.43625L4.56 5.26281ZM6.84 5.26281L6.96375 5.64906H7.36875L7.0425 5.88156L7.16625 6.26781L6.84 6.02781L6.51375 6.26781L6.6375 5.88156L6.315 5.64531H6.7125L6.84 5.26281ZM9.12 5.26281L9.2475 5.64906H9.64875L9.3225 5.88156L9.44625 6.26781L9.12 6.02781L8.7975 6.26781L8.9175 5.88156L8.59125 5.64531H9L9.12 5.26281ZM11.4 5.26281L11.5238 5.64906H11.9288L11.6025 5.88156L11.7263 6.26781L11.4 6.02781L11.0738 6.26781L11.1975 5.88156L10.875 5.64531H11.2763L11.4 5.26281ZM1.14 6.23031L1.2675 6.61656H1.665L1.3425 6.85281L1.46625 7.23156L1.14 6.99906L0.8175 7.23156L0.9375 6.84906L0.61125 6.61281H1.02L1.14 6.23031ZM3.42 6.23031L3.54375 6.61656H3.94875L3.6225 6.85281L3.74625 7.23156L3.42 6.99906L3.09375 7.23156L3.22125 6.84906L2.895 6.61281H3.2925L3.42 6.23031ZM5.7 6.23031L5.82375 6.61656H6.225L5.9025 6.85281L6.02625 7.23156L5.7 6.99906L5.37375 7.23156L5.4975 6.84906L5.17125 6.61281H5.57625L5.7 6.23031ZM7.98 6.23031L8.10375 6.61656H8.50875L8.1825 6.85281L8.30625 7.23156L7.98 6.99906L7.65375 7.23156L7.78125 6.84906L7.45125 6.61281H7.8525L7.98 6.23031ZM10.26 6.23031L10.3838 6.61656H10.785L10.4625 6.85281L10.5863 7.23156L10.26 6.99906L9.93375 7.23156L10.0575 6.84906L9.735 6.61281H10.1362L10.26 6.23031ZM12.54 6.23031L12.6638 6.61656H13.0688L12.7388 6.85281L12.8663 7.23156L12.54 6.99906L12.2138 7.23156L12.3413 6.84906L12.0113 6.61281H12.4163L12.54 6.23031ZM2.28 7.20156L2.40375 7.58406H2.8125L2.48625 7.82031L2.61 8.20656L2.28375 7.96656L1.9575 8.20281L2.08125 7.82031L1.75875 7.58406H2.16L2.28 7.20156ZM4.56 7.20156L4.6875 7.58406H5.08875L4.75875 7.82031L4.88625 8.20656L4.56 7.96656L4.23375 8.20281L4.3575 7.82031L4.03125 7.58406H4.43625L4.56 7.20156ZM6.84 7.20156L6.96375 7.58406H7.36875L7.0425 7.82031L7.16625 8.20656L6.84 7.96656L6.51375 8.20281L6.6375 7.82031L6.315 7.58406H6.7125L6.84 7.20156ZM9.12 7.20156L9.2475 7.58406H9.64875L9.3225 7.82031L9.44625 8.20656L9.12 7.96656L8.7975 8.20281L8.9175 7.82031L8.59125 7.58406H9L9.12 7.20156ZM11.4 7.20156L11.5238 7.58406H11.9288L11.6025 7.82031L11.7263 8.20656L11.4 7.96656L11.0738 8.20281L11.1975 7.82031L10.875 7.58406H11.2763L11.4 7.20156ZM1.14 8.17281L1.2675 8.55531H1.665L1.3425 8.79156L1.46625 9.17406L1.14 8.93781L0.8175 9.17406L0.9375 8.78781L0.61125 8.55156H1.02L1.14 8.17281ZM3.42 8.17281L3.54375 8.55531H3.94875L3.6225 8.79156L3.74625 9.17406L3.42 8.93781L3.09375 9.17406L3.22125 8.78781L2.895 8.55156H3.2925L3.42 8.17281ZM5.7 8.17281L5.82375 8.55531H6.225L5.91 8.79156L6.03375 9.17406L5.7075 8.93781L5.38125 9.17406L5.505 8.78781L5.17875 8.55156H5.58375L5.7 8.17281ZM7.98 8.17281L8.10375 8.55531H8.50875L8.1825 8.79156L8.30625 9.17406L7.98 8.93781L7.65375 9.17406L7.78125 8.78781L7.45125 8.55156H7.8525L7.98 8.17281ZM10.26 8.17281L10.3838 8.55531H10.785L10.4625 8.79156L10.5863 9.17406L10.26 8.93781L9.93375 9.17406L10.0575 8.78781L9.735 8.55156H10.1362L10.26 8.17281ZM12.54 8.17281L12.6638 8.55531H13.0688L12.7388 8.79156L12.8663 9.17406L12.54 8.93781L12.2138 9.17406L12.3413 8.78781L12.0113 8.55156H12.4163L12.54 8.17281Z" fill="white"/>
    </g>
    <defs>
        <clipPath id="clip0_637_12420">
            <rect width="24" height="18" fill="white"/>
        </clipPath>
    </defs>
</svg>
