<svg width="21" height="16" viewBox="0 0 21 16" fill="none" xmlns="http://www.w3.org/2000/svg">
<path fill-rule="evenodd" clip-rule="evenodd" d="M2.93017 0.250757C1.45893 0.329253 0.277113 1.56986 0.181633 3.15289C0.0901561 4.66954 0 6.53573 0 8C0 9.46427 0.0901561 11.3305 0.181633 12.8471C0.277113 14.4301 1.45893 15.6707 2.93017 15.7492C5.06063 15.8629 8.10566 16 10.4 16C12.6943 16 15.7394 15.8629 17.8698 15.7492C19.3411 15.6707 20.5229 14.4301 20.6184 12.8471C20.7098 11.3305 20.8 9.46427 20.8 8C20.8 6.53573 20.7098 4.66954 20.6184 3.15289C20.5229 1.56987 19.3411 0.329253 17.8698 0.250757C15.7394 0.137089 12.6943 0 10.4 0C8.10566 0 5.06063 0.137089 2.93017 0.250757ZM14.1142 8L8.17134 11.2V4.8L14.1142 8Z" fill="#F6F6F6"/>
</svg>
