<svg width="160" height="30" viewBox="0 0 160 30" fill="none" xmlns="http://www.w3.org/2000/svg">
<path d="M20.7257 15.1195C20.7257 9.37896 16.7473 5.58658 10.9748 5.58658C4.99432 5.58658 1.25 9.53482 1.25 15.1195C1.25 20.86 5.20234 24.6264 10.9748 24.6264C13.237 24.6264 15.1872 24.055 16.7473 23.0419L18.7495 24.7563L20.4396 22.6783L18.7495 21.2237C20.0236 19.6132 20.7257 17.5092 20.7257 15.1195ZM10.9748 21.1977C7.36052 21.1977 5.07233 18.6521 5.07233 15.1195C5.07233 11.405 7.51653 9.01531 10.9748 9.01531C14.6151 9.01531 16.9033 11.5609 16.9033 15.1195C16.9033 16.5481 16.5393 17.7949 15.8632 18.782L14.2511 17.4053L12.535 19.4833L13.8091 20.5743C13.003 20.9899 12.0409 21.1977 10.9748 21.1977Z" fill="black"/>
<path d="M28.6565 24.6004C30.1647 24.6004 31.8548 24.1329 33.2329 23.2238V24.2628H36.6132V10.1582L33.0509 10.8509V20.2626C32.1928 20.9899 31.1267 21.4055 29.7746 21.4055C27.7985 21.4055 26.8364 20.4964 26.8364 17.8729V10.1582L23.2741 10.8509V18.2885C23.2741 22.938 24.8342 24.6004 28.6565 24.6004Z" fill="black"/>
<path d="M53.5914 17.2495C53.5914 12.9116 51.1992 9.84652 46.3628 9.84652C42.0465 9.84652 39.0562 12.7298 39.0562 17.1975C39.0562 21.6652 41.8384 24.5485 46.5448 24.5485C49.7691 24.5485 51.8233 23.4316 53.0974 21.6652L50.8612 19.769C49.8991 20.9379 48.443 21.5613 46.8049 21.5613C44.4907 21.5613 43.0345 20.3925 42.6445 18.2885H53.5654C53.5654 18.2885 53.5914 17.5871 53.5914 17.2495ZM46.3628 12.7817C48.781 12.7817 49.8991 14.1844 50.1071 15.7169H42.6705C43.1125 13.6908 44.5687 12.7817 46.3628 12.7817Z" fill="black"/>
<path d="M56.2654 10.8509V24.2628H59.8277V17.4313C59.8277 15.5611 60.8158 13.6129 63.416 13.6129C63.9101 13.6129 64.4821 13.6909 65.1062 13.8727V9.95042C64.8201 9.84652 64.4561 9.84652 64.1441 9.84652C62.2199 9.92444 60.7638 10.7816 59.8277 12.1583V10.1582L56.2654 10.8509Z" fill="black"/>
<path d="M81.6627 10.1582H77.8663L74.096 20.5223H73.862L69.8836 10.1582H65.9313L71.8598 23.6913H73.0559C72.3279 25.6654 71.1318 26.3408 69.3376 26.3408C68.3235 26.3408 67.3875 26.1849 66.6594 25.9771L66.6334 28.9383C67.3354 29.1461 68.4535 29.25 69.5196 29.25C71.8078 29.25 74.356 28.9643 76.0982 24.4186L81.6627 10.1582Z" fill="black"/>
<path d="M90.8573 5.95024H83.5507V24.2628H87.217V19.3015H90.4412C95.5377 19.3015 98.2679 17.1456 98.2679 12.522C98.2679 8.21008 95.6937 5.95024 90.8573 5.95024ZM90.2592 16.1585H87.217V9.11921H90.5453C93.2495 9.11921 94.4196 10.3141 94.4196 12.6259C94.4196 14.8338 93.1455 16.1585 90.2592 16.1585Z" fill="black"/>
<path d="M102.333 9.88981C103.503 9.88981 104.491 8.90275 104.491 7.68192C104.491 6.46108 103.503 5.5 102.333 5.5C101.11 5.5 100.122 6.46108 100.122 7.68192C100.122 8.90275 101.11 9.88981 102.333 9.88981ZM100.486 12.2362V24.2628H104.075V11.5436L100.486 12.2362Z" fill="black"/>
<path d="M121.25 17.2495C121.25 12.9116 118.858 9.84652 114.021 9.84652C109.705 9.84652 106.715 12.7298 106.715 17.1975C106.715 21.6652 109.497 24.5485 114.203 24.5485C117.428 24.5485 119.482 23.4316 120.756 21.6652L118.52 19.769C117.558 20.9379 116.102 21.5613 114.463 21.5613C112.149 21.5613 110.693 20.3925 110.303 18.2885H121.224C121.224 18.2885 121.25 17.5871 121.25 17.2495ZM114.021 12.7817C116.44 12.7817 117.558 14.1844 117.766 15.7169H110.329C110.771 13.6908 112.227 12.7817 114.021 12.7817Z" fill="black"/>
<path d="M152.501 2.5C155.953 2.50023 158.751 5.29837 158.751 8.75V21.25C158.751 24.7016 155.953 27.4998 152.501 27.5H135C131.548 27.5 128.75 24.7018 128.75 21.25V8.75C128.75 5.29822 131.548 2.5 135 2.5H152.501ZM141.026 8.38867C140.584 8.38867 140.201 8.5224 139.876 8.79004C139.564 9.05768 139.31 9.45886 139.115 9.99414L134.436 21.6182H137.048L138.166 18.6738H143.861L144.984 21.6182H147.598L142.938 9.99414C142.743 9.45891 142.482 9.05769 142.157 8.79004C141.845 8.52242 141.468 8.3887 141.026 8.38867ZM149.339 8.61719V21.6172H151.776V8.61719H149.339ZM143.073 16.6084H138.95L141.007 11.1904L143.073 16.6084Z" fill="black"/>
</svg>
