<svg width="133" height="25" viewBox="0 0 133 25" fill="none" xmlns="http://www.w3.org/2000/svg">
<g clip-path="url(#clip0_68_8)">
<path d="M17.1436 12.5059C17.1436 7.75793 13.8531 4.62124 9.07861 4.62124C4.1321 4.62124 1.03516 7.88684 1.03516 12.5059C1.03516 17.254 4.30415 20.3692 9.07861 20.3692C10.9497 20.3692 12.5627 19.8965 13.8531 19.0586L15.5091 20.4766L16.907 18.7579L15.5091 17.5547C16.5629 16.2227 17.1436 14.4825 17.1436 12.5059ZM9.07861 17.5333C6.0892 17.5333 4.19662 15.4278 4.19662 12.5059C4.19662 9.4337 6.21824 7.45715 9.07861 7.45715C12.0895 7.45715 13.9821 9.56261 13.9821 12.5059C13.9821 13.6876 13.681 14.7188 13.1218 15.5352L11.7884 14.3966L10.369 16.1153L11.4228 17.0176C10.7561 17.3614 9.96038 17.5333 9.07861 17.5333Z" fill="#24292F"/>
<path d="M23.7032 20.3477C24.9506 20.3477 26.3485 19.961 27.4884 19.209V20.0684H30.2842V8.40246L27.3378 8.97537V16.7598C26.6281 17.3614 25.7464 17.7051 24.628 17.7051C22.9935 17.7051 22.1978 16.9532 22.1978 14.7833V8.40246L19.2514 8.97537V15.127C19.2514 18.9727 20.5418 20.3477 23.7032 20.3477Z" fill="#24292F"/>
<path d="M44.327 14.2677C44.327 10.6798 42.3484 8.14465 38.3482 8.14465C34.7781 8.14465 32.3049 10.5294 32.3049 14.2247C32.3049 17.92 34.6061 20.3047 38.4988 20.3047C41.1656 20.3047 42.8646 19.3809 43.9184 17.92L42.0688 16.3516C41.2731 17.3184 40.0687 17.834 38.7138 17.834C36.7997 17.834 35.5954 16.8672 35.2728 15.127H44.3055C44.3055 15.127 44.327 14.5469 44.327 14.2677ZM38.3482 10.5724C40.3483 10.5724 41.2731 11.7325 41.4451 13.0001H35.2943C35.6599 11.3243 36.8643 10.5724 38.3482 10.5724Z" fill="#24292F"/>
<path d="M46.5387 8.97537V20.0684H49.4851V14.418C49.4851 12.8712 50.3023 11.2599 52.453 11.2599C52.8616 11.2599 53.3347 11.3243 53.8509 11.4747V8.23059C53.6143 8.14465 53.3132 8.14465 53.0552 8.14465C51.4637 8.2091 50.2593 8.91808 49.4851 10.0567V8.40246L46.5387 8.97537Z" fill="#24292F"/>
<path d="M67.5449 8.40246H64.4049L61.2865 16.9747H61.0929L57.8024 8.40246H54.5334L59.4369 19.5957H60.4262C59.824 21.2285 58.8347 21.7871 57.3508 21.7871C56.512 21.7871 55.7378 21.6582 55.1356 21.4864L55.1141 23.9356C55.6948 24.1074 56.6195 24.1934 57.5013 24.1934C59.3939 24.1934 61.5015 23.957 62.9425 20.1973L67.5449 8.40246Z" fill="#24292F"/>
<path d="M75.1498 4.92201H69.1065V20.0684H72.1389V15.9649H74.8057C79.021 15.9649 81.2792 14.1817 81.2792 10.3575C81.2792 6.79114 79.15 4.92201 75.1498 4.92201ZM74.6551 13.3653H72.1389V7.54309H74.8917C77.1284 7.54309 78.0962 8.53137 78.0962 10.4435C78.0962 12.2696 77.0424 13.3653 74.6551 13.3653Z" fill="#24292F"/>
<path d="M84.6411 8.18046C85.6089 8.18046 86.4261 7.36406 86.4261 6.3543C86.4261 5.34454 85.6089 4.54962 84.6411 4.54962C83.6303 4.54962 82.813 5.34454 82.813 6.3543C82.813 7.36406 83.6303 8.18046 84.6411 8.18046ZM83.1141 10.1212V20.0684H86.082V9.54829L83.1141 10.1212Z" fill="#24292F"/>
<path d="M100.288 14.2677C100.288 10.6798 98.3092 8.14465 94.309 8.14465C90.7389 8.14465 88.2656 10.5294 88.2656 14.2247C88.2656 17.92 90.5668 20.3047 94.4595 20.3047C97.1263 20.3047 98.8253 19.3809 99.8792 17.92L98.0296 16.3516C97.2338 17.3184 96.0295 17.834 94.6746 17.834C92.7605 17.834 91.5561 16.8672 91.2335 15.127H100.266C100.266 15.127 100.288 14.5469 100.288 14.2677ZM94.309 10.5724C96.3091 10.5724 97.2338 11.7325 97.4059 13.0001H91.255C91.6206 11.3243 92.825 10.5724 94.309 10.5724Z" fill="#24292F"/>
<path d="M126.135 2.06799C128.989 2.06818 131.303 4.38228 131.304 7.23694V17.5758C131.304 20.4307 128.99 22.7455 126.135 22.7457H111.659C108.804 22.7455 106.49 20.4306 106.49 17.5758V7.23694C106.49 4.38232 108.805 2.06825 111.659 2.06799H126.135ZM116.644 6.93811C116.278 6.93813 115.961 7.04888 115.692 7.27014C115.434 7.49149 115.225 7.82356 115.063 8.26624L111.192 17.8805H113.354L114.278 15.4449H118.989L119.918 17.8805H122.079L118.225 8.26624C118.063 7.82351 117.848 7.49151 117.579 7.27014C117.321 7.04877 117.009 6.93811 116.644 6.93811ZM123.519 7.12756V17.8805H125.535V7.12756H123.519ZM118.338 13.7369H114.927L116.628 9.25452L118.338 13.7369Z" fill="#24292F"/>
</g>
<defs>
<clipPath id="clip0_68_8">
<rect width="132.337" height="24.8132" fill="white"/>
</clipPath>
</defs>
</svg>
