<svg width="1200" height="748" viewBox="0 0 1200 748" fill="none" xmlns="http://www.w3.org/2000/svg">
  <rect width="1200" height="748" rx="40" fill="#F6F6F6"/>
  <rect x="86" y="74" width="1028" height="600" rx="30" fill="#FFFFFF"/>
  <rect x="86" y="74" width="636" height="600" rx="30" fill="#FAFAFA"/>
  <rect x="86" y="74" width="1028" height="58" rx="30" fill="#FFFFFF"/>
  <rect x="120" y="96" width="186" height="14" rx="7" fill="#333333"/>
  <rect x="120" y="170" width="520" height="92" rx="18" fill="#FFFFFF" stroke="#E8E8E8"/>
  <circle cx="152" cy="206" r="18" fill="#E25A25" fill-opacity="0.12"/>
  <rect x="188" y="190" width="134" height="12" rx="6" fill="#333333"/>
  <rect x="188" y="216" width="382" height="10" rx="5" fill="#D9D9D9"/>
  <rect x="188" y="236" width="310" height="10" rx="5" fill="#E5E5E5"/>
  <rect x="120" y="292" width="520" height="92" rx="18" fill="#FFFFFF" stroke="#E8E8E8"/>
  <circle cx="152" cy="328" r="18" fill="#9478C7" fill-opacity="0.16"/>
  <rect x="188" y="312" width="150" height="12" rx="6" fill="#333333"/>
  <rect x="188" y="338" width="406" height="10" rx="5" fill="#D9D9D9"/>
  <rect x="188" y="358" width="278" height="10" rx="5" fill="#E5E5E5"/>
  <rect x="722" y="74" width="392" height="600" rx="30" fill="#FFFFFF"/>
  <rect x="722" y="74" width="392" height="76" rx="30" fill="url(#headerGradient)"/>
  <rect x="752" y="100" width="34" height="34" rx="12" fill="url(#brandGradient)"/>
  <path d="M769 109L772 117L780 120L772 123L769 131L766 123L758 120L766 117L769 109Z" fill="white"/>
  <text x="800" y="117" fill="#333333" font-family="Arial, sans-serif" font-size="16" font-weight="700">AI 질문</text>
  <text x="800" y="136" fill="#999999" font-family="Arial, sans-serif" font-size="11">Meeting context Q&amp;A</text>
  <rect x="968" y="101" width="104" height="28" rx="14" fill="#333333"/>
  <text x="987" y="120" fill="#FFFFFF" font-family="Arial, sans-serif" font-size="12" font-weight="700">Coming Soon</text>
  <rect x="756" y="192" width="292" height="62" rx="18" fill="#F5F5F5"/>
  <text x="780" y="218" fill="#333333" font-family="Arial, sans-serif" font-size="14" font-weight="700">방금 결정된 내용이 뭐야?</text>
  <text x="780" y="238" fill="#999999" font-family="Arial, sans-serif" font-size="12">회의 흐름을 끊지 않고 질문</text>
  <rect x="778" y="282" width="274" height="126" rx="18" fill="url(#answerGradient)"/>
  <text x="804" y="318" fill="#FFFFFF" font-family="Arial, sans-serif" font-size="15" font-weight="700">AI 답변</text>
  <rect x="804" y="342" width="208" height="10" rx="5" fill="#FFFFFF" fill-opacity="0.75"/>
  <rect x="804" y="364" width="188" height="10" rx="5" fill="#FFFFFF" fill-opacity="0.56"/>
  <rect x="804" y="386" width="144" height="10" rx="5" fill="#FFFFFF" fill-opacity="0.56"/>
  <rect x="756" y="466" width="292" height="58" rx="18" fill="#F5F5F5"/>
  <text x="780" y="501" fill="#333333" font-family="Arial, sans-serif" font-size="14" font-weight="700">다음 액션만 정리해줘</text>
  <rect x="756" y="578" width="292" height="44" rx="22" fill="#FFFFFF" stroke="#E8E8E8"/>
  <text x="786" y="606" fill="#999999" font-family="Arial, sans-serif" font-size="13">회의 내용에 대해 질문하기</text>
  <defs>
    <linearGradient id="headerGradient" x1="722" y1="74" x2="1114" y2="150" gradientUnits="userSpaceOnUse">
      <stop stop-color="#E25A25" stop-opacity="0.08"/>
      <stop offset="1" stop-color="#9478C7" stop-opacity="0.08"/>
    </linearGradient>
    <linearGradient id="brandGradient" x1="752" y1="100" x2="786" y2="134" gradientUnits="userSpaceOnUse">
      <stop stop-color="#E25A25"/>
      <stop offset="1" stop-color="#9478C7"/>
    </linearGradient>
    <linearGradient id="answerGradient" x1="778" y1="282" x2="1052" y2="408" gradientUnits="userSpaceOnUse">
      <stop stop-color="#E25A25"/>
      <stop offset="1" stop-color="#9478C7"/>
    </linearGradient>
  </defs>
</svg>
