<svg width="3186" height="526" viewBox="0 0 3186 526" fill="none" xmlns="http://www.w3.org/2000/svg">
<mask id="mask0_44_22" style="mask-type:alpha" maskUnits="userSpaceOnUse" x="0" y="0" width="3186" height="526">
<rect width="3185.22" height="526" fill="#D9D9D9"/>
</mask>
<g mask="url(#mask0_44_22)">
<path d="M9.43878 458.889L143.803 54.1319H267.062L401.426 458.889H311.48L222.644 171.839L207.653 119.648H203.767L188.22 171.839L99.3848 458.889H9.43878ZM118.818 375.606L136.585 308.979H274.28L292.047 375.606H118.818ZM438.743 458.889V54.1319H525.357V458.889H438.743ZM697.94 458.889V54.1319H870.614C910.59 54.1319 944.459 62.6453 972.22 79.6721C999.981 96.3288 1021.08 119.833 1035.52 150.185C1049.95 180.537 1057.17 216.072 1057.17 256.788C1057.17 286.77 1053.1 314.346 1044.95 339.516C1036.81 364.316 1024.78 385.6 1008.86 403.367C992.948 421.134 973.331 434.829 950.011 444.453C927.062 454.077 900.596 458.889 870.614 458.889H697.94ZM784.555 385.044H856.179C872.465 385.044 887.456 382.823 901.152 378.382C914.847 373.94 926.692 366.722 936.686 356.728C946.68 346.734 954.453 333.409 960.005 316.752C965.557 300.095 968.334 279.552 968.334 255.122C968.334 223.29 963.522 198.12 953.898 179.612C944.644 161.105 931.504 147.779 914.477 139.636C897.82 131.493 878.388 127.421 856.179 127.421H784.555V385.044ZM1216.81 463.886C1198.68 463.886 1182.2 460.555 1167.4 453.892C1152.59 446.859 1139.82 436.865 1129.09 423.91C1118.35 410.585 1110.03 394.298 1104.1 375.05C1098.55 355.803 1095.77 334.149 1095.77 310.089C1095.77 277.516 1100.77 249.755 1110.77 226.806C1121.13 203.487 1135.38 185.905 1153.52 174.06C1171.65 161.845 1192.75 155.738 1216.81 155.738C1231.99 155.738 1245.68 158.144 1257.9 162.955C1270.11 167.397 1280.66 173.875 1289.55 182.388C1298.43 190.531 1304.91 200.155 1308.98 211.26H1313.42L1316.75 161.29H1393.93V458.889H1316.75L1313.42 408.364H1308.98C1303.06 425.02 1291.77 438.531 1275.11 448.895C1258.82 458.889 1239.39 463.886 1216.81 463.886ZM1246.24 397.814C1261.05 397.814 1273.26 394.668 1282.88 388.376C1292.88 382.083 1300.28 373.385 1305.09 362.28C1309.91 351.176 1312.31 338.591 1312.31 324.525V295.098C1312.31 280.663 1309.72 268.078 1304.54 257.343C1299.73 246.239 1292.32 237.54 1282.33 231.248C1272.71 224.955 1261.42 221.809 1248.46 221.809C1232.91 221.809 1219.96 225.325 1209.59 232.358C1199.6 239.391 1192.01 249.57 1186.83 262.895C1181.65 275.851 1179.06 291.582 1179.06 310.089C1179.06 327.856 1181.46 343.403 1186.28 356.728C1191.09 370.053 1198.49 380.232 1208.48 387.265C1218.48 394.298 1231.06 397.814 1246.24 397.814ZM1564.79 464.441C1544.81 464.441 1526.85 462.22 1510.94 457.778C1495.02 452.967 1481.33 446.304 1469.85 437.79C1458.75 429.277 1450.05 419.098 1443.76 407.253C1437.46 395.038 1434.13 381.713 1433.76 367.277H1514.27C1515.38 376.531 1518.16 384.119 1522.6 390.041C1527.04 395.594 1532.96 399.85 1540.36 402.811C1548.14 405.403 1557.02 406.698 1567.01 406.698C1582.19 406.698 1593.48 403.922 1600.88 398.37C1608.66 392.817 1612.54 385.229 1612.54 375.606C1612.54 367.832 1610.69 361.91 1606.99 357.838C1603.29 353.397 1597.18 350.065 1588.67 347.844C1580.53 345.253 1569.42 343.033 1555.36 341.182C1529.82 337.11 1508.53 331.743 1491.5 325.08C1474.48 318.418 1461.89 309.164 1453.75 297.319C1445.61 285.474 1441.53 269.928 1441.53 250.681C1441.53 231.433 1446.72 214.776 1457.08 200.711C1467.82 186.645 1482.62 175.726 1501.5 167.952C1520.38 159.809 1542.4 155.738 1567.57 155.738C1591.63 155.738 1612.54 159.624 1630.31 167.397C1648.45 174.8 1662.51 185.535 1672.51 199.6C1682.87 213.296 1688.61 229.397 1689.72 247.904H1609.21C1609.21 239.761 1607.18 233.284 1603.1 228.472C1599.4 223.29 1594.22 219.403 1587.56 216.812C1581.27 214.221 1573.86 212.925 1565.35 212.925C1552.39 212.925 1542.03 215.702 1534.26 221.254C1526.85 226.436 1523.15 233.839 1523.15 243.463C1523.15 250.495 1525.19 256.233 1529.26 260.675C1533.7 264.746 1540.73 268.078 1550.36 270.669C1559.98 273.26 1572.57 275.666 1588.11 277.886C1612.54 281.218 1632.72 286.215 1648.63 292.877C1664.55 299.54 1676.39 308.979 1684.17 321.194C1691.94 333.039 1695.83 348.77 1695.83 368.388C1695.83 388.746 1690.27 406.143 1679.17 420.579C1668.44 435.014 1653.26 445.934 1633.64 453.337C1614.02 460.74 1591.07 464.441 1564.79 464.441ZM1737.58 458.889V54.1319H1819.2V215.146H1822.53C1830.67 195.158 1843.26 180.352 1860.29 170.729C1877.31 160.735 1896.37 155.738 1917.47 155.738C1932.28 155.738 1945.97 158.144 1958.56 162.955C1971.51 167.397 1982.62 174.43 1991.87 184.054C2001.5 193.678 2008.9 206.448 2014.08 222.364C2019.63 237.91 2022.41 256.788 2022.41 278.997V458.889H1940.79V296.764C1940.79 280.107 1938.76 266.227 1934.68 255.122C1930.98 244.018 1925.06 235.875 1916.92 230.693C1908.77 225.14 1898.04 222.364 1884.71 222.364C1870.65 222.364 1858.8 225.696 1849.18 232.358C1839.56 239.021 1832.15 247.719 1826.97 258.454C1821.79 269.188 1819.2 280.848 1819.2 293.433V458.889H1737.58ZM2076.2 458.889V161.29H2157.82V458.889H2076.2ZM2116.73 126.311C2104.15 126.311 2093.78 122.979 2085.64 116.317C2077.5 109.654 2073.43 100.4 2073.43 88.5557C2073.43 76.3408 2077.5 66.902 2085.64 60.2393C2093.78 53.5767 2104.15 50.2453 2116.73 50.2453C2129.69 50.2453 2140.24 53.5767 2148.38 60.2393C2156.52 66.902 2160.6 76.3408 2160.6 88.5557C2160.6 100.4 2156.52 109.654 2148.38 116.317C2140.24 122.979 2129.69 126.311 2116.73 126.311Z" fill="white"/>
<path d="M3054.71 0C3126.79 0.000146811 3185.22 58.4317 3185.22 130.511V395.489C3185.22 467.568 3126.79 526 3054.71 526H2439.07C2366.99 526 2308.56 467.568 2308.56 395.489V130.511C2308.56 58.4316 2366.99 0 2439.07 0H3054.71ZM2561.06 110.197V216.916H2505.78V137.198H2467.2V254.525H2561.06V352.244H2493.88V271.884H2454.67V408.818H2493.88V389.854H2672.61V408.497H2712.79V271.884H2672.61V352.244H2600.92V254.525H2699.93V136.877H2659.43V216.916H2600.92V110.197H2561.06ZM2932.98 211.45H2848.44V251.631H2932.98V408.817H2974.44V251.631H3056.09V211.45H2974.44V108.267H2932.98V211.45ZM2827.22 277.347C2821.01 289.776 2814.26 302.313 2806.97 314.956C2799.68 327.385 2792.51 339.171 2785.43 350.314C2778.36 361.243 2771.93 370.78 2766.15 378.923L2798.93 404.96C2805.36 394.459 2811.79 383.531 2818.22 372.173C2824.86 360.815 2831.29 349.243 2837.51 337.457C2843.94 325.671 2849.94 314.206 2855.51 303.062L2827.22 277.347ZM2752.33 224.309C2759.4 227.523 2767 231.273 2775.15 235.559C2783.29 239.845 2791.11 244.131 2798.61 248.417C2806.11 252.489 2812.33 256.238 2817.26 259.667L2838.47 226.88C2833.33 223.665 2826.9 220.237 2819.19 216.594C2811.47 212.736 2803.43 208.879 2795.08 205.021C2786.93 201.164 2779.54 197.842 2772.9 195.057L2752.33 224.309ZM2772.25 136.554C2779.11 140.197 2786.72 144.376 2795.08 149.091C2803.43 153.805 2811.36 158.52 2818.86 163.234C2826.36 167.735 2832.47 171.699 2837.19 175.128L2859.69 143.626C2854.54 140.197 2848.12 136.34 2840.4 132.054C2832.69 127.768 2824.65 123.589 2816.29 119.518C2807.94 115.232 2800.44 111.481 2793.79 108.267L2772.25 136.554Z" fill="white"/>
</g>
</svg>
