<svg width="24" height="18" viewBox="0 0 24 18" fill="none" xmlns="http://www.w3.org/2000/svg">
    <g clip-path="url(#clip0_637_12355)">
        <path fill-rule="evenodd" clip-rule="evenodd" d="M-0.000457764 0H24.0042V18H-0.000457764V0Z" fill="white"/>
        <path fill-rule="evenodd" clip-rule="evenodd" d="M2.61038 5.47656L5.09722 1.72614L5.72229 2.14061L3.23545 5.89104L2.61038 5.47656ZM3.54799 6.09827L6.03482 2.34785L6.65989 2.76232L4.17306 6.51274L3.54799 6.09827ZM4.48559 6.71998L6.97243 2.96956L7.5975 3.38403L5.11066 7.13445L4.48559 6.71998Z" fill="black"/>
        <path fill-rule="evenodd" clip-rule="evenodd" d="M16.3619 14.5938L18.8488 10.8433L19.4738 11.2578L16.987 15.0082L16.3619 14.5938ZM17.2995 15.2155L19.7864 11.465L20.4115 11.8795L17.9246 15.6299L17.2995 15.2155ZM18.2371 15.8372L20.724 12.0867L21.3491 12.5012L18.8622 16.2516L18.2371 15.8372Z" fill="black"/>
        <path d="M17.1892 12.668L17.3964 12.3554L18.4903 13.0808L18.2831 13.3933L17.1892 12.668ZM19.2207 14.015L19.4279 13.7025L20.3655 14.3242L20.1583 14.6367L19.2207 14.015Z" fill="white"/>
        <path d="M18.4903 13.0808L18.2831 13.3933L19.2207 14.015L19.4279 13.7025L18.4903 13.0808Z" fill="white"/>
        <path fill-rule="evenodd" clip-rule="evenodd" d="M8.24561 6.50781C9.61885 4.44873 12.4271 3.88758 14.4862 5.26082C16.5453 6.63406 17.1064 9.44233 15.7332 11.5014L8.24561 6.50781Z" fill="#CD2E3A"/>
        <path fill-rule="evenodd" clip-rule="evenodd" d="M8.24561 6.50621C6.87237 8.56529 7.43352 11.3736 9.4926 12.7468C11.5517 14.12 14.36 13.5589 15.7332 11.4998C16.4198 10.4703 16.1392 9.06613 15.1097 8.37951C14.0802 7.69289 12.676 7.97346 11.9894 9.00301L8.24561 6.50621Z" fill="#0047A0"/>
        <path d="M11.9894 9.00381C12.6789 7.96999 12.3997 6.57298 11.3659 5.88351C10.3321 5.19404 8.9351 5.47319 8.24562 6.50701C7.55615 7.54083 7.8353 8.93783 8.86912 9.62731C9.90294 10.3168 11.2999 10.0376 11.9894 9.00381Z" fill="#CD2E3A"/>
        <path fill-rule="evenodd" clip-rule="evenodd" d="M5.13657 16.2891L2.63977 12.5453L3.26373 12.1291L5.76053 15.8729L5.13657 16.2891ZM6.07251 15.6649L3.57571 11.9211L4.19968 11.5049L6.69648 15.2487L6.07251 15.6649ZM7.00846 15.0407L4.51166 11.2969L5.13563 10.8807L7.63243 14.6245L7.00846 15.0407Z" fill="black"/>
        <path fill-rule="evenodd" clip-rule="evenodd" d="M18.8638 7.13281L16.367 3.38902L16.991 2.97288L19.4878 6.71668L18.8638 7.13281ZM19.7997 6.50861L17.3029 2.76482L17.9269 2.34868L20.4237 6.09248L19.7997 6.50861ZM20.7357 5.88441L18.2389 2.14062L18.8629 1.72448L21.3597 5.46828L20.7357 5.88441Z" fill="black"/>
        <path d="M4.77216 14.0547L4.56409 13.7427L5.50004 13.1185L5.7081 13.4305L4.77216 14.0547ZM17.4075 5.62798L17.1994 5.316L18.2913 4.58777L18.4994 4.89975L17.4075 5.62798ZM19.4354 4.27555L19.2273 3.96357L20.1632 3.33937L20.3713 3.65135L19.4354 4.27555Z" fill="white"/>
    </g>
    <defs>
        <clipPath id="clip0_637_12355">
            <rect width="24" height="18" fill="white"/>
        </clipPath>
    </defs>
</svg>
