<svg width="24" height="20" viewBox="0 0 24 20" fill="none" xmlns="http://www.w3.org/2000/svg">
<path d="M19 0C21.7614 0 24 2.23858 24 5V15C24 17.7614 21.7614 20 19 20H5C2.23858 20 1.24989e-05 17.7614 0 15V5C0 2.23858 2.23858 1.70925e-07 5 0H19ZM9.82129 4.71094C9.46768 4.71094 9.1604 4.81811 8.90039 5.03223C8.65096 5.24632 8.44792 5.56713 8.29199 5.99512L4.54785 15.2939H6.63867L7.5332 12.9385H12.0898L12.9883 15.2939H15.0781L11.3496 5.99512C11.1936 5.56705 10.9855 5.2463 10.7256 5.03223C10.4761 4.81817 10.1748 4.711 9.82129 4.71094ZM16.4707 4.89453V15.2939H18.4209V4.89453H16.4707ZM11.46 11.2871H8.16016L9.80566 6.95117L11.46 11.2871Z" fill="white"/>
</svg>
