<svg width="96" height="19" viewBox="0 0 96 19" fill="none" xmlns="http://www.w3.org/2000/svg">
<path d="M15.5805 7.69559C15.5805 3.10317 12.3979 0.0692675 7.77986 0.0692675C2.99546 0.0692675 0 3.22785 0 7.69559C0 12.288 3.16187 15.3011 7.77986 15.3011C9.58962 15.3011 11.1497 14.844 12.3979 14.0335L13.9996 15.405L15.3517 13.7426L13.9996 12.5789C15.0189 11.2906 15.5805 9.60736 15.5805 7.69559ZM7.77986 12.5581C4.88842 12.5581 3.05786 10.5217 3.05786 7.69559C3.05786 4.72402 5.01323 2.81225 7.77986 2.81225C10.6921 2.81225 12.5227 4.84871 12.5227 7.69559C12.5227 8.8385 12.2314 9.83595 11.6906 10.6256L10.4009 9.52424L9.02797 11.1867L10.0473 12.0594C9.4024 12.3919 8.63274 12.5581 7.77986 12.5581Z" fill="white"/>
<path d="M21.9252 15.2803C23.1317 15.2803 24.4838 14.9063 25.5863 14.179V15.0102H28.2906V3.72658L25.4407 4.28071V11.8101C24.7543 12.3919 23.9014 12.7244 22.8197 12.7244C21.2388 12.7244 20.4691 11.9971 20.4691 9.89829V3.72658L17.6193 4.28071V10.2308C17.6193 13.9504 18.8674 15.2803 21.9252 15.2803Z" fill="white"/>
<path d="M41.8731 9.39956C41.8731 5.92928 39.9594 3.47722 36.0903 3.47722C32.6372 3.47722 30.245 5.78381 30.245 9.358C30.245 12.9322 32.4708 15.2388 36.2359 15.2388C38.8153 15.2388 40.4586 14.3452 41.4779 12.9322L39.689 11.4152C38.9193 12.3503 37.7544 12.8491 36.4439 12.8491C34.5925 12.8491 33.4276 11.914 33.1156 10.2308H41.8524C41.8524 10.2308 41.8731 9.66971 41.8731 9.39956ZM36.0903 5.82537C38.0248 5.82537 38.9193 6.9475 39.0857 8.17353H33.1364C33.49 6.55268 34.6549 5.82537 36.0903 5.82537Z" fill="white"/>
<path d="M44.0123 4.28071V15.0102H46.8622V9.54502C46.8622 8.04885 47.6526 6.49034 49.7328 6.49034C50.128 6.49034 50.5857 6.55268 51.0849 6.69814V3.56034C50.8561 3.47721 50.5649 3.47722 50.3153 3.47722C48.7759 3.53956 47.611 4.2253 46.8622 5.32665V3.72658L44.0123 4.28071Z" fill="white"/>
<path d="M64.3301 3.72658H61.2931L58.2768 12.0179H58.0896L54.9069 3.72658H51.7451L56.4879 14.553H57.4447C56.8623 16.1323 55.9054 16.6726 54.4701 16.6726C53.6588 16.6726 52.91 16.5479 52.3275 16.3817L52.3067 18.7506C52.8683 18.9169 53.7628 19 54.6157 19C56.4463 19 58.4848 18.7714 59.8785 15.1349L64.3301 3.72658Z" fill="white"/>
<path d="M71.6858 0.36019H65.8405V15.0102H68.7736V11.0412H71.353C75.4301 11.0412 77.6143 9.31644 77.6143 5.61757C77.6143 2.16806 75.5549 0.36019 71.6858 0.36019ZM71.2074 8.5268H68.7736V2.89537H71.4362C73.5996 2.89537 74.5357 3.85126 74.5357 5.70069C74.5357 7.46701 73.5164 8.5268 71.2074 8.5268Z" fill="white"/>
<path d="M80.8661 3.51185C81.8021 3.51185 82.5926 2.7222 82.5926 1.74553C82.5926 0.768866 81.8021 0 80.8661 0C79.8884 0 79.0979 0.768866 79.0979 1.74553C79.0979 2.7222 79.8884 3.51185 80.8661 3.51185ZM79.3892 5.38899V15.0102H82.2598V4.83485L79.3892 5.38899Z" fill="white"/>
<path d="M96 9.39956C96 5.92928 94.0863 3.47722 90.2171 3.47722C86.764 3.47722 84.3718 5.78381 84.3718 9.358C84.3718 12.9322 86.5976 15.2388 90.3627 15.2388C92.9421 15.2388 94.5855 14.3452 95.6048 12.9322L93.8158 11.4152C93.0462 12.3503 91.8813 12.8491 90.5707 12.8491C88.7194 12.8491 87.5545 11.914 87.2425 10.2308H95.9792C95.9792 10.2308 96 9.66971 96 9.39956ZM90.2171 5.82537C92.1517 5.82537 93.0462 6.9475 93.2126 8.17353H87.2633C87.6169 6.55268 88.7818 5.82537 90.2171 5.82537Z" fill="white"/>
</svg>
