<svg width="120" height="120" viewBox="0 0 120 120" fill="none" xmlns="http://www.w3.org/2000/svg">
    <path d="M12.0178 40.3906L11.2394 42.4198L10.2773 41.4926C9.86912 41.1078 9.46678 40.7405 9.07028 40.3906H12.0178Z" fill="#00559A"/>
    <path d="M13.1635 35.8778C13.3921 35.5283 13.4997 35.1135 13.4697 34.697C13.4482 34.5536 13.3914 34.4177 13.3044 34.3017C13.2173 34.1856 13.1028 34.0931 12.9711 34.0323C12.8171 33.9468 12.6424 33.9055 12.4664 33.9133C12.2904 33.921 12.12 33.9773 11.974 34.076C11.6334 34.3557 11.3687 34.7167 11.2044 35.1256L10.837 35.8253L12.6912 36.7874L13.1635 35.8778Z" fill="#00559A"/>
    <path d="M40.0492 14.0554C40.3311 13.9338 40.5853 13.7563 40.7967 13.5338C41.0082 13.3113 41.1723 13.0483 41.2794 12.7606C41.3865 12.473 41.4342 12.1666 41.4197 11.86C41.4052 11.5534 41.3287 11.2529 41.195 10.9767C41.0898 10.6826 40.9254 10.4133 40.7119 10.1854C40.4985 9.95745 40.2405 9.77573 39.954 9.65147C39.6675 9.52721 39.3586 9.46305 39.0463 9.46296C38.7341 9.46288 38.4251 9.52686 38.1385 9.65096C37.8519 9.77505 37.5939 9.95662 37.3803 10.1844C37.1667 10.4123 37.0022 10.6815 36.8968 10.9754C36.7914 11.2694 36.7475 11.5819 36.7677 11.8935C36.7879 12.2051 36.8718 12.5093 37.0143 12.7872C37.1255 13.0734 37.2933 13.3343 37.5077 13.5542C37.7221 13.7741 37.9786 13.9484 38.262 14.0668C38.5453 14.1853 38.8497 14.2453 39.1568 14.2433C39.4639 14.2413 39.7674 14.1774 40.0492 14.0554Z" fill="#00559A"/>
    <path d="M83.5713 13.8369L81.6208 12.8836L82.6179 12.0089L83.8074 10.8982C83.7957 11.0134 83.7827 11.1308 83.7695 11.2495L83.7693 11.2513C83.7236 11.6633 83.6762 12.0898 83.6762 12.49L83.5713 13.8369Z" fill="#00559A"/>
    <path d="M17.5632 91.1105C17.192 90.9444 16.885 90.6619 16.6886 90.3058L16.0151 89.4837L17.7644 88.2767L18.2192 88.9239C18.5105 89.2587 18.7121 89.662 18.8052 90.0959C18.8218 90.2661 18.7915 90.4377 18.7175 90.5919C18.6435 90.7461 18.5286 90.877 18.3854 90.9705C18.2708 91.0605 18.1356 91.1204 17.992 91.1448C17.8485 91.1693 17.7011 91.1575 17.5632 91.1105Z" fill="#00559A"/>
    <path d="M35.9209 107.064C36.2701 107.292 36.6867 107.394 37.1017 107.352C37.246 107.33 37.3825 107.272 37.4986 107.183C37.6147 107.095 37.7068 106.979 37.7664 106.845C37.8509 106.692 37.8908 106.518 37.8815 106.343C37.8722 106.169 37.8142 106 37.7139 105.857C37.4283 105.517 37.0612 105.255 36.6469 105.096L35.9559 104.737L34.9851 106.6L35.9209 107.064Z" fill="#00559A"/>
    <path d="M58.2154 113.703H60.3495L59.8772 112.443C59.7384 112.096 59.6042 111.727 59.4713 111.361L59.4672 111.349L59.4657 111.345C59.4162 111.209 59.3668 111.073 59.3174 110.939C59.125 111.429 58.9151 111.936 58.6964 112.452L58.2154 113.703Z" fill="#00559A"/>
    <path d="M80.1687 108.875C80.5667 108.753 80.9138 108.504 81.1571 108.166C81.2338 108.033 81.2742 107.882 81.2742 107.729C81.2742 107.575 81.2338 107.424 81.1571 107.291C81.1029 107.124 80.9997 106.977 80.8609 106.87C80.722 106.762 80.554 106.699 80.3786 106.688C79.9335 106.686 79.4949 106.794 79.1017 107.003L78.3757 107.3L79.1804 109.224L80.1687 108.875Z" fill="#00559A"/>
    <path d="M86.8774 106.53L84.9794 107.58L84.8307 106.242C84.7695 105.691 84.6995 105.149 84.6208 104.624C84.8758 104.872 85.1959 105.13 85.5065 105.381C85.6217 105.473 85.7366 105.566 85.8453 105.656L86.8774 106.53Z" fill="#00559A"/>
    <path d="M103.277 89.694L102.909 89.7639H102.874C102.729 89.8022 102.578 89.811 102.429 89.79C102.28 89.769 102.137 89.7185 102.008 89.6415C101.925 89.5865 101.854 89.5149 101.8 89.4311C101.745 89.3474 101.709 89.2534 101.692 89.1548C101.676 89.0563 101.68 88.9555 101.704 88.8586C101.729 88.7618 101.773 88.671 101.834 88.5919C101.883 88.502 101.95 88.4235 102.032 88.3613C102.113 88.2991 102.207 88.2546 102.307 88.2307C102.406 88.2068 102.51 88.204 102.611 88.2225C102.711 88.2411 102.807 88.2805 102.892 88.3383C103.025 88.4396 103.13 88.573 103.197 88.726C103.264 88.8789 103.292 89.0465 103.277 89.2129V89.694Z" fill="#00559A"/>
    <path d="M106 89.8837L103.906 90.2887V90.6561C103.826 90.9251 103.857 91.215 103.99 91.4618C104.124 91.7087 104.35 91.8923 104.619 91.9724C104.888 92.0524 105.178 92.0223 105.425 91.8886C105.672 91.7549 105.856 91.5286 105.936 91.2596C106.076 91.059 106.157 90.8224 106.168 90.5775C106.179 90.335 106.121 90.0945 106 89.8837Z" fill="#00559A"/>
    <path d="M107.702 82.8103C107.914 82.4519 108.003 82.0343 107.956 81.6208C107.929 81.4777 107.867 81.3437 107.775 81.2306C107.684 81.1176 107.565 81.0293 107.431 80.9735C107.276 80.8907 107.101 80.8541 106.925 80.8681C106.75 80.882 106.583 80.9459 106.443 81.0523C106.112 81.3473 105.859 81.72 105.708 82.1368L105.376 82.8453L107.256 83.7199L107.702 82.8103Z" fill="#00559A"/>
    <path fill-rule="evenodd" clip-rule="evenodd" d="M60 0C48.1331 0 36.5328 3.51894 26.6658 10.1118C16.7989 16.7047 9.10851 26.0754 4.56725 37.039C0.0259974 48.0026 -1.1622 60.0665 1.15291 71.7054C3.46802 83.3443 9.18247 94.0353 17.5736 102.426C25.9648 110.818 36.6557 116.532 48.2946 118.847C59.9335 121.162 71.9974 119.974 82.961 115.433C93.9246 110.892 103.295 103.201 109.888 93.3342C116.481 83.4673 120 71.8669 120 60C119.981 44.0927 113.654 28.8422 102.406 17.594C91.1578 6.34587 75.9073 0.0185184 60 0ZM60 105.481C51.0047 105.481 42.2114 102.814 34.7321 97.8161C27.2528 92.8186 21.4234 85.7154 17.981 77.4048C14.5387 69.0943 13.638 59.9495 15.3929 51.1271C17.1478 42.3046 21.4794 34.2007 27.8401 27.84C34.2007 21.4794 42.3046 17.1478 51.1271 15.3929C59.9496 13.638 69.0943 14.5386 77.4049 17.981C85.7154 21.4233 92.8186 27.2528 97.8161 34.7321C102.814 42.2114 105.481 51.0047 105.481 60C105.469 72.0588 100.674 83.6203 92.1472 92.1472C83.6203 100.674 72.0588 105.469 60 105.481ZM10.6791 51.3321C10.5615 51.981 10.2397 52.5755 9.76068 53.0289L10.5916 53.1776C10.9932 52.6853 11.2613 52.0979 11.37 51.472C11.4522 51.2307 11.4806 50.9744 11.4533 50.7209C11.4261 50.4675 11.3437 50.2231 11.2121 50.0048C11.0804 49.7865 10.9027 49.5996 10.6913 49.4572C10.4798 49.3149 10.2398 49.2204 9.98809 49.1805C8.83357 48.9793 8.2913 49.8977 7.95894 50.5886C7.93143 50.6458 7.90452 50.7029 7.87788 50.7594C7.58263 51.3856 7.32015 51.9422 6.63824 51.8219C6.03474 51.7082 5.82482 51.1921 5.93853 50.5274C6.06821 49.9125 6.3718 49.3479 6.81316 48.9006L5.99101 48.7519C5.60504 49.2231 5.34878 49.7869 5.24756 50.3875C5.16959 50.6208 5.14328 50.8682 5.17045 51.1127C5.19762 51.3572 5.27763 51.5929 5.40492 51.8034C5.53222 52.0138 5.70375 52.1941 5.90765 52.3318C6.11155 52.4694 6.34293 52.561 6.58576 52.6003C7.67031 52.7927 8.18634 51.9706 8.54494 51.2359C8.90354 50.5012 9.27963 49.8452 9.92686 49.9589C10.5741 50.0726 10.8102 50.6324 10.6791 51.3321ZM7.15486 45.6384L6.60383 47.5888L5.91287 47.3964L7.21608 42.7346L7.90704 42.927L7.36477 44.8774L12.4901 46.3556L12.2802 47.1165L7.15486 45.6384ZM8.34434 39.7171L8.0732 40.4256L12.8312 44.9212L13.1198 44.169L11.7729 42.8921L12.7438 40.3556H14.563L14.8691 39.5597L8.34434 39.7171ZM9.83993 36.2014L10.5921 34.7495C10.8209 34.2132 11.182 33.7438 11.6417 33.3851C11.8784 33.218 12.1575 33.1212 12.4469 33.1058C12.7362 33.0903 13.024 33.1568 13.2772 33.2976C13.5277 33.4266 13.7401 33.6187 13.8935 33.8549C14.0469 34.0911 14.1359 34.3633 14.1519 34.6445C14.1686 34.8905 14.1359 35.1374 14.0557 35.3705L17.3093 34.8894L16.8633 35.7641L13.7146 36.2014L13.2423 37.076L15.5426 38.2655L15.1752 38.974L9.83993 36.2014ZM14.3785 28.4084L13.9237 29.0556L18.8741 32.5717L20.9995 29.5979L20.4135 29.1868L18.7516 31.5046L14.3785 28.4084ZM16.9412 24.9882L19.224 22.3643L19.7663 22.8279L18.017 24.8745L19.399 26.0728L20.9471 24.3235L21.4718 24.7696L19.9237 26.5189L21.4981 27.8745L23.3086 25.7842L23.8509 26.2477L21.5156 28.9329L16.9412 24.9882ZM20.5099 20.9911L19.8977 21.5771L25.7402 24.3497L26.3262 23.7899L23.8598 17.8074L23.265 18.3672L24.6294 21.7258C24.7052 21.9036 24.7801 22.0804 24.8549 22.2572C25.0045 22.6109 25.1543 22.9649 25.3117 23.3264C24.7781 23.0552 24.2796 22.8103 23.7723 22.5742L20.5099 20.9911ZM24.8743 17.0379L27.6294 14.8688L28.0755 15.4373L25.9414 17.0816L27.0609 18.5423L28.9326 17.0904L29.3525 17.6414L27.4807 19.0845L28.749 20.7289L30.9443 19.0408L31.3816 19.6093L28.5653 21.8659L24.8743 17.0379ZM29.6417 13.5657L28.9682 13.9943L32.2044 19.0847L35.2831 17.1342L34.8983 16.5307L32.493 18.0613L29.6417 13.5657ZM37.8627 9.02623C38.235 8.85992 38.6371 8.77015 39.0448 8.76225C39.4526 8.75434 39.8578 8.82847 40.2363 8.98021C40.6149 9.13196 40.9591 9.35824 41.2485 9.64561C41.5379 9.93297 41.7666 10.2756 41.921 10.653C42.1551 11.2113 42.2189 11.8263 42.1044 12.4207C41.99 13.0151 41.7024 13.5624 41.2777 13.9938C40.8531 14.4252 40.3104 14.7215 39.7179 14.8453C39.1253 14.9691 38.5094 14.915 37.9476 14.6898C37.3857 14.4646 36.9029 14.0783 36.56 13.5794C36.2171 13.0806 36.0293 12.4915 36.0202 11.8863C36.0111 11.281 36.1812 10.6866 36.509 10.1777C36.8368 9.66881 37.3078 9.2682 37.8627 9.02623ZM42.3671 7.32074L44.0202 13.1196L44.7898 12.9184L43.9152 9.99712L43.4254 8.34406C43.8802 8.70266 44.3525 9.07001 44.8073 9.41112L48.1659 11.9563L48.8831 11.7464L47.2301 5.93007L46.5304 6.12249L47.3438 9.04377C47.5012 9.61228 47.6761 10.1983 47.8336 10.6968C47.3729 10.3295 46.9094 9.97088 46.4429 9.62103L43.093 7.11957L42.3671 7.32074ZM49.1894 5.55391L52.6268 4.97665L52.7492 5.6851L50.1253 6.13117L50.4227 7.94166L52.758 7.55682L52.8717 8.23904L50.5451 8.62388L50.8862 10.6793L53.6151 10.2245L53.7375 10.9242L50.239 11.5189L49.1894 5.55391ZM54.4391 6.89888C54.3881 6.99301 54.3662 7.10012 54.376 7.2067C54.3826 7.27804 54.4032 7.34737 54.4367 7.41069C54.4702 7.47401 54.516 7.53005 54.5713 7.5756C54.6266 7.62114 54.6903 7.65527 54.7589 7.67602C54.8275 7.69677 54.8995 7.70373 54.9708 7.6965C55.0772 7.68569 55.1781 7.64361 55.2608 7.57556C55.3434 7.50751 55.404 7.41653 55.435 7.31408C55.466 7.21163 55.466 7.1023 55.435 6.99986C55.404 6.89742 55.3433 6.80644 55.2607 6.7384C55.1781 6.67036 55.0772 6.62829 54.9707 6.61749C54.8642 6.60669 54.7569 6.62765 54.6623 6.67773C54.5677 6.7278 54.49 6.80475 54.4391 6.89888ZM55.375 9.85109C55.3064 9.83034 55.2344 9.82338 55.1632 9.83061V9.80437C55.0893 9.81072 55.0176 9.83214 54.9523 9.8673C54.8871 9.90247 54.8297 9.95064 54.7838 10.0088C54.7379 10.067 54.7045 10.134 54.6855 10.2057C54.6665 10.2773 54.6623 10.3521 54.6734 10.4254C54.6873 10.5692 54.7578 10.7016 54.8693 10.7934C54.9809 10.8853 55.1243 10.9291 55.2681 10.9152C55.4119 10.9012 55.5443 10.8308 55.6362 10.7192C55.7281 10.6077 55.7718 10.4642 55.7579 10.3204C55.7514 10.2491 55.7307 10.1797 55.6972 10.1164C55.6637 10.0531 55.618 9.99706 55.5627 9.95151C55.5074 9.90597 55.4436 9.87184 55.375 9.85109ZM59.0294 9.29706C59.555 9.69441 60.1901 9.92038 60.8486 9.94429C61.5658 9.94429 62.0731 9.63817 62.0906 8.97344C62.107 8.34843 61.474 8.12551 60.7439 7.86845L60.6037 7.81893C59.8165 7.53904 58.9332 7.19794 58.9507 6.06966C58.9681 4.94138 59.7553 4.3991 60.9361 4.41659C61.5519 4.4161 62.1564 4.58233 62.6853 4.89764V5.77228C62.1715 5.41136 61.5637 5.20775 60.9361 5.18627C60.2626 5.18627 59.7816 5.45741 59.7728 6.06091C59.7728 6.73137 60.3218 6.9015 60.9552 7.0978C61.0323 7.1217 61.1109 7.14607 61.1897 7.1717C62.0644 7.43409 62.939 7.79269 62.939 8.92097C62.939 10.0492 62.1081 10.6702 60.8923 10.6702C60.2563 10.6524 59.6345 10.4781 59.0819 10.1629L59.0294 9.29706ZM67.9676 5.05531L64.4691 4.67922L63.8481 10.688L67.3991 11.0728L67.4778 10.3644L64.7227 10.0582L64.9326 7.99409L67.2766 8.24773L67.3554 7.56552L65.0026 7.30313L65.2038 5.47514L67.8889 5.77251L67.9676 5.05531ZM69.5426 5.31802L70.321 5.47545L69.254 10.7233L72.0528 11.2918L71.9128 12.0002L68.3356 11.2655L69.5426 5.31802ZM77.9119 7.44299L74.4921 6.41092L72.7429 12.2447L73.4688 12.4284L74.326 9.86573L76.67 10.5654L76.8711 9.90946L74.5271 9.20101L75.0869 7.32929L77.7108 8.13395L77.9119 7.44299ZM78.1657 10.4169L80.0199 11.1429L79.775 11.7639L77.9208 11.0467L78.1657 10.4169ZM84.5421 10.2334L83.8599 9.90107L78.9882 14.2568L79.7141 14.6066L81.0698 13.3909L83.5188 14.5804L83.3876 16.3909L84.1573 16.7582L84.5421 10.2334ZM85.2161 15.9881C85.4632 16.6015 85.8901 17.1259 86.4406 17.4925C87.0528 17.8686 87.6563 17.8598 88.0062 17.3001C88.356 16.7403 87.8837 16.1543 87.3327 15.5508C86.7817 14.9473 86.2219 14.1601 86.8079 13.2243C86.936 13.0153 87.108 12.8367 87.312 12.7009C87.516 12.5651 87.7472 12.4753 87.9893 12.4379C88.2316 12.4004 88.479 12.4162 88.7145 12.484C88.95 12.5518 89.1679 12.6701 89.3531 12.8307C89.8733 13.1432 90.2994 13.5904 90.5863 14.1251L90.149 14.8336C89.8964 14.2618 89.4832 13.7756 88.9595 13.4342C88.3823 13.0756 87.8225 13.0756 87.4989 13.6003C87.1753 14.1251 87.6301 14.7111 88.1374 15.2796C88.6447 15.8482 89.3094 16.7141 88.6971 17.6849C88.5653 17.9002 88.3884 18.0844 88.1786 18.2248C87.9688 18.3653 87.7311 18.4587 87.4818 18.4986C87.2325 18.5385 86.9775 18.5239 86.7344 18.4559C86.4912 18.3879 86.2657 18.2681 86.0732 18.1047C85.5304 17.7703 85.0842 17.3 84.7788 16.7403L85.2161 15.9881ZM90.3152 20.1169C89.7951 19.7212 89.4101 19.1743 89.2131 18.5513L88.7058 19.2422C88.9797 19.8152 89.3951 20.3089 89.9128 20.6766C90.0885 20.8529 90.2997 20.9896 90.5325 21.0777C90.7652 21.1659 91.0141 21.2033 91.2624 21.1876C91.5108 21.1718 91.7529 21.1033 91.9726 20.9865C92.1924 20.8698 92.3847 20.7075 92.5367 20.5104C93.2364 19.5921 92.7029 18.6912 92.2131 18.0615C91.7233 17.4317 91.3472 16.7757 91.7233 16.3122C92.0994 15.8486 92.6592 15.9011 93.1927 16.3122C93.6821 16.7021 94.0494 17.2242 94.251 17.8166L94.7496 17.1606C94.5142 16.599 94.1339 16.11 93.6475 15.7437C93.4772 15.568 93.2708 15.4312 93.0427 15.3427C92.8145 15.2543 92.5699 15.2162 92.3256 15.2312C92.0813 15.2461 91.8432 15.3137 91.6275 15.4294C91.4118 15.545 91.2237 15.7059 91.0761 15.9011C90.4026 16.7757 90.8749 17.5979 91.3822 18.2626C91.8895 18.9273 92.2918 19.5483 91.8895 20.0731C91.4872 20.5979 90.8837 20.5542 90.3152 20.1169ZM96.3497 18.0698L98.9124 20.4226L98.4314 20.9561L96.4459 19.1281L95.204 20.4838L96.9532 22.0756L96.4809 22.5917L94.7317 20.9911L93.3235 22.5217L95.3352 24.3934L94.8454 24.9182L92.2215 22.5129L96.3497 18.0698ZM97.1542 26.4229C96.7282 25.931 96.4627 25.3207 96.3933 24.6737L95.8161 25.1984C95.9656 25.8188 96.266 26.3927 96.6907 26.869C96.8305 27.0771 97.0134 27.2528 97.227 27.3841C97.4406 27.5154 97.6799 27.5992 97.9287 27.6299C98.1776 27.6606 98.4301 27.6374 98.6692 27.562C98.9083 27.4865 99.1284 27.3606 99.3146 27.1926C100.163 26.4142 99.8481 25.5396 99.4458 24.7174C99.1047 24.0702 98.8335 23.388 99.2883 22.9681C99.7432 22.5483 100.277 22.7057 100.731 23.213C101.143 23.6834 101.408 24.2642 101.492 24.8836L102.113 24.3238C101.973 23.7231 101.671 23.1725 101.239 22.732C101.098 22.5341 100.917 22.3677 100.709 22.2433C100.5 22.119 100.268 22.0395 100.027 22.0099C99.7858 21.9803 99.5411 22.0012 99.3086 22.0713C99.076 22.1414 98.8606 22.2592 98.6761 22.4171C97.8627 23.1518 98.1776 24.0527 98.5449 24.7961C98.9123 25.5396 99.2009 26.2218 98.7111 26.6678C98.2213 27.1139 97.6353 26.9565 97.1542 26.4229ZM99.5421 28.2422C99.5472 28.8983 99.755 29.5367 100.137 30.0702C100.565 30.6475 101.134 30.8574 101.659 30.4638C102.183 30.0702 101.965 29.353 101.659 28.5833C101.353 27.8137 101.125 26.8866 102.009 26.2306C102.203 26.0813 102.429 25.9763 102.668 25.9229C102.908 25.8695 103.156 25.869 103.396 25.9215C103.636 25.974 103.861 26.0781 104.057 26.2266C104.252 26.3752 104.413 26.5646 104.528 26.7816C104.898 27.2653 105.134 27.8388 105.21 28.4434L104.536 28.9419C104.513 28.3134 104.306 27.7053 103.941 27.1927C103.53 26.6504 103.014 26.4492 102.516 26.8166C102.017 27.1839 102.236 27.9011 102.516 28.6183C102.839 29.493 103.076 30.3676 102.157 31.0586C101.955 31.2158 101.721 31.3268 101.471 31.3837C101.222 31.4406 100.963 31.442 100.712 31.3878C100.462 31.3336 100.227 31.225 100.023 31.0699C99.8194 30.9148 99.6522 30.7169 99.5333 30.4901C99.1491 29.9793 98.9076 29.3756 98.8336 28.7408L99.5421 28.2422ZM105.875 31.1109C105.656 31.5395 105.446 31.9768 105.245 32.4141L104.274 34.5657L106.575 34.7669C106.675 34.7762 106.776 34.7863 106.878 34.7965C107.252 34.8339 107.631 34.8718 108.009 34.8718L107.856 34.9565C107.569 35.1155 107.227 35.3048 106.872 35.5191L103.916 37.2159L104.318 37.9068L109.566 34.8806L109.19 34.2246L105.455 33.901L107.038 30.5074L106.662 29.8427L101.414 32.8689L101.799 33.5336L104.747 31.7844C105.175 31.5395 105.569 31.3033 105.875 31.1109ZM110.362 36.6383L111.743 39.8482L111.079 40.1281L110.012 37.6529L108.324 38.3788L109.26 40.5479L108.621 40.819L107.694 38.6499L105.778 39.4721L106.872 41.9823L106.216 42.2709L104.808 38.9911L110.362 36.6383ZM112.347 41.4404L106.574 43.1897L106.784 43.9244L109.697 43.0498C110.248 42.8836 110.834 42.6999 111.332 42.5337L111.253 42.6387C110.929 43.0685 110.599 43.5052 110.292 43.9419L107.816 47.3355L108.035 48.0527L113.816 46.3034L113.589 45.5687L110.685 46.4433C110.304 46.5566 109.914 46.6819 109.547 46.8002L109.544 46.8011C109.373 46.8561 109.208 46.9095 109.05 46.9594C109.408 46.4958 109.758 46.0235 110.099 45.5512L112.566 42.1576L112.347 41.4404ZM113.816 49.854L113.457 47.8598L114.166 47.7373L115.04 52.5041L114.341 52.6353L113.973 50.6411L108.726 51.5857L108.586 50.7986L113.816 49.854ZM5.64164 71.0117C5.52183 70.3633 5.60745 69.6936 5.88654 69.0962L5.03815 69.2362C4.8379 69.8428 4.80169 70.4915 4.93319 71.1166C4.94525 71.3704 5.01244 71.6185 5.1301 71.8437C5.24776 72.0689 5.41305 72.2657 5.61449 72.4206C5.81593 72.5754 6.04868 72.6845 6.29655 72.7402C6.54443 72.796 6.80147 72.7971 7.04981 72.7435C8.17809 72.5161 8.34427 71.5627 8.42299 70.6881C8.47546 69.9446 8.59791 69.1924 9.20141 69.07C9.80491 68.9475 10.181 69.3499 10.3209 70.0146C10.4272 70.6307 10.3574 71.2643 10.1198 71.8426L10.9332 71.6764C11.1203 71.1123 11.1535 70.5084 11.0294 69.9271C10.802 68.7726 10.0673 68.1166 8.9915 68.344C7.9157 68.5714 7.72328 69.4986 7.66205 70.3207C7.60083 71.1429 7.49587 71.8863 6.84864 72.0175C6.20141 72.1487 5.78158 71.7201 5.64164 71.0117ZM11.5621 72.7785L12.5592 76.0934L11.8769 76.3033L11.1073 73.6794L9.358 74.2042L10.0402 76.4695L9.37549 76.6707L8.70202 74.4053L6.70785 75.0001L7.50377 77.624L6.81281 77.8252L5.79823 74.4141L11.5621 72.7785ZM14.2476 81.3409C14.3085 80.7459 14.2213 80.145 13.9939 79.5917C13.8507 79.2031 13.6298 78.8477 13.3448 78.5472C13.0597 78.2467 12.7165 78.0073 12.3361 77.8437C11.9556 77.68 11.5458 77.5955 11.1316 77.5953C10.7174 77.5951 10.3075 77.6792 9.9269 77.8424C9.53858 77.9926 9.18532 78.221 8.88907 78.5136C8.59283 78.8061 8.35994 79.1565 8.20489 79.5428C8.04984 79.9292 7.97595 80.3434 7.98781 80.7596C7.99967 81.1757 8.09703 81.585 8.27383 81.9619C8.50071 82.5428 8.88173 83.0509 9.37588 83.4313L10.1893 83.0902C9.62781 82.8012 9.1853 82.3246 8.93856 81.7433C8.80502 81.4554 8.73224 81.1432 8.72476 80.8259C8.71728 80.5087 8.77526 80.1934 8.89508 79.8996C9.0149 79.6058 9.194 79.3398 9.42118 79.1183C9.64837 78.8968 9.91878 78.7244 10.2155 78.6121C10.5003 78.4825 10.8085 78.4124 11.1214 78.4061C11.4342 78.3997 11.745 78.4572 12.0348 78.5751C12.3246 78.693 12.5874 78.8688 12.8069 79.0917C13.0265 79.3146 13.1983 79.58 13.3117 79.8716C13.5441 80.4433 13.5901 81.0739 13.4429 81.6733L14.2476 81.3409ZM12.1746 83.5717L14.9647 82.0236L15.3496 82.7146L12.6295 84.2189C12.1382 84.4334 11.7061 84.7635 11.37 85.181C11.223 85.4243 11.1497 85.705 11.159 85.9891C11.1683 86.2732 11.2598 86.5485 11.4225 86.7816C11.5352 87.039 11.7197 87.2584 11.9539 87.4135C12.1882 87.5686 12.4622 87.6529 12.7432 87.6562C13.2612 87.5957 13.7566 87.4096 14.1863 87.114L16.9414 85.6009L17.3088 86.2743L14.5974 87.77C14.0018 88.18 13.2998 88.4079 12.577 88.4259C12.1885 88.3721 11.8196 88.2223 11.5035 87.9902C11.1875 87.7581 10.9341 87.451 10.7665 87.0965C10.5543 86.7682 10.4286 86.3915 10.401 86.0016C10.3735 85.6116 10.4451 85.221 10.609 84.8662C10.9978 84.2951 11.5407 83.8462 12.1746 83.5717ZM18.8752 88.5391L17.9306 87.2009L12.9976 90.6557L13.4524 91.3029L15.569 89.8073L16.1551 90.6819L15.1055 93.6819L15.6653 94.4603L16.7236 91.3466C16.8927 91.5278 17.0984 91.6708 17.3271 91.7665C17.5874 91.8818 17.8738 91.9255 18.1567 91.8932C18.4396 91.8609 18.7087 91.7538 18.9364 91.5828C19.1782 91.4227 19.3692 91.1969 19.4869 90.9319C19.6047 90.667 19.6443 90.3739 19.6011 90.0872C19.4971 89.517 19.247 88.9836 18.8752 88.5391ZM21.0617 91.4604L21.569 92.0726L16.8984 95.9035L16.3999 95.2913L21.0617 91.4604ZM21.4894 93.1749L22.8888 94.653L19.0404 98.3178L19.5827 98.895L23.4486 95.2303L24.848 96.7084L25.364 96.2099L22.0142 92.6851L21.4894 93.1749ZM25.0583 100.338L25.4344 96.3058L26.1341 96.9093L25.9592 98.6586C25.939 98.8336 25.9201 99.0034 25.901 99.1751C25.8704 99.4495 25.8394 99.7284 25.8017 100.041L27.1487 99.6732L28.8979 99.2184L29.5714 99.7956L25.6705 100.801L23.9213 102.883L23.3178 102.367L25.0583 100.338ZM30.5069 101.396L32.2125 102.498L29.3262 106.968L29.9909 107.396L32.8859 102.918L34.5915 104.02L34.9763 103.417L30.9005 100.793L30.5069 101.396ZM35.5711 103.74L37.0317 104.484C37.5686 104.703 38.0389 105.059 38.3962 105.516C38.5654 105.75 38.6637 106.028 38.6792 106.316C38.6947 106.605 38.6268 106.892 38.4836 107.143C38.3597 107.393 38.1712 107.606 37.9375 107.76C37.7039 107.914 37.4335 108.003 37.1542 108.017C36.9059 108.036 36.6563 108.007 36.4195 107.93L36.9443 111.183L36.0696 110.746L35.5973 107.597L34.679 107.134L33.5069 109.443L32.7985 109.084L35.5711 103.74ZM40.1627 106.032L39.0431 109.032C38.7425 109.669 38.6302 110.379 38.7195 111.078C38.8485 111.445 39.0575 111.779 39.3313 112.055C39.6051 112.332 39.937 112.544 40.3028 112.676C40.6686 112.808 41.0593 112.857 41.4465 112.82C41.8337 112.783 42.2078 112.66 42.5417 112.46C43.0785 111.978 43.4617 111.348 43.6437 110.65L44.737 107.737L44.011 107.475L42.909 110.422C42.7734 110.925 42.5183 111.387 42.1656 111.769C41.9483 111.951 41.6828 112.065 41.4015 112.098C41.1202 112.13 40.8355 112.08 40.5825 111.953C40.3057 111.883 40.0551 111.734 39.8611 111.524C39.667 111.315 39.5379 111.054 39.4892 110.772C39.4797 110.24 39.5934 109.713 39.8215 109.233L40.9061 106.312L40.1627 106.032ZM44.4402 112.636C44.8488 113.154 45.4128 113.528 46.0495 113.703C46.7492 113.886 47.3178 113.703 47.4839 113.055C47.6501 112.408 47.0291 111.953 46.3557 111.577C45.6822 111.201 44.8775 110.58 45.1574 109.513C45.2171 109.276 45.3278 109.054 45.4817 108.864C45.6356 108.673 45.8291 108.518 46.0488 108.41C46.2685 108.302 46.5091 108.243 46.7539 108.237C46.9987 108.231 47.2418 108.279 47.4664 108.376C48.0594 108.517 48.6016 108.819 49.032 109.251L48.8221 110.055C48.404 109.574 47.8485 109.232 47.2303 109.076C46.5743 108.901 46.0408 109.076 45.8834 109.662C45.7061 110.331 46.2415 110.636 46.8466 110.981C46.8983 111.01 46.9506 111.04 47.0029 111.07C47.6676 111.455 48.5335 112.093 48.2449 113.204C48.1842 113.451 48.0706 113.681 47.912 113.879C47.7534 114.077 47.5535 114.238 47.3263 114.352C47.0992 114.465 46.8501 114.527 46.5964 114.534C46.3426 114.542 46.0904 114.494 45.8571 114.394C45.2442 114.245 44.6787 113.944 44.2128 113.519L44.4402 112.636ZM49.6009 109.758L51.6038 110.073L50.7117 115.329L51.4901 115.452L52.3647 110.204L54.3939 110.519L54.5076 109.81L49.7146 109.049L49.6009 109.758ZM58.9851 110.047H59.746L62.1425 116.169H61.2679L60.6206 114.472L57.9005 114.429L57.1921 116.099H56.3786L58.9851 110.047ZM64.9243 115.242C64.2679 115.294 63.612 115.134 63.0526 114.787L63.1488 115.696C63.7298 115.958 64.3682 116.067 65.003 116.011C66.21 115.906 67.0059 115.233 66.866 114.087C66.7261 112.941 65.8514 112.67 64.9768 112.495C64.9159 112.484 64.8552 112.473 64.7952 112.462C64.114 112.341 63.5105 112.233 63.4462 111.542C63.3937 110.93 63.8398 110.597 64.5132 110.536C65.1226 110.503 65.729 110.642 66.2625 110.938L66.1925 110.064C65.6459 109.812 65.0424 109.71 64.4433 109.766C63.2712 109.871 62.5715 110.527 62.6415 111.621C62.7115 112.714 63.6473 113.038 64.4607 113.16C65.2742 113.283 66.0001 113.501 66.0613 114.157C66.1226 114.813 65.6415 115.18 64.9243 115.242ZM68.0113 114.298C68.6024 114.587 69.2688 114.685 69.918 114.577C70.6265 114.446 71.0726 114.044 70.9501 113.388C70.8277 112.732 70.0755 112.618 69.2708 112.513C68.4661 112.408 67.5215 112.233 67.3204 111.149C67.1192 110.064 67.7839 109.4 68.9472 109.146C69.5316 109.034 70.1354 109.079 70.6965 109.277L70.8452 110.099C70.2752 109.843 69.6423 109.761 69.0259 109.863C68.3524 109.977 67.9414 110.353 68.0463 110.956C68.1749 111.64 68.8061 111.695 69.4778 111.754C69.5369 111.759 69.5963 111.764 69.6556 111.77C70.5303 111.857 71.4749 112.05 71.6848 113.187C71.8947 114.324 71.195 115.05 70.0055 115.268C69.3792 115.381 68.7345 115.329 68.1338 115.12L68.0113 114.298ZM71.72 108.743L72.5947 111.813C72.7435 112.495 73.0833 113.12 73.5742 113.615C73.8983 113.827 74.2645 113.967 74.6477 114.023C75.0308 114.08 75.4218 114.053 75.7935 113.945C76.1653 113.836 76.5089 113.647 76.8008 113.393C77.0926 113.138 77.3257 112.823 77.4839 112.469C77.6211 111.762 77.5512 111.03 77.2827 110.361L76.4081 107.379L75.6734 107.597L76.548 110.615C76.7395 111.101 76.8115 111.626 76.7579 112.146C76.6916 112.42 76.5473 112.669 76.3425 112.863C76.1376 113.057 75.8809 113.188 75.6034 113.239C75.3385 113.344 75.049 113.373 74.7687 113.32C74.4884 113.267 74.2289 113.136 74.0203 112.941C73.6922 112.52 73.4648 112.03 73.3556 111.507L72.4809 108.525L71.72 108.743ZM77.4049 106.985L78.918 106.356C79.4346 106.093 80.0095 105.967 80.5886 105.988C80.8779 106.009 81.1551 106.113 81.3875 106.287C81.6199 106.46 81.7979 106.696 81.9005 106.968C82.0183 107.227 82.0649 107.512 82.0357 107.795C82.0065 108.078 81.9025 108.348 81.7343 108.577C81.5842 108.774 81.4007 108.943 81.1921 109.076L83.9996 110.825L83.125 111.192L80.4224 109.522L79.4778 109.915L80.4661 112.259L79.7314 112.565L77.4049 106.985ZM84.4984 103.714L83.8336 104.081L84.5771 110.562L85.2855 110.178L85.0756 108.367L87.4546 107.055L88.854 108.201L89.6062 107.79L84.4984 103.714ZM90.63 107.073L87.1314 102.166L87.7437 101.729L91.7495 102.98C92.3093 103.146 92.869 103.33 93.4201 103.513C93.3209 103.377 93.2152 103.237 93.1061 103.093C92.8786 102.792 92.636 102.471 92.4055 102.123L90.6562 99.6561L91.286 99.21L94.7845 104.117L94.1723 104.554L90.1577 103.312L89.9312 103.24L89.9297 103.24C89.4526 103.089 88.9699 102.936 88.4871 102.77L88.5644 102.872L88.6162 102.94L88.7418 103.105C88.9911 103.43 89.258 103.779 89.5104 104.16L91.2597 106.627L90.63 107.073ZM95.6852 95.6587C95.11 95.8009 94.5803 96.0868 94.1458 96.4896V96.5159C93.5381 97.0726 93.1764 97.848 93.1403 98.6714C93.1042 99.4948 93.3967 100.299 93.9534 100.907C94.5101 101.514 95.2855 101.876 96.1089 101.912C96.5166 101.93 96.9238 101.867 97.3074 101.728C97.6909 101.588 98.0432 101.375 98.3441 101.099C98.8146 100.688 99.1627 100.156 99.3499 99.5596L98.7552 98.9124C98.6684 99.5396 98.3578 100.114 97.8805 100.53C97.4166 100.961 96.8007 101.189 96.1684 101.165C95.5361 101.142 94.9391 100.868 94.5088 100.404C94.0785 99.9397 93.8501 99.3238 93.8739 98.6915C93.8977 98.0592 94.1717 97.4622 94.6356 97.0319C95.0903 96.6216 95.6625 96.3646 96.2712 96.2972L95.6852 95.6587ZM96.1396 94.6709L98.4749 92.0469L99.0084 92.528L97.2066 94.5309L98.5711 95.7554L100.145 94.0061L100.661 94.4697L99.0871 96.219L100.635 97.6096L102.481 95.5542L103.014 96.0265L100.635 98.6504L96.1396 94.6709ZM106.399 89.0905L104.956 87.2537L104.527 87.831L105.612 89.1867L103.959 89.5015V89.0905C103.982 88.8173 103.935 88.5427 103.822 88.2931C103.708 88.0435 103.533 87.8271 103.312 87.6648C102.973 87.4427 102.561 87.3623 102.163 87.4408C101.766 87.5194 101.415 87.7505 101.186 88.0848C100.957 88.419 100.868 88.8297 100.939 89.2286C101.009 89.6276 101.233 89.983 101.562 90.2187C101.767 90.3439 101.996 90.4256 102.233 90.4587C102.471 90.4918 102.713 90.4756 102.944 90.4112H103.207V90.6386C103.184 91.0291 103.292 91.4161 103.515 91.7378C103.737 92.0595 104.061 92.2973 104.435 92.4131C104.809 92.5289 105.21 92.5162 105.576 92.3768C105.942 92.2375 106.25 91.9796 106.452 91.6444C106.664 91.3737 106.805 91.0545 106.863 90.7156C106.921 90.3766 106.894 90.0285 106.784 89.7027L107.781 89.5103L108.306 88.7231L106.399 89.0905ZM104.387 83.2476L105.087 81.7695C105.293 81.2274 105.637 80.7482 106.084 80.3788C106.313 80.2019 106.588 80.094 106.876 80.0677C107.164 80.0413 107.454 80.0977 107.711 80.2301C107.971 80.3433 108.196 80.5237 108.364 80.7527C108.531 80.9817 108.635 81.2511 108.664 81.5333C108.689 81.7804 108.665 82.03 108.594 82.268L111.83 81.6645L111.419 82.5391L108.288 83.0902L107.851 84.026L110.204 85.1193L109.863 85.8365L104.387 83.2476ZM106.836 77.694L106.557 78.4375L112.189 80.6241L112.469 79.8806L106.836 77.694ZM111.822 78.0959C112.353 77.7066 112.75 77.1628 112.959 76.5391C113.169 75.8569 113.012 75.2709 112.382 75.0697C111.752 74.8685 111.298 75.4808 110.851 76.1717C110.405 76.8627 109.784 77.5974 108.735 77.265C108.501 77.1935 108.285 77.0722 108.102 76.9094C107.919 76.7465 107.774 76.5461 107.676 76.3217C107.577 76.0974 107.529 75.8544 107.534 75.6096C107.539 75.3648 107.596 75.1239 107.703 74.9035C107.875 74.3204 108.201 73.7946 108.647 73.3817L109.452 73.6266C108.957 74.0146 108.588 74.5414 108.394 75.1397C108.193 75.7782 108.332 76.3204 108.918 76.5041C109.505 76.6878 109.968 76.093 110.379 75.4545C110.79 74.8161 111.472 73.9677 112.574 74.3175C112.817 74.3907 113.041 74.5157 113.23 74.6838C113.419 74.852 113.57 75.0592 113.671 75.2912C113.773 75.5233 113.823 75.7746 113.818 76.0278C113.812 76.281 113.752 76.53 113.642 76.7578C113.455 77.3674 113.115 77.9186 112.653 78.3583L111.822 78.0959ZM108.77 71.4049L108.604 72.1834L114.499 73.3991L114.665 72.6294L111.612 71.991L115.242 69.8656L115.452 68.851L111.717 71.0726L109.531 67.8452L109.329 68.8073L111.446 71.9647L108.77 71.4049Z" fill="#00559A"/>
    <path d="M30.2323 47.6145C30.145 47.765 30.0898 47.932 30.0703 48.105L30.044 48.2886H24.7262C24.8661 47.4697 25.1631 46.6856 25.6009 45.9796C26.0635 45.2269 26.6733 44.5754 27.3939 44.0642C28.1677 43.5089 29.0317 43.0916 29.9478 42.8309C30.9785 42.5281 32.0486 42.3807 33.1227 42.3936C34.546 42.3642 35.9653 42.556 37.3297 42.9621C38.4528 43.331 39.5055 43.8869 40.4434 44.6064L37.6534 48.2362L37.251 48.7347C37.251 48.7347 36.8837 48.4286 36.595 48.2362C36.0686 47.8795 35.502 47.5859 34.907 47.3615C34.0444 47.0457 33.1317 46.8886 32.2131 46.898C31.647 46.8442 31.0778 46.9599 30.5776 47.2303C30.4372 47.3332 30.3196 47.464 30.2323 47.6145Z" fill="#00559A"/>
    <path d="M99.7087 44.9213L99.9186 43.6268V43.4169C99.8635 43.531 99.8022 43.6419 99.735 43.7493L98.9653 44.9738L98.6242 43.7493C98.5884 43.641 98.5621 43.5298 98.5455 43.4169V43.6268L98.3355 44.9213H98.0907L98.4055 42.9796H98.6942L99.009 44.1429C99.009 44.2199 99.0411 44.3169 99.0673 44.396C99.0797 44.4336 99.0909 44.4674 99.0965 44.4927C99.0965 44.4409 99.1534 44.3549 99.2097 44.2698C99.2389 44.2256 99.268 44.1817 99.2889 44.1429L99.9974 42.9796H100.277L99.9536 44.9213H99.7087Z" fill="#00559A"/>
    <path d="M97.3735 43.172L97.0848 44.9213H96.8224L97.1111 43.172H96.4813V42.9709H97.9944V43.172H97.3735Z" fill="#00559A"/>
    <path d="M25.8458 52.5481C26.4222 53.057 27.09 53.4518 27.8137 53.7114C28.7575 54.0602 29.7213 54.3523 30.7 54.586C31.321 54.7347 31.8283 54.8747 32.2306 55.0059C32.554 55.1153 32.8671 55.2529 33.1665 55.4169C33.3553 55.5175 33.515 55.6651 33.63 55.8455C33.7096 55.9956 33.7373 56.1678 33.7087 56.3353C33.691 56.5396 33.6204 56.7357 33.5039 56.9044C33.3873 57.0731 33.2288 57.2086 33.044 57.2974C32.4003 57.5167 31.72 57.6088 31.0411 57.5685C30.5728 57.5658 30.1062 57.5101 29.6504 57.4024C29.1525 57.2966 28.664 57.1503 28.1898 56.965C27.7242 56.7858 27.2687 56.5815 26.8254 56.3528C26.4348 56.1487 26.0605 55.9148 25.7058 55.6531L22.5484 59.8163C23.5895 60.5358 24.7337 61.0931 25.942 61.4694C27.3544 61.9251 28.8311 62.1496 30.3152 62.1341C31.398 62.1424 32.4781 62.025 33.5338 61.7843C34.4634 61.5689 35.3503 61.1994 36.1577 60.691C36.9245 60.1952 37.5774 59.5423 38.0732 58.7755C38.6001 57.9238 38.94 56.9698 39.0703 55.9767C39.1992 55.2033 39.1694 54.4117 38.9828 53.6502C38.811 53.0029 38.4592 52.4176 37.9682 51.9621C37.7009 51.7154 37.4077 51.4984 37.0936 51.3149H24.9624C25.1655 51.7843 25.4667 52.2048 25.8458 52.5481Z" fill="#00559A"/>
    <path d="M45.4376 62.0991H50.7466L52.2335 51.551H46.9245L45.4376 62.0991Z" fill="#00559A"/>
    <path d="M58.1548 47.5714H52.7933L52.6534 48.5423H47.3443L47.4843 47.5714H42.1227L42.77 42.9446H58.802L58.1548 47.5714Z" fill="#00559A"/>
    <path d="M66.9711 48.4723V48.5423H71.7204L70.4784 42.9446H65.0994L62.2831 48.5423H66.9449L66.9711 48.4723Z" fill="#00559A"/>
    <path d="M87.9536 47.2303H84.735L84.6038 48.5073H79.356L80.1432 42.9096H88.6796C89.6928 42.8984 90.7034 43.013 91.6883 43.2507C92.4989 43.4391 93.2557 43.8101 93.9012 44.3353C94.4944 44.8415 94.9262 45.5105 95.1432 46.2595C95.3512 46.9894 95.4165 47.7526 95.3356 48.5073H90.0178C89.9732 48.2513 89.8649 48.0107 89.7029 47.8076C89.4752 47.5836 89.1989 47.415 88.8956 47.3149C88.5923 47.2148 88.27 47.1859 87.9536 47.2303Z" fill="#00559A"/>
    <path d="M72.3676 51.6035H67.3472L67.5047 52.4782H70.391L67.7146 54.1575L68.0469 57.035L65.974 55.2857L63.2364 57.035L64.7233 54.2274L62.6067 52.5306H65.4842L65.8953 51.6035H60.7612L55.4522 62.0991H61.1461L62.6592 58.7668H68.4055L68.974 62.0991H74.7204L72.3676 51.6035Z" fill="#00559A"/>
    <path d="M65.8953 51.5948L66.9799 49.3382L67.3472 51.5948H65.8953Z" fill="#00559A"/>
    <path d="M23.0382 66.5948H24.3414V75.3411H29.0469V76.5219H23.0382V66.5948Z" fill="#00559A"/>
    <path d="M36.4551 66.5948H30.7V76.5919H36.5776V75.4111H32.0032V71.9825H35.9041V70.8455H32.0032V67.7755H36.4551V66.5948Z" fill="#00559A"/>
    <path d="M37.3735 66.5948H38.7729L40.8982 72.1837L41.8691 74.8076C42.2014 73.9331 42.5339 73.0582 42.8749 72.1225L45.009 66.5773H46.356L42.5426 76.5569H41.2131L37.3735 66.5948Z" fill="#00559A"/>
    <path d="M53.4405 66.5948H47.6942V76.5919H53.5542V75.4111H48.9799V71.9825H52.872V70.8455H48.9799V67.7755H53.4405V66.5948Z" fill="#00559A"/>
    <path d="M55.4085 66.5948H56.7204V75.3411H61.426V76.5219H55.4085V66.5948Z" fill="#00559A"/>
    <path fill-rule="evenodd" clip-rule="evenodd" d="M73.9094 67.3034C73.0559 66.7477 72.0565 66.4584 71.0382 66.4723C70.3649 66.4638 69.6968 66.5914 69.0739 66.8473C68.4511 67.1032 67.8863 67.4822 67.4135 67.9616C66.9406 68.441 66.5694 69.0109 66.322 69.6372C66.0747 70.2635 65.9563 70.9333 65.9741 71.6064C65.9742 72.6248 66.2771 73.6202 66.8444 74.4659C67.4117 75.3117 68.2177 75.9696 69.1599 76.3561C70.1021 76.7425 71.138 76.84 72.1358 76.6362C73.1336 76.4323 74.0482 75.9364 74.7633 75.2113C75.4785 74.4863 75.9619 73.565 76.152 72.5645C76.3421 71.564 76.2304 70.5296 75.8311 69.5927C75.4317 68.6559 74.7628 67.859 73.9094 67.3034ZM73.2665 74.9491C72.5979 75.3592 71.8218 75.5597 71.0382 75.5248V75.4986C70.5338 75.4977 70.0347 75.3954 69.5707 75.1977C69.1067 75 68.6871 74.711 68.337 74.3479C67.987 73.9848 67.7135 73.5549 67.533 73.084C67.3524 72.613 67.2684 72.1105 67.286 71.6064C67.285 70.8221 67.519 70.0554 67.9577 69.4052C68.3964 68.7549 69.0197 68.251 69.7474 67.9582C70.4751 67.6655 71.2738 67.5974 72.0405 67.7626C72.8073 67.9279 73.507 68.319 74.0495 68.8855C74.592 69.452 74.9524 70.168 75.0843 70.9412C75.2162 71.7144 75.1135 72.5094 74.7896 73.2237C74.4656 73.938 73.9351 74.539 73.2665 74.9491Z" fill="#00559A"/>
    <path d="M77.9041 76.5569V66.5948H79.1461L83.3181 72.1312C83.6631 72.5808 84.0081 73.0428 84.3568 73.5099L84.3583 73.5118L84.3592 73.5131C84.5932 73.8265 84.8289 74.1421 85.0673 74.4577V66.5948H86.3356V76.5569H85.0586L80.8953 71.0292C80.5811 70.615 80.2669 70.1956 79.9499 69.7724L79.949 69.7714L79.948 69.77L79.9422 69.7622C79.6793 69.4114 79.4145 69.0579 79.1461 68.7026V76.5394L77.9041 76.5569Z" fill="#00559A"/>
    <path d="M94.4609 66.5948H88.6708L88.7146 76.5919H94.5834V75.4111H90.0178V71.9825H93.9099V70.8455H90.0178V67.7755H94.4609V66.5948Z" fill="#00559A"/>
    <path d="M82.6973 62.0991H77.4495L78.9363 51.551H94.5923C94.3982 51.9648 94.1576 52.355 93.8751 52.7143C93.1191 53.6263 92.1525 54.3407 91.0588 54.7959L93.8664 62.0991H87.9188L85.7148 55.6443H83.5719L82.6973 62.0991Z" fill="#00559A"/>
</svg>
