<svg width="120" height="120" viewBox="0 0 120 120" fill="none" xmlns="http://www.w3.org/2000/svg">
    <path d="M60.3061 108.682C87.1781 108.682 108.962 86.8982 108.962 60.0262C108.962 33.1543 87.1781 11.3703 60.3061 11.3703C33.4342 11.3703 11.6501 33.1543 11.6501 60.0262C11.6501 86.8982 33.4342 108.682 60.3061 108.682Z" fill="white"/>
    <path d="M60 0C48.1331 0 36.5328 3.51894 26.6658 10.1118C16.7989 16.7047 9.10851 26.0754 4.56725 37.039C0.0259975 48.0026 -1.1622 60.0665 1.15291 71.7054C3.46802 83.3443 9.18247 94.0352 17.5736 102.426C25.9648 110.818 36.6557 116.532 48.2946 118.847C59.9335 121.162 71.9975 119.974 82.961 115.433C93.9246 110.891 103.295 103.201 109.888 93.3342C116.481 83.4673 120 71.8669 120 60C119.981 44.0927 113.654 28.8422 102.406 17.594C91.1578 6.34587 75.9073 0.0185184 60 0ZM60 105.481C51.0047 105.481 42.2114 102.814 34.7321 97.8161C27.2528 92.8186 21.4234 85.7154 17.981 77.4048C14.5387 69.0943 13.638 59.9495 15.3929 51.1271C17.1478 42.3046 21.4794 34.2007 27.8401 27.84C34.2007 21.4794 42.3046 17.1477 51.1271 15.3929C59.9496 13.638 69.0943 14.5386 77.4049 17.981C85.7154 21.4233 92.8186 27.2528 97.8161 34.7321C102.814 42.2114 105.481 51.0047 105.481 60C105.469 72.0588 100.674 83.6203 92.1472 92.1472C83.6203 100.674 72.0588 105.469 60 105.481Z" fill="#132B50"/>
    <path d="M99.7084 44.9213L99.9183 43.6268V43.4169C99.8632 43.5309 99.8019 43.6419 99.7347 43.7493L98.965 44.9738L98.6239 43.7493C98.5882 43.6409 98.5618 43.5297 98.5452 43.4169V43.6268L98.3353 44.9213H98.0904L98.4052 42.9796H98.6939L99.0087 44.1429C99.0087 44.2566 99.0787 44.414 99.0962 44.4927C99.0962 44.414 99.2274 44.2566 99.2886 44.1429L99.9971 42.9796H100.277L99.9533 44.9213H99.7084ZM97.3732 43.172L97.0845 44.9213H96.8221L97.1108 43.172H96.481V42.9708H97.9941V43.172H97.3732Z" fill="#132B50"/>
    <path d="M66.9446 48.5444C66.9446 48.5444 66.9446 48.5444 66.9446 48.4723V48.5444Z" fill="#132B50"/>
    <path d="M25.8455 52.5481C26.4219 53.057 27.0897 53.4518 27.8134 53.7114C28.7572 54.0602 29.721 54.3523 30.6997 54.586C31.3207 54.7347 31.828 54.8746 32.2303 55.0058C32.5537 55.1153 32.8668 55.2528 33.1662 55.4169C33.355 55.5175 33.5147 55.6651 33.6297 55.8455C33.7093 55.9956 33.737 56.1678 33.7085 56.3353C33.6907 56.5396 33.6201 56.7357 33.5036 56.9044C33.387 57.0731 33.2285 57.2085 33.0437 57.2974C32.4 57.5167 31.7197 57.6088 31.0408 57.5685C30.5725 57.5658 30.1059 57.5101 29.6501 57.4023C29.1522 57.2965 28.6637 57.1503 28.1895 56.965C27.7239 56.7858 27.2684 56.5814 26.8251 56.3528C26.4345 56.1487 26.0602 55.9147 25.7055 55.6531L22.5481 59.8163C23.5892 60.5357 24.7334 61.0931 25.9417 61.4694C27.3541 61.9251 28.8309 62.1496 30.3149 62.1341C31.3977 62.1424 32.4778 62.025 33.5335 61.7843C34.4631 61.5689 35.35 61.1993 36.1574 60.691C36.9242 60.1951 37.5771 59.5423 38.0729 58.7755C38.5998 57.9238 38.9397 56.9697 39.07 55.9767C39.1989 55.2033 39.1691 54.4117 38.9825 53.6501C38.8107 53.0029 38.4589 52.4176 37.9679 51.9621C37.7006 51.7154 37.4074 51.4983 37.0933 51.3149H24.9621C25.1652 51.7842 25.4664 52.2047 25.8455 52.5481Z" fill="#132B50"/>
    <path d="M30.07 48.1049C30.0895 47.932 30.1447 47.765 30.232 47.6145C30.3193 47.464 30.4369 47.3331 30.5773 47.2303C31.0775 46.9599 31.6467 46.8442 32.2128 46.8979C33.1314 46.8886 34.0441 47.0457 34.9067 47.3615C35.5017 47.5859 36.0683 47.8795 36.5947 48.2361C36.8834 48.4286 37.2507 48.7347 37.2507 48.7347L37.6531 48.2361L40.4431 44.6064C39.5052 43.8869 38.4525 43.3309 37.3294 42.9621C35.965 42.5559 34.5458 42.3641 33.1224 42.3936C32.0483 42.3807 30.9782 42.5281 29.9475 42.8309C29.0314 43.0916 28.1674 43.5088 27.3936 44.0641C26.673 44.5754 26.0632 45.2269 25.6006 45.9796C25.1628 46.6856 24.8658 47.4697 24.7259 48.2886H30.0437L30.07 48.1049Z" fill="#132B50"/>
    <path d="M45.4373 62.0991H50.7464L52.2332 51.551H46.9242L45.4373 62.0991Z" fill="#132B50"/>
    <path d="M52.793 47.5714H58.1545L58.8018 42.9446H42.7697L42.1224 47.5714H47.484L47.344 48.5423H52.6531L52.793 47.5714Z" fill="#132B50"/>
    <path d="M66.9708 48.4723C66.9708 48.4723 66.9708 48.4723 66.9708 48.5423H71.7201L70.4781 42.9446H65.0991L62.2828 48.5423H66.9446L66.9708 48.4723Z" fill="#132B50"/>
    <path d="M77.449 62.0991H82.6968L83.5714 55.6443H85.7143L87.9183 62.0991H93.8659L91.0583 54.7959C92.152 54.3407 93.1186 53.6263 93.8746 52.7143C94.1571 52.355 94.3977 51.9647 94.5918 51.551H78.9358L77.449 62.0991Z" fill="#132B50"/>
    <path d="M84.7347 47.2303H87.9533C88.2697 47.1859 88.592 47.2148 88.8953 47.3149C89.1986 47.415 89.4749 47.5836 89.7026 47.8076C89.8646 48.0107 89.9729 48.2513 90.0175 48.5073H95.3353C95.4162 47.7526 95.3509 46.9894 95.1429 46.2595C94.9259 45.5104 94.4941 44.8415 93.9009 44.3353C93.2554 43.81 92.4986 43.4391 91.688 43.2507C90.7031 43.013 89.6925 42.8984 88.6793 42.9096H80.1429L79.3557 48.5073H84.6035L84.7347 47.2303Z" fill="#132B50"/>
    <path d="M72.3673 51.6035H60.7609L55.4519 62.0991H61.1458L62.6589 58.7668H68.4052L68.9737 62.0991H74.7201L72.3673 51.6035ZM67.7143 54.1574L68.0466 57.035L65.9738 55.2857L63.2361 57.035L64.723 54.2274L62.6064 52.5306H65.484L65.895 51.6035H67.3469L67.5044 52.4781H70.3907L67.7143 54.1574Z" fill="#132B50"/>
    <path d="M66.9796 49.3382L65.895 51.5947H67.3469L66.9796 49.3382Z" fill="#132B50"/>
    <path d="M9.31487 58.1283C9.74061 57.6371 10.0034 57.0259 10.0671 56.379C10.1195 55.6618 9.8309 55.1283 9.19242 55.0845C8.55394 55.0408 8.23032 55.723 7.95044 56.5015C7.67055 57.2799 7.21574 58.1108 6.12245 58.0233C5.02915 57.9359 4.49563 57.1487 4.57434 55.9592C4.61012 55.341 4.80932 54.7434 5.1516 54.2274L6.02624 54.2886C5.63188 54.792 5.39459 55.4004 5.34402 56.0379C5.34402 56.7114 5.55394 57.2012 6.16618 57.2449C6.91837 57.3061 7.09329 56.6152 7.35568 55.898C7.67055 55.0233 8.08163 54.2012 9.2274 54.2799C9.48245 54.2937 9.73137 54.3632 9.95669 54.4834C10.182 54.6037 10.3783 54.7719 10.5316 54.9761C10.685 55.1804 10.7918 55.4157 10.8445 55.6656C10.8972 55.9155 10.8946 56.174 10.8367 56.4227C10.7832 57.0481 10.5726 57.6498 10.2245 58.172L9.31487 58.1283Z" fill="white"/>
    <path d="M5.97376 51.0437L5.63265 53.0466L4.9242 52.9242L5.74636 48.1487L6.45481 48.2711L6.12245 50.2653L11.3703 51.1399L11.2391 51.9184L5.97376 51.0437Z" fill="white"/>
    <path d="M6.37609 45.7697L6.56851 45.035L13.0496 44.2216L12.8309 45.035L11.0292 45.2449L10.312 47.8688L11.7638 48.9796L11.5452 49.7668L6.37609 45.7697ZM9.7172 47.4227L10.2857 45.3324L8.94752 45.481L7.36443 45.6385C7.793 45.9446 8.23907 46.277 8.67638 46.6093L9.7172 47.4227Z" fill="white"/>
    <path d="M7.69679 41.379L8.30029 39.8571C8.46398 39.3068 8.76496 38.8072 9.17493 38.4052C9.39394 38.2159 9.66165 38.0918 9.94767 38.0469C10.2337 38.0021 10.5266 38.0383 10.793 38.1516C11.0592 38.2433 11.2968 38.4029 11.4824 38.6146C11.668 38.8263 11.7952 39.0827 11.8513 39.3586C11.8994 39.6041 11.8994 39.8566 11.8513 40.102L15.0175 39.3586L14.6589 40.2332L11.5714 40.9942L11.1953 41.9475L13.6006 42.8571L13.3032 43.5918L7.69679 41.379ZM10.9679 40.723C11.163 40.3559 11.2277 39.9335 11.1516 39.5248C11.1154 39.3834 11.0445 39.2533 10.9452 39.1464C10.8459 39.0394 10.7214 38.9591 10.5831 38.9125C10.4228 38.843 10.2464 38.8193 10.0735 38.844C9.90057 38.8687 9.73787 38.9408 9.6035 39.0525C9.29391 39.3693 9.06581 39.7564 8.93878 40.1808L8.65015 40.9067L10.5918 41.6764L10.9679 40.723Z" fill="white"/>
    <path d="M11.0292 33.8659L11.4227 33.1749L16.0496 35.7988L17.4927 33.3498L18.1137 33.7085L16.3032 36.8746L11.0292 33.8659Z" fill="white"/>
    <path d="M13.6268 29.5015L15.6297 26.6501L16.2157 27.0612L14.6676 29.2653L16.172 30.3236L17.4927 28.3907L18.0612 28.7843L16.7055 30.7172L18.4111 31.9154L20.0029 29.6414L20.5889 30.0525L18.5773 32.9738L13.6268 29.5015Z" fill="white"/>
    <path d="M16.2332 25.8105L16.793 25.1633L20.1953 26.4052L21.7959 27.0087C21.5073 26.5015 21.2361 26.0029 20.965 25.4869L19.242 22.2945L19.7668 21.6822L22.8192 27.3848L22.2945 27.9971L16.2332 25.8105Z" fill="white"/>
    <path d="M20.7376 20.7813L23.274 18.3673L23.7638 18.8834L21.8047 20.7376L23.0641 22.0758L24.8134 20.449L25.2945 20.9563L23.5452 22.5743L24.9708 24.0875L26.9912 22.1895L27.481 22.7143L24.8571 25.1545L20.7376 20.7813Z" fill="white"/>
    <path d="M24.4898 17.3528L25.1108 16.863L28.3994 21.0525L30.6472 19.3032L31.0845 19.863L28.2157 22.1108L24.4898 17.3528Z" fill="white"/>
    <path d="M31.7755 13.0671L30.0262 14.0991L29.6676 13.4869L33.8396 11.0117L34.1982 11.6327L32.449 12.6647L35.1603 17.2478L34.4869 17.6501L31.7755 13.0671Z" fill="white"/>
    <path d="M34.6793 10.4956L35.4577 10.172L37.6531 12.7959C38.0029 13.207 38.3703 13.6706 38.7114 14.0641C38.6501 13.5219 38.5977 12.9708 38.5452 12.4111L38.2216 9.00875L38.7638 8.78134L40.9767 11.4052C41.3353 11.8338 41.6851 12.2362 42.035 12.6647C41.9738 12.1224 41.9125 11.5539 41.8513 11.0117L41.5452 7.5656L42.2799 7.25073L42.9009 13.5481L42.1224 13.8805L40.0408 11.4227C39.7172 11.0466 39.4023 10.6706 39.1049 10.2945C39.1574 10.7668 39.2099 11.2653 39.2624 11.7638L39.5685 14.9563L38.7726 15.2886L34.6793 10.4956Z" fill="white"/>
    <path d="M46.2507 6.12245C46.6449 6.01697 47.0563 5.99206 47.4603 6.04921C47.8643 6.10635 48.2526 6.24437 48.6021 6.45502C48.9515 6.66568 49.2549 6.94463 49.4941 7.27521C49.7333 7.60579 49.9034 7.9812 49.9942 8.37901C50.1948 9.16886 50.0735 10.0061 49.6569 10.7065C49.2402 11.4068 48.5624 11.913 47.7726 12.1137C46.9827 12.3144 46.1455 12.193 45.4451 11.7764C44.7448 11.3598 44.2385 10.682 44.0379 9.89213C43.9278 9.4992 43.8981 9.08811 43.9505 8.68343C44.0029 8.27876 44.1364 7.88881 44.343 7.5369C44.5495 7.18499 44.825 6.87836 45.1528 6.63532C45.4805 6.39229 45.854 6.21786 46.2507 6.12245ZM47.5977 11.4402C47.8954 11.3646 48.1749 11.2296 48.4192 11.0433C48.6636 10.8571 48.8678 10.6235 49.0197 10.3564C49.1716 10.0894 49.2681 9.79438 49.3032 9.48917C49.3384 9.18396 49.3116 8.87479 49.2245 8.58017C49.167 8.27366 49.0473 7.98217 48.8728 7.7237C48.6983 7.46522 48.4727 7.24524 48.21 7.07732C47.9472 6.9094 47.6528 6.79711 47.3449 6.74737C47.037 6.69764 46.7222 6.7115 46.4199 6.78813C46.1176 6.86475 45.8342 7.0025 45.5872 7.19288C45.3402 7.38326 45.1348 7.62223 44.9838 7.89505C44.8327 8.16787 44.7391 8.46875 44.7088 8.77913C44.6785 9.08952 44.7121 9.40282 44.8076 9.69971C44.866 10.0038 44.986 10.2927 45.16 10.5488C45.3341 10.8049 45.5586 11.0227 45.8199 11.1889C46.0811 11.3552 46.3735 11.4663 46.6792 11.5155C46.9849 11.5648 47.2975 11.551 47.5977 11.4752V11.4402Z" fill="white"/>
    <path d="M51.1399 7.64431C51.124 7.53843 51.1397 7.43019 51.1852 7.33324C51.2307 7.2363 51.3038 7.15498 51.3955 7.09955C51.4871 7.04412 51.593 7.01706 51.7 7.02177C51.807 7.02648 51.9102 7.06276 51.9966 7.12603C52.083 7.1893 52.1487 7.27673 52.1855 7.3773C52.2222 7.47787 52.2284 7.58707 52.2032 7.69114C52.178 7.79522 52.1225 7.8895 52.0438 7.9621C51.9651 8.03471 51.8667 8.08239 51.7609 8.09912C51.6185 8.11935 51.4739 8.0831 51.3579 7.99812C51.2418 7.91315 51.1636 7.78617 51.1399 7.64431ZM52.0933 10.1895C52.236 10.1675 52.3815 10.203 52.498 10.2883C52.6144 10.3736 52.6922 10.5017 52.7143 10.6443C52.7363 10.787 52.7008 10.9325 52.6155 11.049C52.5302 11.1655 52.4021 11.2433 52.2595 11.2653C52.1168 11.2873 51.9712 11.2518 51.8548 11.1665C51.7383 11.0812 51.6605 10.9532 51.6385 10.8105C51.6164 10.6678 51.652 10.5223 51.7373 10.4058C51.8226 10.2893 51.9506 10.2115 52.0933 10.1895Z" fill="white"/>
    <path d="M57.0525 5.31778L55.0233 5.41399V4.69679L59.8688 4.46939V5.18659L57.8484 5.24781L58.0933 10.5656L57.2974 10.6093L57.0525 5.31778Z" fill="white"/>
    <path d="M61.277 4.48688L62.0729 4.53936L61.8979 7.0758L65.1866 7.29446L65.3528 4.75802L66.1399 4.81049L65.7463 10.8367L64.9504 10.7843L65.1341 8.01166L61.8542 7.793L61.6705 10.5656L60.8834 10.5131L61.277 4.48688Z" fill="white"/>
    <path d="M67.9592 5.09912L68.7463 5.21283L67.8717 11.1866L67.0845 11.0641L67.9592 5.09912Z" fill="white"/>
    <path d="M70.5131 5.49271L72.1049 5.85131C72.6774 5.94193 73.2184 6.17335 73.6793 6.52478C73.901 6.71063 74.0656 6.95553 74.1538 7.23108C74.242 7.50663 74.2504 7.80154 74.1778 8.08163C74.1215 8.36108 73.9923 8.62069 73.8034 8.83418C73.6145 9.04767 73.3726 9.20746 73.102 9.29738C72.8672 9.3695 72.6213 9.39912 72.3761 9.38484L73.6618 12.4111L72.7259 12.1924L71.5102 9.26239L70.5131 9.03498L69.9708 11.5539L69.1574 11.3703L70.5131 5.49271ZM71.6589 8.62391C72.0532 8.75721 72.4803 8.75721 72.8746 8.62391C73.0074 8.56702 73.124 8.47814 73.2141 8.3652C73.3041 8.25226 73.3648 8.11878 73.3907 7.97668C73.4426 7.80298 73.443 7.61794 73.3917 7.44404C73.3405 7.27014 73.2399 7.11486 73.102 6.99708C72.7426 6.73901 72.325 6.57377 71.8863 6.51603L71.1254 6.34111L70.653 8.3965L71.6589 8.62391Z" fill="white"/>
    <path d="M76.3469 6.92711L77.9125 7.47813C78.6232 7.69753 79.261 8.10561 79.758 8.65889C80.0701 9.04953 80.274 9.51538 80.3492 10.0097C80.4244 10.504 80.3684 11.0094 80.1866 11.4752C80.0402 11.9239 79.787 12.3302 79.4488 12.6593C79.1105 12.9884 78.6974 13.2304 78.2449 13.3644C77.3871 13.5464 76.4938 13.4546 75.691 13.102L74.344 12.6122L76.3469 6.92711ZM76.0933 12.4723C76.6686 12.7202 77.3027 12.7991 77.9213 12.6997C78.2839 12.6065 78.6169 12.4228 78.8892 12.1658C79.1615 11.9088 79.3641 11.5869 79.4781 11.2303C79.6131 10.8854 79.6582 10.5118 79.6093 10.1446C79.5603 9.77745 79.4189 9.42873 79.1982 9.13119C78.7862 8.64561 78.2377 8.29516 77.6239 8.12536L76.8542 7.87172L75.3061 12.2449L76.0933 12.4723Z" fill="white"/>
    <path d="M81.2186 11.6501L83.0291 12.481L82.7493 13.0933L80.9388 12.2187L81.2186 11.6501Z" fill="white"/>
    <path d="M85.6181 10.7493L86.9912 11.5277C87.549 11.7862 88.0309 12.1838 88.3907 12.6822C88.5573 12.9435 88.6458 13.247 88.6458 13.5568C88.6458 13.8667 88.5573 14.1702 88.3907 14.4315C88.2426 14.6884 88.0317 14.9034 87.7777 15.0564C87.5238 15.2094 87.2351 15.2953 86.9388 15.3061C86.2547 15.2481 85.5976 15.013 85.0321 14.6239L84.481 14.309L83.309 16.3907L82.6181 15.9971L85.6181 10.7493ZM85.4781 14.0729C85.8812 14.3651 86.3556 14.5433 86.8513 14.5889C87.0395 14.5857 87.2233 14.5324 87.384 14.4345C87.5447 14.3366 87.6764 14.1976 87.7655 14.0319C87.8546 13.8662 87.8979 13.6797 87.891 13.4916C87.884 13.3036 87.827 13.1208 87.7259 12.9621C87.4331 12.5873 87.0554 12.2875 86.6239 12.0875L86.0029 11.7289L84.8396 13.7143L85.4781 14.0729Z" fill="white"/>
    <path d="M91.8367 14.5364L92.4577 14.9738L90.9621 21.3498L90.2711 20.8601L90.691 19.1108L88.4694 17.4927L86.9388 18.4985L86.274 18.0262L91.8367 14.5364ZM89.1341 17.1079L90.8834 18.3673L91.207 17.0641C91.3294 16.5568 91.4694 16.0146 91.6006 15.5073C91.1633 15.8047 90.7084 16.0962 90.2361 16.3819L89.1341 17.1079Z" fill="white"/>
    <path d="M95.4577 17.2915L96.6822 18.3761C97.1391 18.7339 97.4998 19.1998 97.7318 19.7318C97.8366 20.0009 97.8627 20.2944 97.8069 20.5778C97.7511 20.8612 97.6159 21.123 97.4169 21.3324C97.2353 21.5511 96.9981 21.7168 96.7304 21.8122C96.4626 21.9077 96.174 21.9292 95.895 21.8746C95.6496 21.8289 95.4151 21.7369 95.2041 21.6035L94.8717 24.8746L94.1633 24.2361L94.5131 21.0787L93.7434 20.3965L91.9942 22.3207L91.4082 21.7959L95.4577 17.2915ZM94.9417 20.5889C95.2238 20.8956 95.5986 21.1014 96.0087 21.1749C96.1531 21.1904 96.299 21.1698 96.4334 21.1148C96.5678 21.0598 96.6863 20.9723 96.7784 20.8601C96.8992 20.7332 96.9828 20.5754 97.0198 20.4041C97.0568 20.2329 97.0459 20.0547 96.9883 19.8892C96.7853 19.4838 96.4848 19.1352 96.1137 18.8746L95.5277 18.3499L94.137 19.9067L94.9417 20.5889Z" fill="white"/>
    <path d="M100.321 22.9504L98.9563 21.4461L99.4898 20.965L102.743 24.5598L102.21 25.0408L100.854 23.5364L96.9096 27.1137L96.3761 26.5277L100.321 22.9504Z" fill="white"/>
    <path d="M102.009 29.0816L103.329 25.2507L103.863 25.9942L103.268 27.691L102.805 29.0029L104.204 28.9592H105.953L106.469 29.6676L102.437 29.7376L100.224 31.3469L99.7609 30.7085L102.009 29.0816Z" fill="white"/>
    <path d="M109.207 34.3644L109.548 35.0466L105.315 40.0146L104.93 39.2624L106.12 37.8892L104.878 35.4665L103.067 35.6326L102.7 34.9067L109.207 34.3644ZM105.621 35.3965L106.609 37.3294L107.484 36.3236L108.542 35.1254C108.017 35.1837 107.475 35.2361 106.915 35.2828L105.621 35.3965Z" fill="white"/>
    <path d="M108.149 39.4636L111.149 38.3528L111.42 39.0875L108.507 40.1808C107.992 40.3182 107.517 40.5794 107.125 40.9417C106.968 41.1728 106.868 41.4384 106.834 41.7162C106.8 41.9939 106.834 42.2757 106.931 42.5379C107.029 42.8 107.188 43.035 107.395 43.2229C107.603 43.4109 107.852 43.5464 108.122 43.6181C108.642 43.6278 109.157 43.517 109.627 43.2945L112.574 42.1924L112.845 42.9184L109.933 44.0029C109.283 44.3152 108.558 44.4365 107.843 44.3528C107.465 44.2407 107.121 44.0366 106.841 43.7588C106.562 43.4809 106.356 43.1381 106.242 42.7609C106.084 42.4039 106.017 42.013 106.047 41.6236C106.078 41.2343 106.205 40.8586 106.417 40.5306C106.884 40.0212 107.484 39.6517 108.149 39.4636Z" fill="white"/>
    <path d="M113.414 44.7726L113.79 46.3557C113.996 47.07 113.996 47.8279 113.79 48.5423C113.636 49.017 113.359 49.4426 112.987 49.7759C112.615 50.1092 112.162 50.3383 111.673 50.4402C111.22 50.5575 110.745 50.5638 110.288 50.4588C109.831 50.3537 109.406 50.1404 109.05 49.8367C108.43 49.2201 108.02 48.4247 107.878 47.5627L107.58 46.1807L113.414 44.7726ZM108.603 47.5539C108.708 48.1705 108.987 48.7442 109.408 49.207C109.687 49.4501 110.02 49.6231 110.379 49.7117C110.739 49.8003 111.114 49.8019 111.474 49.7164C111.834 49.6309 112.169 49.4607 112.45 49.22C112.731 48.9793 112.95 48.675 113.09 48.3323C113.278 47.7256 113.278 47.0762 113.09 46.4694L112.915 45.7172L108.455 46.7842L108.603 47.5539Z" fill="white"/>
    <path d="M114.787 51.2274L114.91 52.0146L108.936 52.8892L108.813 52.102L114.787 51.2274Z" fill="white"/>
    <path d="M114.577 55.3557L114.402 53.3528L115.12 53.2915L115.496 58.1283L114.778 58.1807L114.621 56.1603L109.321 56.5714L109.259 55.7755L114.577 55.3557Z" fill="white"/>
    <path d="M5.8863 69.0962C5.6072 69.6936 5.52158 70.3632 5.6414 71.0117C5.78134 71.7201 6.20117 72.1487 6.8484 72.0175C7.49563 71.8863 7.60058 71.1428 7.66181 70.3207C7.72303 69.4985 7.91545 68.5714 8.99125 68.344C10.0671 68.1166 10.8017 68.7726 11.0292 69.9271C11.1532 70.5084 11.12 71.1122 10.9329 71.6764L10.1195 71.8426C10.3572 71.2643 10.4269 70.6307 10.3207 70.0146C10.1808 69.3498 9.80466 68.9475 9.20117 69.07C8.45773 69.2187 8.47522 69.9446 8.42274 70.688C8.34402 71.5627 8.17784 72.516 7.04956 72.7434C6.80061 72.7985 6.54263 72.7985 6.29368 72.7434C6.04472 72.6884 5.81082 72.5795 5.60836 72.4245C5.40589 72.2696 5.23974 72.0722 5.12156 71.8463C5.00338 71.6203 4.93602 71.3713 4.9242 71.1166C4.80178 70.4908 4.83786 69.8444 5.02915 69.2361L5.8863 69.0962Z" fill="white"/>
    <path d="M11.5627 72.7784L12.5598 76.0933L11.8775 76.3032L11.1079 73.6793L9.3586 74.2041L10.0408 76.4694L9.37609 76.6705L8.70262 74.4052L6.70845 75L7.50437 77.6239L6.81341 77.8251L5.77259 74.5102L11.5627 72.7784Z" fill="white"/>
    <path d="M13.9942 79.5918C14.2216 80.1451 14.3087 80.746 14.2478 81.3411L13.4431 81.6735C13.5903 81.074 13.5444 80.4435 13.312 79.8717C13.1985 79.5801 13.0267 79.3148 12.8071 79.0919C12.5876 78.8689 12.3249 78.6932 12.035 78.5753C11.7452 78.4574 11.4344 78.3999 11.1216 78.4062C10.8088 78.4126 10.5005 78.4827 10.2157 78.6122C9.91899 78.7246 9.64859 78.8969 9.4214 79.1184C9.19421 79.3399 9.01512 79.6059 8.8953 79.8997C8.77547 80.1935 8.71749 80.5089 8.72497 80.8261C8.73245 81.1433 8.80523 81.4556 8.93877 81.7434C9.18551 82.3247 9.62803 82.8013 10.1895 83.0904L9.37609 83.4315C8.88194 83.051 8.50092 82.543 8.27405 81.9621C8.09725 81.5852 7.99989 81.1759 7.98803 80.7597C7.97617 80.3435 8.05006 79.9294 8.20511 79.543C8.36016 79.1566 8.59305 78.8062 8.88929 78.5137C9.18553 78.2212 9.5388 77.9927 9.92711 77.8426C10.3078 77.6793 10.7177 77.5952 11.1318 77.5955C11.546 77.5957 11.9558 77.6802 12.3363 77.8438C12.7168 78.0075 13.0599 78.2468 13.345 78.5474C13.63 78.8479 13.8509 79.2032 13.9942 79.5918Z" fill="white"/>
    <path d="M12.1749 83.5714L14.965 82.0233L15.3498 82.7143L12.6297 84.2186C12.1385 84.4331 11.7064 84.7632 11.3703 85.1807C11.2233 85.424 11.15 85.7047 11.1593 85.9888C11.1686 86.2729 11.2601 86.5482 11.4227 86.7813C11.5354 87.0387 11.72 87.2581 11.9542 87.4132C12.1885 87.5684 12.4625 87.6526 12.7434 87.656C13.2615 87.5955 13.7569 87.4093 14.1866 87.1137L16.9417 85.6006L17.309 86.2653L14.5977 87.7697C14.0021 88.1797 13.3001 88.4077 12.5773 88.4256C12.1888 88.3718 11.8199 88.2221 11.5038 87.99C11.1877 87.7579 10.9344 87.4507 10.7668 87.0962C10.5546 86.7679 10.4289 86.3912 10.4013 86.0013C10.3738 85.6113 10.4454 85.2207 10.6093 84.8659C10.9981 84.2948 11.541 83.8459 12.1749 83.5714Z" fill="white"/>
    <path d="M17.93 87.2011L18.8746 88.5394C19.2428 88.9862 19.4925 89.5186 19.6006 90.0874C19.6438 90.3742 19.6042 90.6673 19.4864 90.9322C19.3686 91.1972 19.1776 91.423 18.9359 91.5831C18.7082 91.7541 18.439 91.8612 18.1561 91.8935C17.8733 91.9258 17.5869 91.882 17.3265 91.7667C17.0979 91.6711 16.8922 91.528 16.723 91.3469L15.6647 94.4606L15.105 93.6734L16.1545 90.6735L15.5685 89.7988L13.4519 91.2944L12.9971 90.6472L17.93 87.2011ZM16.688 90.3061C16.8844 90.6622 17.1915 90.9447 17.5627 91.1108C17.7005 91.1577 17.8479 91.1695 17.9915 91.1451C18.1351 91.1207 18.2703 91.0608 18.3848 90.9708C18.5281 90.8773 18.6429 90.7464 18.7169 90.5922C18.791 90.438 18.8213 90.2664 18.8047 90.0962C18.7116 89.6623 18.51 89.259 18.2187 88.9242L17.7638 88.277L16.0146 89.4839L16.688 90.3061Z" fill="white"/>
    <path d="M21.0612 91.4606L21.5685 92.0729L16.898 95.9038L16.3994 95.2915L21.0612 91.4606Z" fill="white"/>
    <path d="M22.8892 94.653L21.4898 93.1749L22.0146 92.6851L25.3644 96.2099L24.8396 96.7084L23.449 95.2303L19.5831 98.895L19.0408 98.3178L22.8892 94.653Z" fill="white"/>
    <path d="M25.0583 100.338L25.4344 96.3061L26.1341 96.9096L25.9592 98.6589C25.9067 99.1137 25.863 99.5335 25.8017 100.041C26.2391 99.9096 26.6764 99.7872 27.1487 99.6647L28.898 99.2099L29.5714 99.7872L25.6705 100.793L23.9213 102.875L23.3178 102.359L25.0583 100.338Z" fill="white"/>
    <path d="M32.2128 102.499L30.5073 101.396L30.9009 100.793L34.9767 103.417L34.5918 104.02L32.8863 102.918L29.9913 107.396L29.3265 106.968L32.2128 102.499Z" fill="white"/>
    <path d="M35.5714 103.741L37.0321 104.484C37.5689 104.703 38.0392 105.059 38.3965 105.516C38.5682 105.75 38.6693 106.029 38.6879 106.318C38.7065 106.608 38.6418 106.897 38.5015 107.152C38.3761 107.401 38.1872 107.613 37.9539 107.767C37.7205 107.92 37.4509 108.01 37.172 108.026C36.9237 108.05 36.6732 108.02 36.4373 107.939L36.9621 111.192L36.0875 110.755L35.6152 107.615L34.6968 107.143L33.5248 109.452L32.8163 109.093L35.5714 103.741ZM35.9213 107.064C36.2704 107.292 36.687 107.394 37.102 107.353C37.2464 107.33 37.3828 107.272 37.4989 107.184C37.6151 107.095 37.7071 106.979 37.7668 106.845C37.8513 106.692 37.8911 106.518 37.8819 106.344C37.8726 106.169 37.8145 106.001 37.7143 105.857C37.4287 105.517 37.0615 105.256 36.6472 105.096L35.9475 104.738L34.9854 106.601L35.9213 107.064Z" fill="white"/>
    <path d="M39.0437 109.032L40.1633 106.032L40.9067 106.312L39.8222 109.233C39.594 109.714 39.4803 110.241 39.4898 110.773C39.5405 111.053 39.6704 111.313 39.8641 111.523C40.0578 111.732 40.3073 111.881 40.5831 111.953C40.8361 112.08 41.1208 112.131 41.4021 112.098C41.6834 112.065 41.949 111.951 42.1662 111.77C42.5189 111.387 42.774 110.925 42.9096 110.423L44.0117 107.475L44.7376 107.738L43.6443 110.65C43.4597 111.35 43.077 111.982 42.5423 112.469C42.2108 112.681 41.8318 112.808 41.4394 112.837C41.047 112.866 40.6535 112.797 40.2945 112.636C39.9246 112.527 39.5877 112.327 39.3144 112.056C39.041 111.784 38.8397 111.448 38.7289 111.079C38.6318 110.38 38.7413 109.669 39.0437 109.032Z" fill="white"/>
    <path d="M44.4402 112.636C44.8488 113.154 45.4128 113.528 46.0496 113.703C46.7493 113.886 47.3178 113.703 47.484 113.055C47.6501 112.408 47.0291 111.953 46.3557 111.577C45.6822 111.201 44.8775 110.58 45.1574 109.513C45.2171 109.276 45.3278 109.054 45.4817 108.864C45.6356 108.673 45.8291 108.518 46.0488 108.41C46.2685 108.302 46.5091 108.243 46.7539 108.237C46.9987 108.231 47.2418 108.279 47.4665 108.376C48.0583 108.52 48.5997 108.822 49.0321 109.251L48.8221 110.064C48.4052 109.579 47.8496 109.235 47.2303 109.076C46.5743 108.901 46.0408 109.076 45.8834 109.662C45.6909 110.388 46.3382 110.685 47.0029 111.07C47.6676 111.455 48.5335 112.093 48.2449 113.204C48.1842 113.451 48.0706 113.681 47.912 113.879C47.7534 114.077 47.5535 114.238 47.3264 114.352C47.0992 114.465 46.8501 114.527 46.5964 114.534C46.3427 114.542 46.0904 114.494 45.8571 114.394C45.2429 114.248 44.6765 113.947 44.2128 113.519L44.4402 112.636Z" fill="white"/>
    <path d="M51.6035 110.082L49.5918 109.758L49.7055 109.05L54.4985 109.81L54.3848 110.519L52.3819 110.204L51.5073 115.452L50.7201 115.321L51.6035 110.082Z" fill="white"/>
    <path d="M59.0117 110.047H59.7726L62.1691 116.169H61.2945L60.6472 114.472L57.9271 114.429L57.2187 116.099H56.414L59.0117 110.047ZM58.2332 113.703H60.4023L59.93 112.443C59.7463 111.962 59.5539 111.437 59.379 110.948C59.1866 111.437 58.9767 111.936 58.7668 112.452L58.2332 113.703Z" fill="white"/>
    <path d="M63.07 114.787C63.6299 115.133 64.2853 115.293 64.9417 115.242C65.6589 115.181 66.1399 114.813 66.0787 114.157C66.0175 113.501 65.2915 113.283 64.4869 113.16C63.6822 113.038 62.7376 112.714 62.6676 111.612C62.5977 110.51 63.2886 109.863 64.4169 109.767C65.0162 109.705 65.6209 109.808 66.1662 110.064L66.2449 110.939C65.7125 110.64 65.1052 110.5 64.4956 110.536C63.8221 110.598 63.3673 110.93 63.4286 111.542C63.4898 112.286 64.1982 112.356 64.9504 112.496C65.8251 112.671 66.6997 112.942 66.8396 114.087C66.9796 115.233 66.1924 115.907 64.9854 116.012C64.3505 116.069 63.7117 115.96 63.1312 115.697L63.07 114.787Z" fill="white"/>
    <path d="M68.0117 114.297C68.6027 114.587 69.2691 114.684 69.9184 114.577C70.6268 114.455 71.0729 114.044 70.9504 113.388C70.828 112.732 70.0758 112.627 69.2711 112.513C68.4665 112.399 67.5219 112.233 67.3207 111.149C67.1195 110.064 67.7843 109.399 68.9475 109.146C69.5319 109.033 70.1357 109.079 70.6968 109.277L70.8455 110.099C70.2755 109.843 69.6427 109.761 69.0262 109.863C68.3528 109.977 67.9417 110.353 68.0466 110.956C68.1866 111.7 68.9213 111.7 69.656 111.77C70.5306 111.866 71.4752 112.05 71.6851 113.187C71.895 114.324 71.1953 115.05 70.0058 115.268C69.3795 115.38 68.7348 115.329 68.1341 115.12L68.0117 114.297Z" fill="white"/>
    <path d="M72.5947 111.813L71.7201 108.743L72.481 108.525L73.3557 111.507C73.4649 112.03 73.6923 112.521 74.0204 112.942C74.229 113.136 74.4885 113.267 74.7688 113.32C75.0491 113.373 75.3386 113.345 75.6035 113.239C75.881 113.188 76.1377 113.057 76.3426 112.863C76.5474 112.669 76.6917 112.42 76.758 112.146C76.8116 111.626 76.7396 111.101 76.5481 110.615L75.6735 107.598L76.4082 107.379L77.2828 110.362C77.5541 111.033 77.621 111.769 77.4752 112.478C77.3386 112.846 77.1115 113.173 76.8149 113.43C76.5184 113.687 76.1619 113.865 75.7784 113.948C75.4131 114.084 75.019 114.126 74.6332 114.067C74.2475 114.009 73.8831 113.854 73.5743 113.615C73.0834 113.12 72.7436 112.495 72.5947 111.813Z" fill="white"/>
    <path d="M77.4052 106.994L78.9184 106.364C79.4343 106.099 80.0092 105.97 80.5889 105.988C80.8782 106.01 81.1554 106.113 81.3879 106.287C81.6203 106.46 81.7983 106.697 81.9009 106.968C82.0186 107.227 82.0653 107.512 82.0361 107.795C82.0069 108.078 81.9028 108.348 81.7347 108.577C81.5846 108.774 81.401 108.943 81.1924 109.076L84 110.825L83.1254 111.201L80.4227 109.522L79.4781 109.915L80.4665 112.259L79.7318 112.566L77.4052 106.994ZM80.1691 108.875C80.567 108.753 80.9141 108.504 81.1574 108.166C81.2342 108.033 81.2746 107.882 81.2746 107.729C81.2746 107.575 81.2342 107.424 81.1574 107.292C81.1033 107.124 81.0001 106.977 80.8612 106.87C80.7224 106.762 80.5544 106.699 80.379 106.688C79.9338 106.685 79.4949 106.793 79.102 107.003L78.3761 107.3L79.1807 109.224L80.1691 108.875Z" fill="white"/>
    <path d="M83.8338 104.082L84.4985 103.714L89.6064 107.79L88.8542 108.201L87.4548 107.055L85.0758 108.367L85.2857 110.178L84.5773 110.563L83.8338 104.082ZM84.9796 107.58L86.8775 106.531L85.8455 105.656C85.4431 105.324 84.9708 104.965 84.621 104.624C84.6997 105.149 84.7697 105.691 84.8309 106.242L84.9796 107.58Z" fill="white"/>
    <path d="M90.6297 107.073L87.1312 102.166L87.7434 101.729L91.7493 102.98C92.3003 103.146 92.8688 103.329 93.4198 103.513C93.1049 103.093 92.7463 102.638 92.4052 102.122L90.656 99.656L91.2857 99.2099L94.7842 104.117L94.172 104.554L90.1574 103.312C89.6064 103.137 89.0466 102.962 88.4869 102.77C88.8017 103.189 89.1691 103.644 89.5102 104.16L91.2595 106.627L90.6297 107.073Z" fill="white"/>
    <path d="M94.1458 96.4898C94.5802 96.0869 95.1099 95.801 95.6851 95.6589L96.2711 96.2974C95.6619 96.363 95.0893 96.6203 94.6356 97.0321C94.1716 97.4624 93.8976 98.0593 93.8738 98.6917C93.85 99.324 94.0784 99.9398 94.5087 100.404C94.939 100.868 95.536 101.142 96.1683 101.165C96.8006 101.189 97.4165 100.961 97.8805 100.531C98.3577 100.114 98.6683 99.5397 98.7551 98.9125L99.3498 99.5598C99.1647 100.157 98.8163 100.69 98.344 101.099C98.0431 101.375 97.6908 101.588 97.3073 101.728C96.9238 101.867 96.5165 101.93 96.1088 101.912C95.2854 101.876 94.5101 101.514 93.9533 100.907C93.3966 100.299 93.1041 99.4949 93.1402 98.6715C93.1763 97.8481 93.538 97.0727 94.1458 96.516V96.4898Z" fill="white"/>
    <path d="M96.1399 94.6705L98.4752 92.0466L99.0087 92.5277L97.207 94.5306L98.5714 95.7551L100.146 94.0058L100.662 94.4694L99.0875 96.2187L100.627 97.6093L102.481 95.5539L103.015 96.0262L100.636 98.6501L96.1399 94.6705Z" fill="white"/>
    <path d="M104.956 87.2536L106.399 89.0904L108.306 88.723L107.781 89.5102L106.784 89.7026C106.894 90.0284 106.921 90.3765 106.863 90.7155C106.805 91.0544 106.664 91.3736 106.452 91.6443C106.25 91.9795 105.942 92.2374 105.576 92.3767C105.211 92.5161 104.809 92.5289 104.435 92.413C104.062 92.2972 103.738 92.0594 103.515 91.7377C103.292 91.4161 103.184 91.029 103.207 90.6385V90.4111H102.945C102.713 90.4755 102.471 90.4917 102.234 90.4586C101.996 90.4255 101.767 90.3438 101.563 90.2187C101.233 89.983 101.009 89.6275 100.939 89.2285C100.868 88.8296 100.957 88.4189 101.186 88.0847C101.415 87.7505 101.766 87.5193 102.163 87.4408C102.561 87.3622 102.973 87.4426 103.312 87.6647C103.533 87.827 103.708 88.0434 103.822 88.293C103.935 88.5426 103.982 88.8172 103.959 89.0904V89.5014L105.612 89.1866L104.528 87.8309L104.956 87.2536ZM102.91 89.7638L103.277 89.6939V89.2128C103.296 89.0469 103.271 88.8791 103.205 88.7257C103.139 88.5724 103.034 88.4388 102.901 88.3382C102.816 88.2804 102.72 88.241 102.62 88.2225C102.519 88.2039 102.415 88.2067 102.316 88.2306C102.216 88.2545 102.122 88.299 102.041 88.3612C101.959 88.4234 101.892 88.502 101.843 88.5918C101.78 88.6704 101.735 88.7611 101.71 88.8582C101.685 88.9553 101.681 89.0565 101.697 89.1554C101.713 89.2543 101.751 89.3487 101.806 89.4324C101.861 89.5161 101.933 89.5873 102.017 89.6414C102.145 89.7172 102.287 89.7671 102.434 89.7881C102.581 89.8091 102.731 89.8009 102.875 89.7638H102.91ZM106.032 89.8775L103.907 90.2886V90.656C103.827 90.925 103.857 91.2149 103.99 91.4618C104.124 91.7086 104.35 91.8923 104.62 91.9723C104.889 92.0523 105.178 92.0222 105.425 91.8885C105.672 91.7548 105.856 91.5285 105.936 91.2595C106.077 91.0589 106.157 90.8223 106.168 90.5774C106.179 90.3326 106.12 90.0898 105.997 89.8775H106.032Z" fill="white"/>
    <path d="M104.388 83.2478L105.087 81.7697C105.294 81.2276 105.637 80.7484 106.085 80.379C106.314 80.2021 106.588 80.0942 106.876 80.0679C107.164 80.0415 107.454 80.0979 107.711 80.2303C107.972 80.3435 108.197 80.5239 108.364 80.7529C108.532 80.9819 108.636 81.2513 108.665 81.5335C108.69 81.7806 108.666 82.0303 108.595 82.2682L111.822 81.6647L111.411 82.5394L108.289 83.0991L107.843 84.0262L110.204 85.1195L109.863 85.8367L104.388 83.2478ZM107.703 82.8105C107.914 82.4521 108.003 82.0345 107.956 81.621C107.93 81.478 107.868 81.3439 107.776 81.2309C107.684 81.1178 107.566 81.0295 107.431 80.9737C107.278 80.8853 107.102 80.8455 106.925 80.8595C106.749 80.8736 106.581 80.9409 106.443 81.0525C106.114 81.3458 105.862 81.7151 105.708 82.1283L105.376 82.8455L107.257 83.7201L107.703 82.8105Z" fill="white"/>
    <path d="M106.557 78.4373L106.837 77.7026L112.469 79.8805L112.189 80.6239L106.557 78.4373Z" fill="white"/>
    <path d="M111.822 78.0962C112.353 77.7093 112.748 77.1643 112.95 76.5393C113.169 75.8571 113.012 75.2711 112.382 75.0787C111.752 74.8863 111.297 75.481 110.851 76.172C110.405 76.863 109.784 77.5977 108.735 77.2653C108.501 77.1938 108.285 77.0725 108.102 76.9096C107.919 76.7468 107.773 76.5463 107.675 76.322C107.577 76.0976 107.529 75.8547 107.534 75.6099C107.538 75.3651 107.596 75.1242 107.703 74.9038C107.875 74.3207 108.201 73.7949 108.647 73.3819L109.443 73.6268C108.955 74.0162 108.591 74.5388 108.394 75.1312C108.192 75.7784 108.332 76.3207 108.918 76.5044C109.504 76.688 109.959 76.0933 110.379 75.4548C110.799 74.8163 111.472 73.9679 112.574 74.3178C112.818 74.3908 113.043 74.516 113.233 74.6847C113.423 74.8534 113.574 75.0616 113.676 75.2947C113.778 75.5279 113.827 75.7803 113.821 76.0346C113.815 76.2888 113.754 76.5387 113.641 76.7667C113.453 77.3729 113.113 77.9208 112.653 78.3586L111.822 78.0962Z" fill="white"/>
    <path d="M108.603 72.1837L108.77 71.4052L111.446 71.965L109.329 68.8076L109.531 67.8455L111.717 71.0729L115.452 68.8513L115.242 69.8659L111.612 71.9912L114.665 72.6297L114.499 73.3994L108.603 72.1837Z" fill="white"/>
    <path d="M22.9854 66.5248H24.2449V74.9563H28.7668V76.0933H22.9854V66.5248Z" fill="#132B50"/>
    <path d="M30.3499 66.5248H35.8601V67.6618H31.6006V70.5656H35.344V71.6589H31.6006V74.9563H35.9738V76.0933H30.3499V66.5248Z" fill="#132B50"/>
    <path d="M36.7347 66.5248H38.0816L40.1108 71.8863C40.4344 72.7609 40.7318 73.5393 41.0554 74.4227C41.3703 73.5481 41.6851 72.6735 42.0175 71.8513L44.0641 66.5248H45.3498L41.7289 76.0933H40.4431L36.7347 66.5248Z" fill="#132B50"/>
    <path d="M46.6705 66.5248H52.1895V67.6618H47.9213V70.5656H51.6647V71.6589H47.9213V74.9563H52.2945V76.0933H46.6705V66.5248Z" fill="#132B50"/>
    <path d="M54.0787 66.5248H55.3382V74.9563H59.8601V76.0933H54.0787V66.5248Z" fill="#132B50"/>
    <path d="M66.5685 67.6618H63.3586V66.5248H71.0379V67.6618H67.828V76.0933H66.5685V67.6618Z" fill="#132B50"/>
    <path d="M71.5889 66.5248H72.9271L74.5277 71.7201L75.2799 74.2128C75.516 73.3994 75.7784 72.551 76.0408 71.7026L77.6676 66.5423H78.5947L80.2478 71.7201C80.5102 72.5947 80.7638 73.3732 81.0087 74.2128C81.2449 73.3994 81.516 72.5248 81.7609 71.7026L83.3615 66.5423H84.6297L81.6822 76.0933H80.3528L78.8222 71.239C78.5773 70.4781 78.3586 69.7434 78.1399 69.0175C77.93 69.7434 77.7114 70.4956 77.4665 71.2478L75.9271 76.0933H74.5627L71.5889 66.5248Z" fill="#132B50"/>
    <path d="M90.0875 66.3761C91.066 66.3622 92.0265 66.6397 92.8469 67.1732C93.6672 67.7067 94.3104 68.4722 94.6945 69.3723C95.0786 70.2724 95.1863 71.2663 95.004 72.2278C94.8216 73.1893 94.3574 74.0748 93.6704 74.7717C92.9834 75.4686 92.1046 75.9454 91.1458 76.1414C90.1871 76.3375 89.1917 76.244 88.2862 75.8728C87.3807 75.5016 86.6061 74.8694 86.0609 74.0568C85.5157 73.2441 85.2246 72.2876 85.2245 71.309C85.208 70.6626 85.322 70.0196 85.5596 69.4182C85.7973 68.8169 86.1537 68.2696 86.6077 67.8091C87.0616 67.3487 87.6037 66.9844 88.2016 66.7382C88.7995 66.492 89.4409 66.3688 90.0875 66.3761ZM90.0875 75.07C90.8393 75.1014 91.5834 74.9071 92.2238 74.512C92.8643 74.117 93.3719 73.5393 93.6813 72.8533C93.9906 72.1673 94.0876 71.4045 93.9597 70.6629C93.8318 69.9213 93.4849 69.235 92.9636 68.6923C92.4424 68.1496 91.7706 67.7753 91.0348 67.6176C90.299 67.4599 89.5328 67.526 88.8349 67.8075C88.1371 68.089 87.5394 68.5728 87.1188 69.1969C86.6983 69.8209 86.4741 70.5565 86.4752 71.309C86.4552 71.7958 86.5338 72.2815 86.7063 72.7371C86.8788 73.1926 87.1417 73.6086 87.4792 73.96C87.8166 74.3113 88.2216 74.5907 88.6699 74.7815C89.1181 74.9723 89.6003 75.0704 90.0875 75.07Z" fill="#132B50"/>
</svg>
