<svg width="238" height="72" viewBox="0 0 238 72" fill="none" xmlns="http://www.w3.org/2000/svg">
    <path d="M116.684 32.6316C117.316 33.0526 118.263 33.3684 119.211 33.3684C120.684 33.3684 121.527 32.6316 121.527 31.4737C121.527 30.4211 120.895 29.8947 119.421 29.2632C117.632 28.6316 116.474 27.6842 116.474 26.1053C116.474 24.4211 117.948 23.1579 120.053 23.1579C121.211 23.1579 121.948 23.3684 122.474 23.6842L122.053 24.8421C121.737 24.6316 121 24.3158 119.948 24.3158C118.474 24.3158 117.842 25.2632 117.842 26C117.842 27.0526 118.474 27.5789 120.053 28.1053C121.948 28.8421 122.79 29.6842 122.79 31.3684C122.79 33.0526 121.527 34.5263 119 34.5263C117.948 34.5263 116.79 34.2105 116.158 33.7895L116.684 32.6316ZM125.737 30.6316C125.737 32.5263 127 33.3684 128.474 33.3684C129.527 33.3684 130.158 33.1579 130.684 32.9474L130.895 34C130.369 34.2105 129.527 34.5263 128.263 34.5263C125.842 34.5263 124.369 32.9474 124.369 30.5263C124.369 28.1053 125.842 26.2105 128.053 26.2105C130.579 26.2105 131.316 28.5263 131.316 29.8947C131.316 30.2105 131.316 30.4211 131.316 30.6316H125.737ZM129.948 29.6842C129.948 28.7368 129.527 27.3684 127.948 27.3684C126.474 27.3684 125.842 28.7368 125.737 29.6842H129.948ZM138.79 34.1053C138.369 34.3158 137.527 34.5263 136.474 34.5263C134.053 34.5263 132.579 32.9474 132.579 30.5263C132.579 28.1053 134.263 26.3158 136.79 26.3158C137.632 26.3158 138.369 26.5263 138.79 26.7368L138.474 27.7895C138.158 27.5789 137.632 27.3684 136.79 27.3684C135 27.3684 133.948 28.7368 133.948 30.4211C133.948 32.2105 135.106 33.3684 136.684 33.3684C137.527 33.3684 138.053 33.1579 138.474 32.9474L138.79 34.1053ZM147 32.2105C147 33.0526 147 33.7895 147.106 34.3158H145.842L145.737 33.0526C145.421 33.6842 144.474 34.5263 143.106 34.5263C141.842 34.5263 140.369 33.7895 140.369 31.0526V26.4211H141.842V30.7368C141.842 32.2105 142.369 33.2632 143.632 33.2632C144.579 33.2632 145.316 32.6316 145.527 31.8947C145.632 31.6842 145.632 31.4737 145.632 31.1579V26.3158H147.106V32.2105M149.421 28.9474C149.421 28 149.421 27.2632 149.316 26.5263H150.579L150.684 28.1053C151 27.0526 151.948 26.4211 152.895 26.4211C153 26.4211 153.211 26.4211 153.316 26.4211V27.7895C153.106 27.7895 153 27.7895 152.79 27.7895C151.737 27.7895 151.106 28.5263 150.895 29.5789C150.895 29.7895 150.895 30 150.895 30.3158V34.5263H149.421V28.9474ZM155.527 25.0526C155 25.0526 154.579 24.6316 154.579 24.1053C154.579 23.5789 155 23.1579 155.527 23.1579C156.053 23.1579 156.474 23.5789 156.474 24.1053C156.474 24.6316 156.158 25.0526 155.527 25.0526ZM154.895 34.4211V26.5263H156.369V34.4211H154.895ZM160.369 24.6316V26.5263H162.474V27.5789H160.369V31.8947C160.369 32.8421 160.684 33.4737 161.421 33.4737C161.842 33.4737 162.053 33.4737 162.263 33.3684L162.369 34.4211C162.053 34.5263 161.632 34.6316 161.106 34.6316C160.474 34.6316 159.948 34.4211 159.527 34C159.105 33.5789 159 32.8421 159 31.8947V27.5789H157.737V26.5263H159V25.0526L160.369 24.6316ZM164.79 26.5263L166.474 31.1579C166.684 31.6842 166.895 32.3158 167 32.7368C167.105 32.3158 167.316 31.6842 167.527 31.0526L169.106 26.4211H170.579L168.369 32.1053C167.316 34.8421 166.684 36.2105 165.632 37.0526C164.895 37.6842 164.263 37.8947 163.842 38L163.527 36.8421C163.842 36.7368 164.369 36.5263 164.79 36.1053C165.211 35.7895 165.632 35.2632 165.948 34.5263C166.053 34.4211 166.053 34.3158 166.053 34.2105C166.053 34.1053 166.053 34 165.948 33.8947L163 26.6316H164.79M116.684 48.9474C117.316 49.3684 118.263 49.6842 119.211 49.6842C120.684 49.6842 121.527 48.9474 121.527 47.7895C121.527 46.7368 120.895 46.2105 119.421 45.5789C117.632 44.9474 116.474 44 116.474 42.4211C116.474 40.7368 117.948 39.4737 120.053 39.4737C121.211 39.4737 121.948 39.6842 122.474 40L122.053 41.1579C121.737 40.9474 121 40.6316 119.948 40.6316C118.474 40.6316 117.842 41.5789 117.842 42.3158C117.842 43.3684 118.474 43.8947 120.053 44.4211C121.948 45.1579 122.79 46 122.79 47.6842C122.79 49.3684 121.527 50.8421 119 50.8421C117.948 50.8421 116.79 50.5263 116.158 50.1053L116.684 48.9474ZM126.474 40.9474V42.8421H128.579V43.8947H126.474V48.1053C126.474 49.0526 126.79 49.6842 127.527 49.6842C127.948 49.6842 128.158 49.6842 128.369 49.5789L128.474 50.6316C128.158 50.7368 127.737 50.8421 127.211 50.8421C126.579 50.8421 126.053 50.6316 125.632 50.2105C125.211 49.7895 125.106 49.0526 125.106 48.1053V43.7895H123.842V42.7368H125.106V41.2632L126.474 40.9474ZM135.737 48.8421C135.737 49.5789 135.737 50.2105 135.842 50.7368H134.579L134.474 49.7895C134.053 50.4211 133.211 50.9474 132.053 50.9474C130.474 50.9474 129.632 49.7895 129.632 48.6316C129.632 46.7368 131.316 45.6842 134.369 45.6842V45.4737C134.369 44.8421 134.158 43.5789 132.579 43.6842C131.842 43.6842 131.106 43.8947 130.474 44.3158L130.158 43.3684C130.79 42.9474 131.737 42.7368 132.79 42.7368C135.211 42.7368 135.842 44.4211 135.842 46V48.8421M134.369 46.7368C132.79 46.7368 131 46.9474 131 48.5263C131 49.4737 131.632 49.8947 132.369 49.8947C133.421 49.8947 134.053 49.2632 134.263 48.5263C134.263 48.4211 134.369 48.2105 134.369 48.1053V46.7368ZM138.053 44.9474C138.053 44.1053 138.053 43.4737 137.948 42.8421H139.211L139.316 44.1053C139.737 43.3684 140.579 42.6316 141.948 42.6316C143 42.6316 144.79 43.2632 144.79 46V50.7368H143.316V46.2105C143.316 44.9474 142.79 43.8947 141.527 43.8947C140.579 43.8947 139.842 44.5263 139.632 45.3684C139.527 45.5789 139.527 45.7895 139.527 46V50.7368H138.053V44.9474ZM153.948 39.1579V48.7368C153.948 49.4737 153.948 50.2105 154.053 50.7368H152.79L152.684 49.3684C152.263 50.2105 151.316 50.9474 150.053 50.9474C148.158 50.9474 146.684 49.3684 146.684 46.9474C146.684 44.3158 148.369 42.7368 150.263 42.7368C151.527 42.7368 152.263 43.2632 152.684 43.8947V39.1579H153.948ZM152.474 46C152.474 45.7895 152.474 45.5789 152.369 45.3684C152.158 44.4211 151.421 43.6842 150.263 43.6842C148.79 43.6842 147.842 44.9474 147.842 46.7368C147.842 48.3158 148.684 49.6842 150.158 49.6842C151.106 49.6842 151.948 49.0526 152.263 48C152.369 47.7895 152.369 47.5789 152.369 47.3684V46H152.474ZM161.948 48.8421C161.948 49.5789 161.948 50.2105 162.053 50.7368H160.79L160.684 49.7895C160.263 50.4211 159.421 50.9474 158.263 50.9474C156.684 50.9474 155.842 49.7895 155.842 48.6316C155.842 46.7368 157.527 45.6842 160.579 45.6842V45.4737C160.579 44.8421 160.369 43.5789 158.79 43.6842C158.053 43.6842 157.316 43.8947 156.684 44.3158L156.369 43.3684C157 42.9474 157.948 42.7368 159 42.7368C161.421 42.7368 162.053 44.4211 162.053 46V48.8421M160.474 46.7368C158.895 46.7368 157.106 46.9474 157.106 48.5263C157.106 49.4737 157.737 49.8947 158.474 49.8947C159.527 49.8947 160.158 49.2632 160.369 48.5263C160.369 48.4211 160.474 48.2105 160.474 48.1053V46.7368ZM164.263 45.2632C164.263 44.3158 164.263 43.5789 164.158 42.8421H165.421L165.527 44.4211H165.632C165.948 43.3684 166.895 42.7368 167.842 42.7368C167.948 42.7368 168.053 42.7368 168.263 42.7368V44.1053C168.053 44.1053 167.948 44.1053 167.737 44.1053C166.684 44.1053 166.053 44.8421 165.842 45.8947C165.842 46.1053 165.842 46.3158 165.842 46.6316V50.8421H164.369L164.263 45.2632ZM176.263 39.1579V48.7368C176.263 49.4737 176.263 50.2105 176.369 50.7368H175.106L175 49.3684C174.579 50.2105 173.632 50.9474 172.263 50.9474C170.369 50.9474 168.895 49.3684 168.895 46.9474C168.895 44.3158 170.474 42.7368 172.474 42.7368C173.737 42.7368 174.474 43.2632 174.895 43.8947V39.1579H176.263ZM174.895 46C174.895 45.7895 174.895 45.5789 174.79 45.3684C174.579 44.4211 173.737 43.6842 172.684 43.6842C171.211 43.6842 170.369 44.9474 170.369 46.7368C170.369 48.3158 171.211 49.6842 172.684 49.6842C173.632 49.6842 174.579 49.0526 174.79 48C174.79 47.7895 174.895 47.5789 174.895 47.3684V46ZM178.474 49.2632C178.895 49.5789 179.632 49.7895 180.369 49.7895C181.421 49.7895 181.842 49.2632 181.842 48.6316C181.842 47.8947 181.421 47.5789 180.369 47.1579C178.895 46.6316 178.263 45.8947 178.263 44.9474C178.263 43.6842 179.316 42.6316 181 42.6316C181.842 42.6316 182.474 42.8421 182.895 43.1579L182.579 44.2105C182.263 44 181.737 43.7895 181 43.7895C180.158 43.7895 179.737 44.3158 179.737 44.8421C179.737 45.4737 180.158 45.7895 181.211 46.2105C182.579 46.7368 183.316 47.3684 183.316 48.6316C183.316 50 182.263 51.0526 180.369 51.0526C179.527 51.0526 178.684 50.8421 178.158 50.5263L178.474 49.2632ZM196.369 50.4211C195.842 50.6316 194.79 50.9474 193.421 50.9474C190.369 50.9474 187.948 48.9474 187.948 45.3684C187.948 41.8947 190.263 39.5789 193.737 39.5789C195.105 39.5789 195.948 39.8947 196.369 40.1053L196.053 41.2632C195.527 41.0526 194.79 40.8421 193.842 40.8421C191.211 40.8421 189.527 42.5263 189.527 45.3684C189.527 48.1053 191.105 49.7895 193.737 49.7895C194.579 49.7895 195.527 49.5789 196.053 49.3684L196.369 50.4211ZM201.105 50.9474C199 50.9474 197.316 49.3684 197.316 46.8421C197.316 44.2105 199.105 42.6316 201.211 42.6316C203.527 42.6316 205 44.3158 205 46.6316C205 49.5789 203 50.9474 201.105 50.9474ZM201.105 49.7895C202.474 49.7895 203.527 48.5263 203.527 46.7368C203.527 45.3684 202.895 43.6842 201.105 43.6842C199.421 43.6842 198.684 45.2632 198.684 46.7368C198.79 48.5263 199.737 49.7895 201.105 49.7895ZM213.421 48.5263C213.421 49.3684 213.421 50.1053 213.527 50.6316H212.263L212.158 49.3684C211.842 50 210.895 50.8421 209.527 50.8421C208.263 50.8421 206.79 50.1053 206.79 47.3684V42.7368H208.263V47.0526C208.263 48.5263 208.684 49.5789 210.053 49.5789C211 49.5789 211.632 48.9474 211.948 48.2105C212.053 48 212.053 47.7895 212.053 47.4737V42.6316H213.527V48.5263M215.842 44.9474C215.842 44.1053 215.842 43.4737 215.737 42.8421H217L217.105 44.1053C217.527 43.3684 218.369 42.6316 219.737 42.6316C220.79 42.6316 222.579 43.2632 222.579 46V50.7368H221.105V46.2105C221.105 44.9474 220.579 43.8947 219.316 43.8947C218.369 43.8947 217.632 44.5263 217.421 45.3684C217.316 45.5789 217.316 45.7895 217.316 46V50.7368H215.842V44.9474ZM230.579 50.4211C230.158 50.6316 229.421 50.8421 228.263 50.8421C225.842 50.8421 224.369 49.2632 224.369 46.8421C224.369 44.4211 226.053 42.6316 228.579 42.6316C229.421 42.6316 230.158 42.8421 230.579 43.0526L230.263 44.1053C229.948 43.8947 229.421 43.6842 228.579 43.6842C226.79 43.6842 225.737 45.0526 225.737 46.7368C225.737 48.5263 226.895 49.6842 228.474 49.6842C229.316 49.6842 229.842 49.4737 230.263 49.2632L230.579 50.4211ZM232.895 41.3684C232.369 41.3684 231.948 40.9474 231.948 40.4211C231.948 39.8947 232.369 39.4737 232.895 39.4737C233.421 39.4737 233.842 39.8947 233.842 40.4211C233.842 40.9474 233.527 41.3684 232.895 41.3684ZM233.632 50.7368H232.158V42.8421H233.632V50.7368Z" fill="#02797E"/>
    <path d="M237.527 39.1579H236.053V50.7368H237.527V39.1579Z" fill="#02797E"/>
    <path d="M109.316 45.4737L24.7898 72L0.158203 4.94737L88.895 0L109.316 45.4737Z" fill="#02797E"/>
    <path d="M45.4213 32C45.4213 33.6842 45.0003 35.1579 44.2635 36.5263C43.5266 37.7895 42.474 38.9474 41.1056 39.7895C39.7371 40.6316 38.0529 41.2632 36.1582 41.6842C34.2635 42.1053 32.1582 42.3158 29.7371 42.3158H28.0529V50.9474H17.1056V22.2105H29.9477C34.7898 22.2105 38.5792 23.0526 41.3161 24.6316C44.0529 26.2105 45.4213 28.7368 45.4213 32ZM34.895 32.1053C34.895 29.5789 33.0003 28.3158 29.3161 28.3158H27.9477V36H29.2108C31.0003 36 32.474 35.6842 33.4213 35.0526C34.3687 34.5263 34.895 33.4737 34.895 32.1053ZM72.5792 50.9474C70.895 51.2632 69.0003 51.4737 66.7898 51.4737C63.7371 51.4737 61.0003 51.1579 58.6845 50.4211C56.2634 49.6842 54.2634 48.7368 52.5792 47.4737C50.895 46.2105 49.6319 44.6316 48.7898 42.8421C47.9477 40.9474 47.5266 38.9474 47.5266 36.7368C47.5266 34.5263 47.9477 32.5263 48.895 30.6316C49.8424 28.8421 51.1056 27.2632 52.7898 25.8947C54.474 24.6316 56.474 23.5789 58.7898 22.8421C61.1055 22.1053 63.6319 21.7895 66.3687 21.7895C68.474 21.7895 70.474 21.8947 72.2634 22.2105C74.0529 22.6316 74.0529 22.6316 75.4213 23.1579V30.8421C74.3687 30.2105 73.1055 29.6842 71.7371 29.3684C70.3687 28.9474 68.895 28.7368 67.4213 28.7368C64.895 28.7368 62.895 29.4737 61.3161 30.7368C59.7371 32.1053 59.0003 34 59.0003 36.6316C59.0003 37.8947 59.2108 39.0526 59.7371 40.1053C60.2634 41.0526 60.895 41.8947 61.7371 42.5263C62.5792 43.1579 63.5266 43.6842 64.6845 44C65.8424 44.3158 67.0003 44.5263 68.2634 44.5263C69.5266 44.5263 70.895 44.4211 72.1582 44.1053C73.4213 43.7895 74.7898 43.4737 76.1582 42.8421V50.1053C74.474 50.5263 74.2634 50.6316 72.5792 50.9474Z" fill="white"/>
    <path d="M91.7371 22.2105H80.6845V51.0526H91.7371V22.2105Z" fill="white"/>
    <path d="M92.895 13.1579C92.895 15.0526 92.2634 16.6316 91.0003 17.6842C89.7371 18.7368 88.1582 19.3684 86.2634 19.3684C84.3687 19.3684 82.7897 18.8421 81.5266 17.6842C80.2634 16.6316 79.6319 15.0526 79.6319 13.1579C79.6319 11.1579 80.2634 9.68421 81.5266 8.52632C82.7897 7.36842 84.3687 6.84211 86.2634 6.84211C88.1582 6.84211 89.7371 7.36842 91.0003 8.52632C92.2634 9.57895 92.895 11.1579 92.895 13.1579Z" fill="white"/>
    <path d="M237.842 25.7895C237.842 27.5789 236.369 29.0526 234.474 29.0526C232.579 29.0526 231.105 27.5789 231.105 25.7895C231.105 24 232.579 22.5263 234.474 22.5263C236.369 22.5263 237.842 24 237.842 25.7895ZM232.158 25.7895C232.158 27.1579 233.211 28.2105 234.474 28.2105C235.842 28.2105 236.79 27.1579 236.79 25.7895C236.79 24.4211 235.737 23.3684 234.369 23.3684C233.105 23.3684 232.158 24.4211 232.158 25.7895ZM234.053 27.3684H233.105V24.3158C233.316 24.3158 233.842 24.2105 234.474 24.2105C235.105 24.2105 235.421 24.3158 235.632 24.4211C235.842 24.5263 235.948 24.7368 235.948 25.0526C235.948 25.3684 235.632 25.5789 235.211 25.6842C235.527 25.7895 235.737 26 235.842 26.4211C235.948 26.8421 235.948 27.0526 236.053 27.1579H235C234.895 27.0526 234.895 26.7368 234.79 26.5263C234.684 26.2105 234.579 26.1053 234.263 26.1053H233.948V27.3684H234.053ZM234.158 25.6842H234.474C234.79 25.6842 235 25.5789 235 25.3684C235 25.1579 234.79 24.9474 234.474 24.9474C234.369 24.9474 234.263 24.9474 234.158 24.9474V25.6842Z" fill="#02797E"/>
</svg>
