<svg width="146" height="24" viewBox="0 0 146 24" fill="none" xmlns="http://www.w3.org/2000/svg">
<mask id="mask0_96_15433" style="mask-type:alpha" maskUnits="userSpaceOnUse" x="0" y="0" width="146" height="24">
<rect width="145.337" height="24.0005" fill="#D9D9D9"/>
</mask>
<g mask="url(#mask0_96_15433)">
<path d="M94.2812 6.20586V3.06445H98.0053V6.20586H94.2812ZM94.2812 21.5329V7.9539H98.0053V21.5329H94.2812Z" fill="white"/>
<path d="M78.7266 21.5329V3.06445H82.4506V10.4113H82.6027C83.3373 8.61258 85.0094 7.70056 86.9348 7.70056C89.6455 7.70056 91.7229 9.24593 91.7229 13.3247V21.5329H87.9988V14.1354C87.9988 11.8553 87.2388 10.7406 85.44 10.7406C83.5147 10.7406 82.4506 12.2607 82.4506 13.9834V21.5329H78.7266Z" fill="white"/>
<path d="M70.8443 21.7849C67.1456 21.7849 64.8655 19.9608 64.8908 17.2248H68.5389C68.5643 18.5675 69.5269 19.1501 70.9456 19.1501C72.3137 19.1501 73.023 18.6181 73.023 17.7314C73.023 16.6674 72.3137 16.4394 70.4136 16.1607C66.8922 15.6287 65.2202 14.666 65.2202 12.0313C65.2202 9.42192 67.5256 7.69922 70.971 7.69922C74.2897 7.69922 76.4684 9.39659 76.5444 12.006H72.871C72.871 10.8406 72.0857 10.3086 70.8696 10.3086C69.6789 10.3086 68.9443 10.8153 68.9443 11.702C68.9443 12.69 69.7803 12.994 71.9083 13.2727C75.2524 13.7034 76.8231 14.742 76.8231 17.4021C76.8231 20.2142 74.4417 21.7849 70.8443 21.7849Z" fill="white"/>
<path d="M54.7886 21.7595C51.5459 21.7595 49.3672 19.4035 49.3672 14.742C49.3672 10.0553 51.5459 7.69922 54.7886 7.69922C56.8914 7.69922 58.4621 8.73791 59.0954 10.3086H59.2981L59.4501 7.95256H63.0222V21.5315H59.2981V19.1501H59.0954C58.4621 20.7208 56.8914 21.7595 54.7886 21.7595ZM56.2073 18.7448C58.2847 18.7448 59.2474 17.1234 59.2474 15.3754V14.0834C59.2474 12.3353 58.2847 10.714 56.2073 10.714C54.3833 10.714 53.1673 11.9806 53.1673 14.742C53.1673 17.4781 54.3833 18.7448 56.2073 18.7448Z" fill="white"/>
<path d="M31.7422 21.5329V3.06445H39.5957C45.1185 3.06445 48.1079 6.78854 48.1079 12.3113C48.1079 17.8341 45.0932 21.5329 39.5957 21.5329H31.7422ZM35.6943 18.1635H38.9624C41.9264 18.1635 44.0798 16.6941 44.0798 12.2353C44.0798 7.8779 41.9771 6.40853 38.9624 6.40853H35.6943V18.1635Z" fill="white"/>
<path d="M19.4297 21.5329V3.06445H23.3818V21.5329H19.4297Z" fill="white"/>
<path d="M0.0234375 21.5329L6.17958 3.06445H11.753L17.9092 21.5329H13.8051L12.5637 17.7328H5.36889L4.12753 21.5329H0.0234375ZM6.28091 14.7181H11.6517L10.081 10.0059L9.04231 6.63654H8.89031L7.85162 10.0059L6.28091 14.7181Z" fill="white"/>
<path d="M139.382 0.134766C142.671 0.134766 145.337 2.80098 145.337 6.08984V18.1797C145.337 21.4685 142.671 24.1348 139.382 24.1348H111.291C108.002 24.1346 105.336 21.4685 105.336 18.1797V6.08984C105.336 2.80106 108.002 0.134885 111.291 0.134766H139.382ZM116.592 4.95312V9.97363H113.991V6.22363H112.177V11.7422H116.592V16.3389H113.432V12.5586H111.587V19H113.432V18.1084H121.838V18.9854H123.729V12.5586H121.838V16.3389H118.467V11.7422H123.123V6.20801H121.219V9.97363H118.467V4.95312H116.592ZM134.076 9.71484H130.1V11.6055H134.076V18.999H136.026V11.6055H139.867V9.71484H136.026V4.86133H134.076V9.71484ZM129.102 12.8145C128.809 13.3991 128.491 13.9893 128.148 14.584C127.806 15.1685 127.468 15.723 127.136 16.2471C126.803 16.7611 126.501 17.2097 126.229 17.5928L127.771 18.8174C128.073 18.3235 128.375 17.8095 128.678 17.2754C128.99 16.7413 129.293 16.1969 129.585 15.6426C129.887 15.0882 130.17 14.5485 130.432 14.0244L129.102 12.8145ZM125.578 10.3203C125.911 10.4715 126.269 10.648 126.652 10.8496C127.035 11.0511 127.403 11.2526 127.756 11.4541C128.109 11.6456 128.401 11.8221 128.633 11.9834L129.631 10.4414C129.389 10.2902 129.086 10.1284 128.724 9.95703C128.361 9.77566 127.983 9.59446 127.59 9.41309C127.207 9.23164 126.858 9.07538 126.546 8.94434L125.578 10.3203ZM126.516 6.19238C126.838 6.36374 127.197 6.56047 127.59 6.78223C127.983 7.00386 128.355 7.22563 128.708 7.44727C129.061 7.65895 129.349 7.84555 129.57 8.00684L130.629 6.52441C130.387 6.36317 130.084 6.18202 129.722 5.98047C129.359 5.77887 128.98 5.58215 128.587 5.39062C128.194 5.18915 127.842 5.01246 127.529 4.86133L126.516 6.19238Z" fill="white"/>
</g>
</svg>
