<svg width="40" height="40" viewBox="0 0 40 40" fill="none" xmlns="http://www.w3.org/2000/svg">
<path d="M7.5 37.5H32.5C33.163 37.5 33.7989 37.2366 34.2678 36.7678C34.7366 36.2989 35 35.663 35 35V27.5C35 26.837 34.7366 26.2011 34.2678 25.7322C33.7989 25.2634 33.163 25 32.5 25H7.5C6.83696 25 6.20107 25.2634 5.73223 25.7322C5.26339 26.2011 5 26.837 5 27.5V35C5 35.663 5.26339 36.2989 5.73223 36.7678C6.20107 37.2366 6.83696 37.5 7.5 37.5ZM7.5 27.5H32.5V35H7.5V27.5Z" fill="url(#paint0_linear_7980_14669)"/>
<path d="M11.25 32.5C11.9404 32.5 12.5 31.9404 12.5 31.25C12.5 30.5596 11.9404 30 11.25 30C10.5596 30 10 30.5596 10 31.25C10 31.9404 10.5596 32.5 11.25 32.5Z" fill="url(#paint1_linear_7980_14669)"/>
<path d="M32.5 2.49921L30.7375 4.26171L33.9625 7.49921H27.8938C27.0072 5.59439 25.4635 4.0732 23.5458 3.21485C21.6281 2.35651 19.4652 2.21859 17.4541 2.82642C15.4429 3.43426 13.7184 4.74705 12.5972 6.52385C11.4759 8.30065 11.0331 10.4222 11.35 12.4992H6.0375L9.2625 9.26171L7.5 7.49921L1.25 13.7492L7.5 19.9992L9.2625 18.2367L6.0375 14.9992H12.1063C12.9928 16.904 14.5365 18.4252 16.4542 19.2836C18.3719 20.1419 20.5348 20.2798 22.5459 19.672C24.5571 19.0642 26.2816 17.7514 27.4028 15.9746C28.5241 14.1978 28.9669 12.0762 28.65 9.99921H33.9625L30.7375 13.2367L32.5 14.9992L38.75 8.74921L32.5 2.49921ZM26.25 11.2492C26.2545 12.5592 25.8458 13.8373 25.0821 14.9017C24.3184 15.9661 23.2385 16.7626 21.996 17.178C20.7536 17.5933 19.4118 17.6063 18.1615 17.2152C16.9112 16.824 15.8161 16.0486 15.0319 14.9992H20V12.4992H13.8764C13.5877 11.1109 13.7812 9.66569 14.4248 8.4022C15.0685 7.13871 16.1238 6.13251 17.4165 5.54978C18.7092 4.96704 20.162 4.84261 21.535 5.19705C22.908 5.55148 24.119 6.36357 24.9681 7.49921H20V9.99921H26.1236C26.2076 10.4106 26.25 10.8294 26.25 11.2492Z" fill="url(#paint2_linear_7980_14669)"/>
<defs>
<linearGradient id="paint0_linear_7980_14669" x1="20" y1="25" x2="20" y2="37.5" gradientUnits="userSpaceOnUse">
<stop stop-color="#A849F4"/>
<stop offset="1" stop-color="#7477ED"/>
</linearGradient>
<linearGradient id="paint1_linear_7980_14669" x1="11.25" y1="30" x2="11.25" y2="32.5" gradientUnits="userSpaceOnUse">
<stop stop-color="#A849F4"/>
<stop offset="1" stop-color="#7477ED"/>
</linearGradient>
<linearGradient id="paint2_linear_7980_14669" x1="20" y1="2.45312" x2="20" y2="20.0453" gradientUnits="userSpaceOnUse">
<stop stop-color="#A849F4"/>
<stop offset="1" stop-color="#7477ED"/>
</linearGradient>
</defs>
</svg>
