<svg width="66" height="29" viewBox="0 0 66 29" fill="none" xmlns="http://www.w3.org/2000/svg">
<path d="M51.5921 16.6252C51.5921 12.3786 54.4501 9.40597 58.7961 9.40597C63.142 9.40597 66 12.3786 66 16.6252C66 20.8718 63.142 23.8444 58.7961 23.8444C54.4501 23.8444 51.5921 20.8718 51.5921 16.6252ZM56.1979 16.6252C56.1979 18.7721 57.308 19.9517 58.7961 19.9517C60.2841 19.9517 61.3942 18.7721 61.3942 16.6252C61.3942 14.4783 60.2841 13.2987 58.7961 13.2987C57.308 13.2987 56.1979 14.4783 56.1979 16.6252Z" fill="black"/>
<path d="M41.8231 21.8154C38.7762 21.5323 36.7449 19.2439 36.7449 15.941C36.7449 11.7652 39.5793 9.40597 43.2403 9.40597C44.4213 9.40597 45.4605 9.83063 46.2163 10.6328L46.547 9.59471H50.4206V21.7683C50.4206 25.8969 47.5863 28.0438 43.878 28.0438C41.6106 28.0438 39.2958 27.6191 37.5952 26.7934L38.7998 22.7355C39.9808 23.3253 41.7759 23.7736 43.1931 23.7736C44.9881 23.7736 45.8384 23.0658 45.8384 21.5087V20.3291C45.1062 21.4616 43.3584 21.957 41.8231 21.8154ZM41.4216 15.5871C41.4216 17.1442 42.1302 18.2058 43.571 18.253C44.4449 18.2766 45.5314 17.8284 45.8148 17.0498V14.1244C45.3188 13.629 44.6102 13.2515 43.7363 13.2515C42.2719 13.2515 41.4216 14.3367 41.4216 15.5871Z" fill="black"/>
<path d="M30.467 9.40597C33.2777 9.40597 35.12 11.3877 35.12 14.6906V23.4197H30.5142V16.0826C30.5142 14.4783 29.5222 13.8177 28.3412 13.8177C27.1602 13.8177 26.1446 14.5491 26.0029 15.7523V23.4197H21.3971V9.83063H26.0029V11.5764C27.0421 10.0666 28.5065 9.40597 30.467 9.40597Z" fill="black"/>
<path d="M18.3377 10.4676V19.0787C18.3377 19.6921 18.4322 19.9752 18.8101 20.0224C19.0227 20.046 19.2825 19.9988 19.4951 19.9281L19.9674 20.2348C20.2036 21.4851 19.4006 24.1039 16.4009 23.9151C14.4877 23.7972 13.7319 22.476 13.7319 19.9281V10.4676H18.3377ZM13.1887 6.5985C13.1887 5.04142 14.3933 3.95618 16.023 3.95618C17.6527 3.95618 18.8573 5.04142 18.8573 6.5985C18.8573 8.15558 17.6527 9.24082 16.023 9.24082C14.3933 9.24082 13.1887 8.15558 13.1887 6.5985Z" fill="black"/>
<path d="M4.65303 19.527H12.0932V23.4197H0V4.40446H4.65303V19.527Z" fill="black"/>
</svg>
